<svg width="100" height="69" viewBox="0 0 100 69" fill="none" xmlns="http://www.w3.org/2000/svg">
<path d="M42.7812 16.1641C37.8333 16.2943 33.8945 17.1081 30.9648 18.6055C28.0352 20.0378 25.724 22.3164 24.0312 25.4414C30.8021 25.4414 36.401 27.1016 40.8281 30.4219C45.3203 33.7422 47.5664 39.1458 47.5664 46.6328C47.5664 49.4323 47.0781 52.1667 46.1016 54.8359C45.125 57.5052 43.6276 59.8815 41.6094 61.9648C39.5911 63.9831 37.1497 65.6758 34.2852 67.043C31.4206 68.3451 28.1328 68.9961 24.4219 68.9961C17.0651 68.9961 11.1406 66.6198 6.64844 61.8672C2.22135 57.0495 0.0078125 50.6367 0.0078125 42.6289C0.0078125 38.2018 0.626302 33.7422 1.86328 29.25C3.16536 24.6927 5.44401 20.4935 8.69922 16.6523C11.9544 12.7461 16.349 9.32812 21.8828 6.39844C27.4167 3.46875 34.3828 1.41797 42.7812 0.246094V16.1641ZM94.832 16.1641C89.8841 16.2943 85.9453 17.1081 83.0156 18.6055C80.0859 20.0378 77.7422 22.3164 75.9844 25.4414C82.8203 25.4414 88.4518 27.1016 92.8789 30.4219C97.3711 33.7422 99.6172 39.1458 99.6172 46.6328C99.6172 49.4323 99.0964 52.1667 98.0547 54.8359C97.0781 57.5052 95.5807 59.8815 93.5625 61.9648C91.6094 63.9831 89.2005 65.6758 86.3359 67.043C83.4714 68.3451 80.151 68.9961 76.375 68.9961C69.0833 68.9961 63.1914 66.6198 58.6992 61.8672C54.207 57.0495 51.9609 50.6367 51.9609 42.6289C51.9609 38.2018 52.5794 33.7422 53.8164 29.25C55.1185 24.6927 57.3971 20.4935 60.6523 16.6523C63.9727 12.7461 68.3997 9.32812 73.9336 6.39844C79.4674 3.46875 86.4336 1.41797 94.832 0.246094V16.1641Z" fill="#17C3B2" fill-opacity="0.5"/>
</svg>
