<svg width="32" height="21" viewBox="0 0 32 21" fill="none" xmlns="http://www.w3.org/2000/svg">
<path d="M2.9 0H29.05C30.7 0 32 1.3 32 2.85V18.15C32 19.75 30.7 21 29.1 21H2.9C1.3 21 0 19.7 0 18.15V2.85C0 1.3 1.3 0 2.9 0Z" fill="#CE1126"/>
<path d="M0 18.15C0 19.7 1.3 21 2.9 21H29.1C30.7 21 32 19.75 32 18.15V7H0V18.15Z" fill="black"/>
<path d="M32 7H0V14H32V7Z" fill="white"/>
<path d="M18.3 12.7L18.25 11.4L18.15 8.90001C18.15 8.30001 17.6 8.45001 17.25 8.65001C17.05 8.80001 16.8 8.85001 16.6 8.85001C16.5 8.70001 16.4 8.35001 16.45 8.10001C16.45 7.85001 16.45 7.70001 16.4 7.65001C16.4 7.60001 16.35 7.60001 16.35 7.60001C16.3 7.55001 16.05 7.50001 15.95 7.45001C15.85 7.45001 15.9 7.50001 15.9 7.50001C15.75 7.45001 15.6 7.45001 15.55 7.50001L15.5 7.55001C15.5 7.60001 15.5 7.70001 15.5 7.70001C15.6 7.60001 15.7 7.70001 15.75 7.80001C15.75 7.80001 15.8 7.85001 15.8 7.90001C15.8 8.00001 15.8 8.20001 15.75 8.40001C15.7 8.60001 15.6 8.75001 15.5 8.90001C15.25 8.90001 15.05 8.85001 14.85 8.70001C14.5 8.50001 14 8.35001 13.95 8.95001L13.8 12.75L14.05 12.55L14.15 12.5L14.2 12.45L14.9 11.8L15.05 11.65L14.7 12.5C14.65 12.5 14.6 12.45 14.55 12.45C14.5 12.45 14.5 12.45 14.45 12.5C14.3 12.5 14.25 12.65 14.3 12.75C14.3 12.75 14.3 12.75 14.35 12.75C14.35 12.8 14.3 12.8 14.3 12.85C14.15 12.8 14.15 13.05 14.05 13C14.15 13 14.1 13.2 14.25 13.25C14.25 13.35 14.25 13.45 14.4 13.45C14.75 13.55 15.4 13.6 16.05 13.6C16.7 13.6 17.35 13.55 17.7 13.45C17.85 13.4 17.85 13.35 17.85 13.25C18 13.2 17.95 13 18.05 13C17.95 13.05 17.9 12.8 17.8 12.85C17.8 12.8 17.8 12.8 17.75 12.75C17.75 12.75 17.75 12.75 17.8 12.75C17.85 12.65 17.8 12.5 17.65 12.5C17.6 12.5 17.6 12.45 17.55 12.45C17.5 12.45 17.45 12.5 17.4 12.5L17.15 11.55L17.35 11.7L17.45 11.8L17.65 12L17.9 12.25L18 12.35L18.1 12.4L18.3 12.7ZM15.85 12.7C15.85 12.7 15.8 12.65 15.75 12.65C15.7 12.65 15.6 12.65 15.55 12.65L15.6 12.45L15.7 12.55L15.8 12.45L15.95 11.35L15.9 12.5L16 12.65L16.1 12.5L16.05 11.4L16.2 12.5L16.3 12.6L16.4 12.5L16.45 12.7C16.4 12.7 16.3 12.7 16.25 12.7C16.2 12.7 16.15 12.75 16.15 12.8C16.15 12.8 16.15 12.8 16.15 12.75C16.05 12.75 16.05 12.8 16.05 12.9H16H15.95C15.95 12.75 15.9 12.7 15.85 12.7ZM14.4 12.65C14.45 12.65 14.45 12.65 14.4 12.65V12.65ZM17.55 12.65C17.6 12.65 17.6 12.65 17.55 12.65C17.6 12.65 17.6 12.65 17.6 12.65H17.55Z" fill="#FCD327"/>
</svg>
