<svg width="32" height="23" viewBox="0 0 32 23" fill="none" xmlns="http://www.w3.org/2000/svg">
<path d="M2.9 1H29.05C30.7 1 32 2.30628 32 3.86377V19.2377C32 20.8454 30.7 22.1014 29.1 22.1014H2.9C1.3 22.1014 0 20.7952 0 19.2377V3.86377C0 2.30628 1.3 1 2.9 1Z" fill="white"/>
<path d="M2.9 22.1014H10.65V1H2.9C1.3 1 0 2.30628 0 3.86377V19.2879C0 20.8454 1.3 22.1517 2.9 22.1014Z" fill="#00209F"/>
<path d="M29.1001 22.1014H21.3501V1H29.1001C30.7001 1 32.0001 2.30628 32.0001 3.86377V19.2879C32.0001 20.8454 30.7001 22.1517 29.1001 22.1014Z" fill="#F32840"/>
</svg>
