<svg width="32" height="26" viewBox="0 0 32 26" fill="none" xmlns="http://www.w3.org/2000/svg">
<path d="M2.9 0.978058H29.05C30.7 0.978058 32 2.50463 32 4.32477V22.2913C32 24.1702 30.7 25.638 29.1 25.638H2.9C1.3 25.638 0 24.1115 0 22.2913V4.32477C0 2.50463 1.3 0.978058 2.9 0.978058Z" fill="#BC091C"/>
<path d="M0 22.2913C0 24.1115 1.3 25.638 2.9 25.638H29.1C30.7 25.638 32 24.1702 32 22.2913V9.19806H0V22.2913Z" fill="#BC091C"/>
<path d="M32 6.37976H0V20.1776H32V6.37976Z" fill="#FFC400"/>
<path d="M5.70008 11.605C5.70008 11.6637 5.75008 11.6637 5.70008 11.605C5.75008 11.6637 5.75008 11.6637 5.80008 11.6637H5.85008C5.85008 11.6637 5.85008 11.6637 5.85008 11.7223H5.90008C5.90008 11.7223 5.90008 11.781 5.95008 11.781C6.00008 11.781 6.00008 11.781 6.10008 11.781H5.75008V12.1331H5.90008C5.85008 12.1331 5.85008 12.1331 5.85008 12.1918C5.85008 12.1918 5.85008 12.2505 5.90008 12.2505C5.95008 12.2505 5.95008 12.3091 5.95008 12.3091C5.95008 12.3678 5.95008 12.3678 5.90008 12.3678C5.90008 12.3678 5.85008 12.3678 5.85008 12.4265C5.85008 12.4265 5.85008 12.4852 5.90008 12.4852H6.70008C6.75008 12.4852 6.75008 12.4852 6.75008 12.4265C6.75008 12.4265 6.75008 12.3678 6.70008 12.3678C6.65008 12.3678 6.65008 12.3091 6.65008 12.3091C6.65008 12.2505 6.65008 12.2505 6.70008 12.2505C6.70008 12.2505 6.75008 12.2505 6.75008 12.1918C6.75008 12.1918 6.75008 12.1331 6.70008 12.1331H6.85008V11.781H6.50008C6.55008 11.781 6.60008 11.781 6.65008 11.781C6.70008 11.781 6.70008 11.781 6.70008 11.7223H6.75008V11.6637H6.80008L6.85008 11.605C6.85008 11.605 6.85008 11.605 6.90008 11.5463H6.95008C6.95008 11.5463 6.95008 11.5463 6.90008 11.5463V11.4876V11.4289L6.85008 11.3703H6.80008V11.3116C6.80008 11.3116 6.75008 11.3116 6.70008 11.3116H6.65008H6.60008H6.55008H6.50008C6.50008 11.3116 6.50008 11.3116 6.50008 11.2529V11.1942V11.1355H6.55008V11.0769H6.50008V11.0182H6.45008V11.0769H6.40008V11.1355H6.45008V11.1942V11.2529C6.45008 11.2529 6.45008 11.2529 6.45008 11.3116C6.45008 11.3116 6.40008 11.3116 6.35008 11.3116H6.30008H6.25008H6.20008C6.15008 11.3116 6.15008 11.3116 6.10008 11.3116C6.10008 11.3116 6.10008 11.3116 6.10008 11.3703C6.10008 11.3703 6.05008 11.3703 6.05008 11.4289L6.00008 11.4876C6.00008 11.5463 6.00008 11.605 6.00008 11.605H5.95008C5.65008 11.5463 5.65008 11.5463 5.70008 11.605ZM6.45008 11.8397C6.40008 11.8397 6.30008 11.8397 6.25008 11.781C6.35008 11.781 6.40008 11.781 6.45008 11.8397ZM6.20008 11.781C6.10008 11.781 5.95008 11.781 5.90008 11.8397C5.95008 11.781 6.05008 11.781 6.20008 11.781Z" fill="#BC091C"/>
<path d="M6.74995 17.7112C6.74995 17.6526 6.74995 17.6526 6.74995 17.7112V17.4178C6.69995 17.4178 6.59995 17.3592 6.59995 17.3005C6.59995 17.3005 6.59995 17.3005 6.59995 17.2418C6.64995 17.2418 6.64995 17.2418 6.64995 17.1831C6.64995 17.1831 6.64995 17.1245 6.59995 17.1245H5.79995C5.74995 17.1245 5.74995 17.1245 5.74995 17.1831C5.74995 17.1831 5.74995 17.2418 5.79995 17.2418C5.79995 17.2418 5.79995 17.2418 5.79995 17.3005C5.79995 17.3592 5.74995 17.4178 5.64995 17.4178V17.7112C5.59995 17.7699 5.54995 17.7699 5.44995 17.7699V17.8873C5.49995 17.8873 5.59995 17.8873 5.64995 17.8286C5.64995 17.8286 5.64995 17.8286 5.69995 17.8286H5.64995C5.59995 17.8873 5.54995 17.8873 5.44995 17.8873V18.0046V18.122C5.49995 18.122 5.59995 18.122 5.64995 18.0633C5.59995 18.122 5.54995 18.122 5.44995 18.122V18.2394C5.49995 18.2394 5.59995 18.2394 5.64995 18.1807C5.69995 18.1807 5.74995 18.122 5.84995 18.122C5.89995 18.122 5.99995 18.122 6.04995 18.1807C6.09995 18.2394 6.14995 18.2394 6.24995 18.2394C6.29995 18.2394 6.39995 18.2394 6.44995 18.1807C6.49995 18.1807 6.54995 18.122 6.64995 18.122C6.69995 18.122 6.79995 18.122 6.84995 18.1807C6.79995 18.1807 6.74995 18.122 6.64995 18.122C6.59995 18.122 6.49995 18.122 6.44995 18.1807C6.39995 18.1807 6.34995 18.2394 6.24995 18.2394C6.19995 18.2394 6.09995 18.2394 6.04995 18.1807C5.99995 18.1807 5.94995 18.122 5.84995 18.122C5.79995 18.122 5.69995 18.122 5.64995 18.1807C5.59995 18.2394 5.54995 18.2394 5.44995 18.2394V18.3567C5.49995 18.3567 5.59995 18.3567 5.64995 18.298C5.69995 18.298 5.74995 18.2394 5.84995 18.2394C5.89995 18.2394 5.99995 18.2394 6.04995 18.298C6.09995 18.3567 6.14995 18.3567 6.24995 18.3567C6.29995 18.3567 6.39995 18.3567 6.44995 18.298C6.49995 18.298 6.54995 18.2394 6.64995 18.2394C6.69995 18.2394 6.79995 18.2394 6.84995 18.298C6.89995 18.3567 6.94995 18.3567 7.04995 18.3567V18.2394V18.122V18.0046V17.8873V17.7699C6.84995 17.7112 6.79995 17.7112 6.74995 17.7112ZM6.39995 17.7112C6.34995 17.7112 6.29995 17.7699 6.19995 17.7699C6.14995 17.7699 6.04995 17.7699 5.99995 17.7112H6.39995ZM5.84995 17.7699H5.79995C5.79995 17.7699 5.79995 17.7699 5.84995 17.7699ZM6.74995 17.8286C6.69995 17.8286 6.64995 17.7699 6.54995 17.7699C6.49995 17.7699 6.39995 17.7699 6.34995 17.8286C6.29995 17.8873 6.24995 17.8873 6.14995 17.8873C6.09995 17.8873 5.99995 17.8873 5.94995 17.8286C5.99995 17.8873 6.04995 17.8873 6.14995 17.8873C6.19995 17.8873 6.29995 17.8873 6.34995 17.8286C6.39995 17.8286 6.44995 17.7699 6.54995 17.7699C6.64995 17.7699 6.69995 17.7699 6.74995 17.8286Z" fill="#BC091C"/>
<path d="M12.75 11.4876C12.7 11.5462 12.75 11.5462 12.75 11.4876C12.7 11.5462 12.75 11.5462 12.75 11.5462L12.8 11.6049L12.85 11.6636H12.9C12.9 11.6636 12.9 11.6636 12.9 11.7223H12.95C12.95 11.7223 12.95 11.781 13 11.781C13.05 11.781 13.05 11.781 13.15 11.781H12.8V12.133H12.95C12.9 12.133 12.9 12.133 12.9 12.1917C12.9 12.1917 12.9 12.2504 12.95 12.2504C13 12.2504 13 12.3091 13 12.3091C13 12.3678 13 12.3678 12.95 12.3678C12.95 12.3678 12.9 12.3678 12.9 12.4264C12.9 12.4264 12.9 12.4851 12.95 12.4851H13.75C13.8 12.4851 13.8 12.4851 13.8 12.4264C13.8 12.4264 13.8 12.3678 13.75 12.3678C13.7 12.3678 13.7 12.3091 13.7 12.3091C13.7 12.2504 13.7 12.2504 13.75 12.2504C13.75 12.2504 13.8 12.2504 13.8 12.1917C13.8 12.1917 13.8 12.133 13.75 12.133H13.9V11.781H13.55C13.6 11.781 13.65 11.781 13.7 11.781C13.75 11.781 13.75 11.781 13.75 11.7223H13.8V11.6636H13.85L13.9 11.6049C13.9 11.6049 13.9 11.6049 13.95 11.5462H14C14 11.5462 14 11.5462 13.95 11.5462V11.4876C13.95 11.4289 13.9 11.3115 13.8 11.3115H13.75L13.8 11.3702C13.8 11.3702 13.8 11.3702 13.75 11.3702C13.75 11.3115 13.7 11.2528 13.65 11.2528C13.6 11.2528 13.6 11.2528 13.55 11.2528L13.65 11.3115C13.6 11.3115 13.6 11.3115 13.55 11.3115C13.55 11.3115 13.55 11.3115 13.55 11.2528C13.55 11.1942 13.55 11.1942 13.5 11.1355V11.0768V11.0181H13.55V10.9594H13.5V10.9008H13.45V10.9594H13.4V11.0181H13.45V11.0768V11.1355C13.45 11.1355 13.4 11.1942 13.4 11.2528C13.4 11.2528 13.4 11.2528 13.4 11.3115C13.4 11.3115 13.35 11.3115 13.3 11.3115L13.4 11.2528C13.4 11.2528 13.35 11.2528 13.3 11.2528C13.25 11.2528 13.2 11.3115 13.2 11.3702C13.2 11.3702 13.2 11.3702 13.15 11.3702L13.2 11.3115H13.15C12.85 11.3702 12.75 11.4289 12.75 11.4876ZM13.55 11.8396C13.5 11.8396 13.4 11.8396 13.35 11.781C13.4 11.781 13.5 11.781 13.55 11.8396ZM13.25 11.6636H13.3C13.3 11.6636 13.3 11.6636 13.25 11.6636ZM13.25 11.781C13.15 11.781 13 11.781 12.95 11.8396C13.05 11.781 13.15 11.781 13.25 11.781Z" fill="#BC091C"/>
<path d="M13.85 17.7112C13.8 17.6526 13.8 17.6526 13.85 17.7112V17.4178C13.8 17.4178 13.7 17.3592 13.7 17.3005C13.7 17.3005 13.7 17.3005 13.7 17.2418C13.75 17.2418 13.75 17.2418 13.75 17.1831C13.75 17.1831 13.75 17.1245 13.7 17.1245H12.9C12.85 17.1245 12.85 17.1245 12.85 17.1831C12.85 17.1831 12.85 17.2418 12.9 17.2418C12.9 17.2418 12.9 17.2418 12.9 17.3005C12.9 17.3592 12.85 17.4178 12.75 17.4178V17.7112C12.7 17.7699 12.65 17.7699 12.55 17.7699V17.8873C12.6 17.8873 12.7 17.8873 12.75 17.8286C12.75 17.8286 12.75 17.8286 12.8 17.8286H12.75C12.7 17.8873 12.65 17.8873 12.55 17.8873V18.0046V18.122C12.6 18.122 12.7 18.122 12.75 18.0633C12.7 18.122 12.65 18.122 12.55 18.122V18.2394C12.6 18.2394 12.7 18.2394 12.75 18.1807C12.8 18.1807 12.85 18.122 12.95 18.122C13 18.122 13.1 18.122 13.15 18.1807C13.2 18.2394 13.25 18.2394 13.35 18.2394C13.4 18.2394 13.5 18.2394 13.55 18.1807C13.6 18.1807 13.65 18.122 13.75 18.122C13.8 18.122 13.9 18.122 13.95 18.1807C13.9 18.1807 13.85 18.122 13.75 18.122C13.7 18.122 13.6 18.122 13.55 18.1807C13.5 18.1807 13.45 18.2394 13.35 18.2394C13.3 18.2394 13.2 18.2394 13.15 18.1807C13.1 18.1807 13.05 18.122 12.95 18.122C12.9 18.122 12.8 18.122 12.75 18.1807C12.7 18.2394 12.65 18.2394 12.55 18.2394V18.3567C12.6 18.3567 12.7 18.3567 12.75 18.298C12.8 18.298 12.85 18.2394 12.95 18.2394C13 18.2394 13.1 18.2394 13.15 18.298C13.2 18.3567 13.25 18.3567 13.35 18.3567C13.4 18.3567 13.5 18.3567 13.55 18.298C13.6 18.298 13.65 18.2394 13.75 18.2394C13.8 18.2394 13.9 18.2394 13.95 18.298C14 18.3567 14.05 18.3567 14.15 18.3567V18.2394V18.122V18.0046V17.8873V17.7699C13.95 17.7112 13.9 17.7112 13.85 17.7112ZM13.45 17.7112C13.4 17.7112 13.35 17.7699 13.25 17.7699C13.2 17.7699 13.1 17.7699 13.05 17.7112H13.45ZM13.85 17.8286C13.8 17.8286 13.75 17.7699 13.65 17.7699C13.6 17.7699 13.5 17.7699 13.45 17.8286C13.4 17.8873 13.35 17.8873 13.25 17.8873C13.2 17.8873 13.1 17.8873 13.05 17.8286C13.1 17.8873 13.15 17.8873 13.25 17.8873C13.3 17.8873 13.4 17.8873 13.45 17.8286C13.5 17.8286 13.55 17.7699 13.65 17.7699C13.7 17.7699 13.8 17.7699 13.85 17.8286Z" fill="#BC091C"/>
<path d="M14.05 14.6585C14.05 14.6585 14.2 14.1888 14.25 14.1888C14.25 14.0126 14.05 13.8365 13.7 13.719V12.6035H12.95V13.6016C12.65 13.6016 12.35 13.6603 12.2 13.719V11.8989H10.45C10.75 11.8402 11.05 11.7815 11.3 11.7228C11.35 11.7228 11.35 11.6641 11.35 11.6641C11.35 11.6641 11.35 11.6053 11.3 11.6053C11.25 11.6053 11.25 11.5466 11.3 11.4879L11.4 11.4292L11.35 11.3705C11.4 11.3118 11.4 11.3118 11.45 11.3118C11.5 11.3118 11.5 11.3118 11.5 11.2531C11.5 11.1943 11.5 11.1943 11.45 11.1943C11.4 11.1943 11.4 11.1943 11.35 11.1943H11.4C11.45 11.1943 11.55 11.1943 11.6 11.1356C11.65 11.0769 11.75 10.9595 11.75 10.9595C11.8 10.9595 11.8 10.9595 11.85 10.9595C11.9 10.9008 11.9 10.8421 11.85 10.8421C11.85 10.8421 11.9 10.7246 11.95 10.6659C12 10.6072 12.1 10.6659 12.1 10.6659C12.1 10.5485 12.05 10.4898 11.95 10.4898V10.4311L12 10.3723C12.05 10.2549 12.1 10.1375 12.1 10.0201C12.1 9.7852 11.95 9.60905 11.8 9.43291L11.85 9.49163C11.7 9.3742 11.45 9.25677 11.2 9.25677C11.15 9.25677 11.05 9.25677 11 9.25677C11 9.25677 11 9.25677 10.95 9.25677H10.9C10.9 9.25677 10.9 9.25677 10.85 9.25677C10.8 9.19805 10.75 9.13934 10.7 9.08063C10.75 9.13934 10.8 9.19805 10.8 9.19805C10.7 9.02191 10.45 8.84577 10.2 8.84577C10.05 8.84577 9.90002 8.90448 9.75002 8.9632C9.75002 8.9632 9.75002 8.90448 9.70002 8.90448C9.70002 8.90448 9.70002 8.90448 9.75002 8.90448C9.80002 8.90448 9.80002 8.90448 9.80002 8.84577C9.80002 8.78705 9.80002 8.78705 9.75002 8.78705C9.70002 8.78705 9.70002 8.78705 9.70002 8.84577C9.70002 8.84577 9.65002 8.78705 9.60002 8.78705C9.65002 8.78705 9.70002 8.72834 9.75002 8.66963C9.75002 8.66963 9.75002 8.61091 9.75002 8.5522C9.75002 8.43477 9.70002 8.37606 9.60002 8.31734V8.1412H9.70002V8.02377H9.60002V7.90634H9.50002V8.02377H9.40002V8.1412H9.50002V8.31734C9.40002 8.31734 9.35002 8.43477 9.35002 8.5522C9.35002 8.61091 9.35002 8.61091 9.35002 8.66963C9.40002 8.72834 9.45002 8.78705 9.50002 8.78705C9.45002 8.78705 9.45002 8.84577 9.40002 8.84577C9.40002 8.78705 9.40002 8.78705 9.35002 8.78705C9.30002 8.78705 9.30002 8.78705 9.30002 8.84577C9.30002 8.90448 9.30002 8.90448 9.35002 8.90448C9.35002 8.90448 9.35002 8.90448 9.40002 8.90448C9.40002 8.90448 9.40002 8.9632 9.35002 8.9632C9.25002 8.90448 9.10002 8.84577 8.90002 8.84577C8.65002 8.84577 8.40002 8.9632 8.30002 9.19805C8.35002 9.13934 8.35002 9.08063 8.40002 9.08063C8.35002 9.13934 8.30002 9.19805 8.25002 9.25677C8.25002 9.25677 8.25002 9.25677 8.20002 9.25677C8.20002 9.25677 8.20002 9.25677 8.15002 9.25677C8.15002 9.25677 8.15002 9.25677 8.10002 9.25677C8.05002 9.25677 7.95002 9.25677 7.90002 9.25677C7.65002 9.25677 7.45002 9.31548 7.30002 9.43291C7.10002 9.55034 7.00002 9.7852 7.00002 10.0201C7.00002 10.1375 7.05002 10.2549 7.10002 10.3723L7.15002 10.4311C7.10002 10.4311 7.05002 10.4898 7.05002 10.6072C7.05002 10.6072 7.15002 10.6072 7.20002 10.6072C7.25002 10.6659 7.30002 10.7833 7.30002 10.7833C7.30002 10.8421 7.30002 10.8421 7.35002 10.9008C7.40002 10.9595 7.40002 10.9595 7.45002 10.9008C7.50002 10.9595 7.55002 11.0769 7.60002 11.0769C7.65002 11.1356 7.75002 11.1356 7.80002 11.1356C7.80002 11.1356 7.80002 11.1356 7.85002 11.1356H7.80002C7.75002 11.1356 7.75002 11.1943 7.75002 11.1943C7.75002 11.2531 7.80002 11.2531 7.80002 11.2531C7.80002 11.2531 7.85002 11.2531 7.90002 11.3118L7.85002 11.3705L7.95002 11.4292C7.95002 11.4879 7.95002 11.5466 7.95002 11.5466L7.90002 11.6053C7.90002 11.6641 7.90002 11.6641 7.95002 11.6641C8.20002 11.7228 8.45002 11.7815 8.80002 11.8402H7.05002V13.6603C6.90002 13.6016 6.60002 13.5429 6.30002 13.5429V12.5448H5.55002V13.6603C5.20002 13.7778 4.95002 13.9539 5.00002 14.13L5.20002 14.5998C5.20002 14.7172 5.35002 14.7759 5.60002 14.7759V14.3649C5.55002 14.3649 5.45002 14.3649 5.40002 14.3649C5.45002 14.3062 5.50002 14.3062 5.60002 14.2475V14.3649V15.3043C5.30002 15.4218 5.10002 15.5979 5.10002 15.6566L5.15002 16.1263C5.15002 16.185 5.20002 16.185 5.25002 16.2438C5.35002 16.3025 5.35002 16.4199 5.35002 16.4786C5.40002 16.4199 5.45002 16.3025 5.45002 16.2438C5.45002 16.1263 5.40002 16.0676 5.35002 16.0089C5.40002 15.9502 5.50002 15.8915 5.60002 15.8915V17.1245H6.35002V15.4805C6.60002 15.3043 6.70002 15.1869 6.70002 15.1282C6.70002 15.1282 6.65002 14.7172 6.65002 14.6585C6.60002 14.5998 6.50002 14.5998 6.35002 14.541V14.952V14.13C6.65002 14.13 6.95002 14.1888 7.10002 14.3062V14.952V16.8309C7.10002 16.8896 7.10002 16.9483 7.10002 17.007C7.10002 17.1245 7.15002 17.3006 7.20002 17.418C7.25002 17.4768 7.25002 17.5355 7.30002 17.6529C7.30002 17.7116 7.35002 17.7116 7.35002 17.7703C7.45002 17.8878 7.60002 18.0052 7.70002 18.1226C8.20002 18.4162 8.85002 18.5923 9.45002 18.5923C10.05 18.5923 10.7 18.4162 11.2 18.1226C11.45 17.9465 11.65 17.7116 11.75 17.3593C11.8 17.2419 11.8 17.0658 11.8 16.9483V15.0695V14.3649C11.95 14.3062 12.25 14.2475 12.55 14.2475V14.4823C12.4 14.4823 12.3 14.541 12.25 14.5998L12.2 15.0695C12.15 15.1282 12.3 15.2456 12.55 15.4218V17.0658H13.3V15.8328C13.4 15.8915 13.45 15.8915 13.55 15.9502C13.5 16.0089 13.45 16.1263 13.45 16.185C13.45 16.3025 13.5 16.3612 13.55 16.4199C13.5 16.3612 13.55 16.2438 13.65 16.185C13.7 16.1263 13.75 16.1263 13.75 16.0676L13.8 15.5979C13.8 15.5392 13.6 15.363 13.3 15.2456V14.1888C13.35 14.2475 13.45 14.2475 13.5 14.3062C13.45 14.3062 13.4 14.3062 13.3 14.3062V14.7172C13.9 14.7759 14 14.7172 14.05 14.6585ZM12 10.1375C12 10.1375 12 10.0788 12.05 10.0788C12.05 10.0788 12.05 10.0788 12 10.1375ZM11.05 9.31548C11.15 9.31548 11.2 9.31548 11.3 9.31548C11.65 9.31548 11.95 9.49163 12 9.66777C12 9.72648 12.05 9.7852 12.05 9.84391C12.05 9.90263 12.05 10.0201 12 10.0788C11.95 10.0201 11.85 9.96134 11.75 9.90262C11.5 9.7852 11.35 9.7852 11.2 9.7852C11.15 9.7852 11.1 9.7852 11.1 9.7852V9.72648V9.66777C11.15 9.66777 11.15 9.66777 11.15 9.60905C11.15 9.60905 11.15 9.55034 11.1 9.55034V9.49163C11.1 9.49163 11.15 9.49163 11.15 9.43291C11.15 9.3742 11.15 9.3742 11.1 9.3742C11.05 9.3742 11.05 9.31548 11.05 9.31548ZM8.40002 9.3742C8.35002 9.3742 8.35002 9.3742 8.35002 9.43291C8.35002 9.43291 8.35002 9.49163 8.40002 9.49163V9.55034C8.40002 9.55034 8.35002 9.55034 8.35002 9.60905C8.35002 9.66777 8.35002 9.66777 8.40002 9.66777V9.72648C8.40002 9.72648 8.40002 9.72648 8.40002 9.7852C8.35002 9.7852 8.30002 9.7852 8.25002 9.7852C8.10002 9.7852 7.95002 9.84391 7.75002 9.90262C7.65002 9.96134 7.60002 10.0201 7.50002 10.0788C7.45002 10.0201 7.45002 9.96134 7.45002 9.84391C7.45002 9.7852 7.45002 9.72648 7.50002 9.66777C7.60002 9.43291 7.85002 9.31548 8.20002 9.31548C8.25002 9.31548 8.35002 9.31548 8.40002 9.31548C8.40002 9.31548 8.40002 9.31548 8.45002 9.31548C8.40002 9.31548 8.40002 9.3742 8.40002 9.3742ZM6.80002 14.7172L6.75002 14.7759C6.80002 14.7759 6.80002 14.7172 6.80002 14.7172ZM10.35 8.9632C10.65 8.9632 10.9 9.13934 10.95 9.43291V9.49163C10.95 9.60905 10.9 9.66777 10.85 9.72648C10.7 9.72648 10.6 9.66777 10.5 9.60905C10.35 9.55034 10.15 9.49163 9.95002 9.49163C9.95002 9.43291 9.95002 9.3742 9.95002 9.31548C9.95002 9.31548 9.95002 9.31548 9.95002 9.25677C9.95002 9.19805 9.95002 9.13934 9.95002 9.13934C10 9.02191 10.15 8.9632 10.35 8.9632ZM8.95002 9.60905C8.85002 9.66777 8.75002 9.66777 8.60002 9.72648C8.55002 9.66777 8.50002 9.55034 8.50002 9.49163V9.43291C8.50002 9.19805 8.75002 8.9632 9.10002 8.9632C9.25002 8.9632 9.40002 9.02191 9.50002 9.08063C9.50002 9.13934 9.50002 9.13934 9.50002 9.19805C9.50002 9.19805 9.50002 9.19805 9.50002 9.25677C9.50002 9.31548 9.50002 9.3742 9.50002 9.43291C9.30002 9.49163 9.10002 9.55034 8.95002 9.60905ZM9.75002 11.3705C9.60002 11.3705 9.50002 11.3705 9.35002 11.3705C9.45002 11.3705 9.60002 11.3705 9.75002 11.3705C9.85002 11.3705 9.90002 11.3705 10 11.3705C9.90002 11.3705 9.80002 11.3705 9.75002 11.3705Z" fill="#BC091C"/>
<path d="M7.3 10.4315C7.32761 10.4315 7.35 10.4051 7.35 10.3725C7.35 10.34 7.32761 10.3136 7.3 10.3136C7.27239 10.3136 7.25 10.34 7.25 10.3725C7.25 10.4051 7.27239 10.4315 7.3 10.4315Z" fill="#BC091C"/>
<path d="M7.24995 10.314C7.27757 10.314 7.29995 10.2876 7.29995 10.2551C7.29995 10.2226 7.27757 10.1962 7.24995 10.1962C7.22234 10.1962 7.19995 10.2226 7.19995 10.2551C7.19995 10.2876 7.22234 10.314 7.24995 10.314Z" fill="#BC091C"/>
<path d="M7.1999 10.1379C7.22752 10.1379 7.2499 10.1115 7.2499 10.079C7.2499 10.0464 7.22752 10.0201 7.1999 10.0201C7.17229 10.0201 7.1499 10.0464 7.1499 10.079C7.1499 10.1115 7.17229 10.1379 7.1999 10.1379Z" fill="#BC091C"/>
<path d="M7.1999 9.96173C7.22752 9.96173 7.2499 9.93535 7.2499 9.90282C7.2499 9.87028 7.22752 9.8439 7.1999 9.8439C7.17229 9.8439 7.1499 9.87028 7.1499 9.90282C7.1499 9.93535 7.17229 9.96173 7.1999 9.96173Z" fill="#BC091C"/>
<path d="M7.1999 9.72687C7.22752 9.72687 7.2499 9.70049 7.2499 9.66795C7.2499 9.63542 7.22752 9.60904 7.1999 9.60904C7.17229 9.60904 7.1499 9.63542 7.1499 9.66795C7.1499 9.70049 7.17229 9.72687 7.1999 9.72687Z" fill="#BC091C"/>
<path d="M7.3 9.60944C7.32761 9.60944 7.35 9.58306 7.35 9.55052C7.35 9.51798 7.32761 9.49161 7.3 9.49161C7.27239 9.49161 7.25 9.51798 7.25 9.55052C7.25 9.58306 7.27239 9.60944 7.3 9.60944Z" fill="#BC091C"/>
<path d="M7.4001 9.43329C7.42771 9.43329 7.4501 9.40691 7.4501 9.37437C7.4501 9.34184 7.42771 9.31546 7.4001 9.31546C7.37248 9.31546 7.3501 9.34184 7.3501 9.37437C7.3501 9.40691 7.37248 9.43329 7.4001 9.43329Z" fill="#BC091C"/>
<path d="M7.55 9.31589C7.57761 9.31589 7.6 9.28951 7.6 9.25697C7.6 9.22444 7.57761 9.19806 7.55 9.19806C7.52239 9.19806 7.5 9.22444 7.5 9.25697C7.5 9.28951 7.52239 9.31589 7.55 9.31589Z" fill="#BC091C"/>
<path d="M7.6501 9.25717C7.67771 9.25717 7.7001 9.23079 7.7001 9.19826C7.7001 9.16572 7.67771 9.13934 7.6501 9.13934C7.62248 9.13934 7.6001 9.16572 7.6001 9.19826C7.6001 9.23079 7.62248 9.25717 7.6501 9.25717Z" fill="#BC091C"/>
<path d="M7.85005 9.19846C7.87766 9.19846 7.90005 9.17208 7.90005 9.13954C7.90005 9.107 7.87766 9.08063 7.85005 9.08063C7.82243 9.08063 7.80005 9.107 7.80005 9.13954C7.80005 9.17208 7.82243 9.19846 7.85005 9.19846Z" fill="#BC091C"/>
<path d="M7.99995 9.13974C8.02757 9.13974 8.04995 9.11336 8.04995 9.08083C8.04995 9.04829 8.02757 9.02191 7.99995 9.02191C7.97234 9.02191 7.94995 9.04829 7.94995 9.08083C7.94995 9.11336 7.97234 9.13974 7.99995 9.13974Z" fill="#BC091C"/>
<path d="M8.1501 9.13974C8.17771 9.13974 8.2001 9.11336 8.2001 9.08083C8.2001 9.04829 8.17771 9.02191 8.1501 9.02191C8.12248 9.02191 8.1001 9.04829 8.1001 9.08083C8.1001 9.11336 8.12248 9.13974 8.1501 9.13974Z" fill="#BC091C"/>
<path d="M8.3 9.13974C8.32761 9.13974 8.35 9.11336 8.35 9.08083C8.35 9.04829 8.32761 9.02191 8.3 9.02191C8.27239 9.02191 8.25 9.04829 8.25 9.08083C8.25 9.11336 8.27239 9.13974 8.3 9.13974Z" fill="#BC091C"/>
<path d="M8.49995 9.13974C8.52757 9.13974 8.54995 9.11336 8.54995 9.08083C8.54995 9.04829 8.52757 9.02191 8.49995 9.02191C8.47234 9.02191 8.44995 9.04829 8.44995 9.08083C8.44995 9.11336 8.47234 9.13974 8.49995 9.13974Z" fill="#BC091C"/>
<path d="M8.60005 9.02231C8.62766 9.02231 8.65005 8.99593 8.65005 8.96339C8.65005 8.93086 8.62766 8.90448 8.60005 8.90448C8.57243 8.90448 8.55005 8.93086 8.55005 8.96339C8.55005 8.99593 8.57243 9.02231 8.60005 9.02231Z" fill="#BC091C"/>
<path d="M8.74995 8.96359C8.77757 8.96359 8.79995 8.93722 8.79995 8.90468C8.79995 8.87214 8.77757 8.84576 8.74995 8.84576C8.72234 8.84576 8.69995 8.87214 8.69995 8.90468C8.69995 8.93722 8.72234 8.96359 8.74995 8.96359Z" fill="#BC091C"/>
<path d="M8.9001 8.90488C8.92771 8.90488 8.9501 8.8785 8.9501 8.84596C8.9501 8.81342 8.92771 8.78705 8.9001 8.78705C8.87248 8.78705 8.8501 8.81342 8.8501 8.84596C8.8501 8.8785 8.87248 8.90488 8.9001 8.90488Z" fill="#BC091C"/>
<path d="M9.05 8.84616C9.07761 8.84616 9.1 8.81978 9.1 8.78725C9.1 8.75471 9.07761 8.72833 9.05 8.72833C9.02239 8.72833 9 8.75471 9 8.78725C9 8.81978 9.02239 8.84616 9.05 8.84616Z" fill="#BC091C"/>
<path d="M9.1999 8.84616C9.22752 8.84616 9.2499 8.81978 9.2499 8.78725C9.2499 8.75471 9.22752 8.72833 9.1999 8.72833C9.17229 8.72833 9.1499 8.75471 9.1499 8.78725C9.1499 8.81978 9.17229 8.84616 9.1999 8.84616Z" fill="#BC091C"/>
<path d="M9.4001 8.90488C9.42771 8.90488 9.4501 8.8785 9.4501 8.84596C9.4501 8.81342 9.42771 8.78705 9.4001 8.78705C9.37248 8.78705 9.3501 8.81342 9.3501 8.84596C9.3501 8.8785 9.37248 8.90488 9.4001 8.90488Z" fill="#BC091C"/>
<path d="M10.05 8.90488C10.0776 8.90488 10.1 8.8785 10.1 8.84596C10.1 8.81342 10.0776 8.78705 10.05 8.78705C10.0224 8.78705 10 8.81342 10 8.84596C10 8.8785 10.0224 8.90488 10.05 8.90488Z" fill="#BC091C"/>
<path d="M10.1999 8.84616C10.2275 8.84616 10.2499 8.81978 10.2499 8.78725C10.2499 8.75471 10.2275 8.72833 10.1999 8.72833C10.1723 8.72833 10.1499 8.75471 10.1499 8.78725C10.1499 8.81978 10.1723 8.84616 10.1999 8.84616Z" fill="#BC091C"/>
<path d="M10.4001 8.84616C10.4277 8.84616 10.4501 8.81978 10.4501 8.78725C10.4501 8.75471 10.4277 8.72833 10.4001 8.72833C10.3725 8.72833 10.3501 8.75471 10.3501 8.78725C10.3501 8.81978 10.3725 8.84616 10.4001 8.84616Z" fill="#BC091C"/>
<path d="M10.55 8.90488C10.5776 8.90488 10.6 8.8785 10.6 8.84596C10.6 8.81342 10.5776 8.78705 10.55 8.78705C10.5224 8.78705 10.5 8.81342 10.5 8.84596C10.5 8.8785 10.5224 8.90488 10.55 8.90488Z" fill="#BC091C"/>
<path d="M10.6999 8.96359C10.7275 8.96359 10.7499 8.93722 10.7499 8.90468C10.7499 8.87214 10.7275 8.84576 10.6999 8.84576C10.6723 8.84576 10.6499 8.87214 10.6499 8.90468C10.6499 8.93722 10.6723 8.96359 10.6999 8.96359Z" fill="#BC091C"/>
<path d="M10.85 9.02231C10.8777 9.02231 10.9 8.99593 10.9 8.96339C10.9 8.93086 10.8777 8.90448 10.85 8.90448C10.8224 8.90448 10.8 8.93086 10.8 8.96339C10.8 8.99593 10.8224 9.02231 10.85 9.02231Z" fill="#BC091C"/>
<path d="M10.9499 9.13974C10.9775 9.13974 10.9999 9.11336 10.9999 9.08083C10.9999 9.04829 10.9775 9.02191 10.9499 9.02191C10.9223 9.02191 10.8999 9.04829 10.8999 9.08083C10.8999 9.11336 10.9223 9.13974 10.9499 9.13974Z" fill="#BC091C"/>
<path d="M11.1501 9.13974C11.1777 9.13974 11.2001 9.11336 11.2001 9.08083C11.2001 9.04829 11.1777 9.02191 11.1501 9.02191C11.1225 9.02191 11.1001 9.04829 11.1001 9.08083C11.1001 9.11336 11.1225 9.13974 11.1501 9.13974Z" fill="#BC091C"/>
<path d="M11.3 9.13974C11.3276 9.13974 11.35 9.11336 11.35 9.08083C11.35 9.04829 11.3276 9.02191 11.3 9.02191C11.2724 9.02191 11.25 9.04829 11.25 9.08083C11.25 9.11336 11.2724 9.13974 11.3 9.13974Z" fill="#BC091C"/>
<path d="M11.4499 9.13974C11.4775 9.13974 11.4999 9.11336 11.4999 9.08083C11.4999 9.04829 11.4775 9.02191 11.4499 9.02191C11.4223 9.02191 11.3999 9.04829 11.3999 9.08083C11.3999 9.11336 11.4223 9.13974 11.4499 9.13974Z" fill="#BC091C"/>
<path d="M11.6 9.19846C11.6277 9.19846 11.65 9.17208 11.65 9.13954C11.65 9.107 11.6277 9.08063 11.6 9.08063C11.5724 9.08063 11.55 9.107 11.55 9.13954C11.55 9.17208 11.5724 9.19846 11.6 9.19846Z" fill="#BC091C"/>
<path d="M11.75 9.25717C11.7776 9.25717 11.8 9.23079 11.8 9.19826C11.8 9.16572 11.7776 9.13934 11.75 9.13934C11.7223 9.13934 11.7 9.16572 11.7 9.19826C11.7 9.23079 11.7223 9.25717 11.75 9.25717Z" fill="#BC091C"/>
<path d="M11.9001 9.31589C11.9277 9.31589 11.9501 9.28951 11.9501 9.25697C11.9501 9.22444 11.9277 9.19806 11.9001 9.19806C11.8725 9.19806 11.8501 9.22444 11.8501 9.25697C11.8501 9.28951 11.8725 9.31589 11.9001 9.31589Z" fill="#BC091C"/>
<path d="M12.05 9.43329C12.0776 9.43329 12.1 9.40691 12.1 9.37437C12.1 9.34184 12.0776 9.31546 12.05 9.31546C12.0224 9.31546 12 9.34184 12 9.37437C12 9.40691 12.0224 9.43329 12.05 9.43329Z" fill="#BC091C"/>
<path d="M12.1501 9.60944C12.1777 9.60944 12.2001 9.58306 12.2001 9.55052C12.2001 9.51798 12.1777 9.49161 12.1501 9.49161C12.1225 9.49161 12.1001 9.51798 12.1001 9.55052C12.1001 9.58306 12.1225 9.60944 12.1501 9.60944Z" fill="#BC091C"/>
<path d="M12.25 9.72687C12.2776 9.72687 12.3 9.70049 12.3 9.66795C12.3 9.63542 12.2776 9.60904 12.25 9.60904C12.2223 9.60904 12.2 9.63542 12.2 9.66795C12.2 9.70049 12.2223 9.72687 12.25 9.72687Z" fill="#BC091C"/>
<path d="M12.25 9.96173C12.2776 9.96173 12.3 9.93535 12.3 9.90282C12.3 9.87028 12.2776 9.8439 12.25 9.8439C12.2223 9.8439 12.2 9.87028 12.2 9.90282C12.2 9.93535 12.2223 9.96173 12.25 9.96173Z" fill="#BC091C"/>
<path d="M12.25 10.1379C12.2776 10.1379 12.3 10.1115 12.3 10.079C12.3 10.0464 12.2776 10.0201 12.25 10.0201C12.2223 10.0201 12.2 10.0464 12.2 10.079C12.2 10.1115 12.2223 10.1379 12.25 10.1379Z" fill="#BC091C"/>
<path d="M12.1999 10.314C12.2275 10.314 12.2499 10.2876 12.2499 10.2551C12.2499 10.2226 12.2275 10.1962 12.1999 10.1962C12.1723 10.1962 12.1499 10.2226 12.1499 10.2551C12.1499 10.2876 12.1723 10.314 12.1999 10.314Z" fill="#BC091C"/>
<path d="M12.1501 10.4315C12.1777 10.4315 12.2001 10.4051 12.2001 10.3725C12.2001 10.34 12.1777 10.3136 12.1501 10.3136C12.1225 10.3136 12.1001 10.34 12.1001 10.3725C12.1001 10.4051 12.1225 10.4315 12.1501 10.4315Z" fill="#BC091C"/>
</svg>
