<svg width="18" height="22" viewBox="0 0 18 22" fill="none" xmlns="http://www.w3.org/2000/svg">
<path d="M8.9694 1.91016C5.6594 1.91016 2.9694 4.60016 2.9694 7.91016V10.8002C2.9694 11.4102 2.7094 12.3402 2.3994 12.8602L1.2494 14.7702C0.539398 15.9502 1.0294 17.2602 2.3294 17.7002C6.6394 19.1402 11.2894 19.1402 15.5994 17.7002C16.8094 17.3002 17.3394 15.8702 16.6794 14.7702L15.5294 12.8602C15.2294 12.3402 14.9694 11.4102 14.9694 10.8002V7.91016C14.9694 4.61016 12.2694 1.91016 8.9694 1.91016Z" stroke="#787774" stroke-width="1.5" stroke-miterlimit="10" stroke-linecap="round"/>
<path d="M10.8187 2.19945C9.60945 1.85504 8.32803 1.85504 7.11874 2.19945C7.40874 1.45945 8.12874 0.939453 8.96874 0.939453C9.80874 0.939453 10.5287 1.45945 10.8187 2.19945Z" stroke="#787774" stroke-width="1.5" stroke-miterlimit="10" stroke-linecap="round" stroke-linejoin="round"/>
<path d="M11.9703 18.0605C11.9703 19.7105 10.6203 21.0605 8.97031 21.0605C8.15031 21.0605 7.39031 20.7205 6.85031 20.1805C6.28846 19.6179 5.9721 18.8557 5.97031 18.0605" stroke="#787774" stroke-width="1.5" stroke-miterlimit="10"/>
</svg>
