<svg width="13" height="7" viewBox="0 0 13 7" fill="none" xmlns="http://www.w3.org/2000/svg">
<path d="M6.70002 7C6.54935 7 6.40358 6.97328 6.2627 6.91985C6.12106 6.86641 6.00316 6.79517 5.90899 6.70611L0.710786 1.79008C0.503611 1.59415 0.400024 1.34478 0.400024 1.04198C0.400024 0.739185 0.503611 0.489821 0.710786 0.293893C0.917961 0.097964 1.18164 0 1.50182 0C1.822 0 2.08567 0.097964 2.29285 0.293893L6.70002 4.46183L11.1072 0.293893C11.3144 0.097964 11.5781 0 11.8982 0C12.2184 0 12.4821 0.097964 12.6893 0.293893C12.8964 0.489821 13 0.739185 13 1.04198C13 1.34478 12.8964 1.59415 12.6893 1.79008L7.49106 6.70611C7.37805 6.81298 7.25563 6.8885 7.12379 6.93267C6.99195 6.97756 6.8507 7 6.70002 7Z" fill="#787774"/>
</svg>
