<svg width="19" height="19" viewBox="0 0 19 19" fill="none" xmlns="http://www.w3.org/2000/svg">
<path d="M9.62031 1.87022C9.2765 2.21404 9.08334 2.68036 9.08334 3.16659V4.08325C9.08334 4.32637 8.98677 4.55952 8.81486 4.73143C8.64295 4.90334 8.40979 4.99992 8.16668 4.99992H5.41668C5.17356 4.99992 4.9404 5.0965 4.7685 5.2684C4.59659 5.44031 4.50001 5.67347 4.50001 5.91659V8.66659C4.50001 8.9097 4.40343 9.14286 4.23152 9.31477C4.05962 9.48668 3.82646 9.58325 3.58334 9.58325H2.66668C2.18045 9.58325 1.71413 9.77641 1.37031 10.1202C1.0265 10.464 0.833344 10.9304 0.833344 11.4166C0.833344 11.9028 1.0265 12.3691 1.37031 12.7129C1.71413 13.0568 2.18045 13.2499 2.66668 13.2499H3.58334C3.82646 13.2499 4.05962 13.3465 4.23152 13.5184C4.40343 13.6903 4.50001 13.9235 4.50001 14.1666V16.9166C4.50001 17.1597 4.59659 17.3929 4.7685 17.5648C4.9404 17.7367 5.17356 17.8333 5.41668 17.8333H8.16668C8.40979 17.8333 8.64295 17.7367 8.81486 17.5648C8.98677 17.3929 9.08334 17.1597 9.08334 16.9166V15.9999C9.08334 15.5137 9.2765 15.0474 9.62031 14.7036C9.96413 14.3597 10.4304 14.1666 10.9167 14.1666C11.4029 14.1666 11.8692 14.3597 12.213 14.7036C12.5569 15.0474 12.75 15.5137 12.75 15.9999V16.9166C12.75 17.1597 12.8466 17.3929 13.0185 17.5648C13.1904 17.7367 13.4236 17.8333 13.6667 17.8333H16.4167C16.6598 17.8333 16.893 17.7367 17.0649 17.5648C17.2368 17.3929 17.3333 17.1597 17.3333 16.9166V14.1666C17.3333 13.9235 17.2368 13.6903 17.0649 13.5184C16.893 13.3465 16.6598 13.2499 16.4167 13.2499H15.5C15.0138 13.2499 14.5475 13.0568 14.2036 12.7129C13.8598 12.3691 13.6667 11.9028 13.6667 11.4166C13.6667 10.9304 13.8598 10.464 14.2036 10.1202C14.5475 9.77641 15.0138 9.58325 15.5 9.58325H16.4167C16.6598 9.58325 16.893 9.48668 17.0649 9.31477C17.2368 9.14286 17.3333 8.9097 17.3333 8.66659V5.91659C17.3333 5.67347 17.2368 5.44031 17.0649 5.2684C16.893 5.0965 16.6598 4.99992 16.4167 4.99992H13.6667C13.4236 4.99992 13.1904 4.90334 13.0185 4.73143C12.8466 4.55952 12.75 4.32637 12.75 4.08325V3.16659C12.75 2.68036 12.5569 2.21404 12.213 1.87022C11.8692 1.52641 11.4029 1.33325 10.9167 1.33325C10.4304 1.33325 9.96413 1.52641 9.62031 1.87022Z" stroke="#787774" stroke-width="1.5" stroke-linecap="round" stroke-linejoin="round"/>
</svg>
