<svg width="22" height="23" viewBox="0 0 22 23" fill="none" xmlns="http://www.w3.org/2000/svg">
<path d="M13.1542 2.33325H8.84584C7.89251 2.33325 7.11334 3.10325 7.11334 4.05659V4.91825C7.11334 5.87159 7.88334 6.64159 8.83668 6.64159H13.1542C14.1075 6.64159 14.8775 5.87159 14.8775 4.91825V4.05659C14.8867 3.10325 14.1075 2.33325 13.1542 2.33325Z" fill="#343434"/>
<path d="M15.8033 4.91844C15.8033 6.37594 14.6116 7.5676 13.1541 7.5676H8.84581C7.38831 7.5676 6.19664 6.37594 6.19664 4.91844C6.19664 4.4051 5.64664 4.08427 5.18831 4.3226C3.89581 5.0101 3.01581 6.37594 3.01581 7.94344V16.5693C3.01581 18.8243 4.85831 20.6668 7.11331 20.6668H14.8866C17.1416 20.6668 18.9841 18.8243 18.9841 16.5693V7.94344C18.9841 6.37594 18.1041 5.0101 16.8116 4.3226C16.3533 4.08427 15.8033 4.4051 15.8033 4.91844ZM11.3483 16.0376H7.33331C6.95747 16.0376 6.64581 15.7259 6.64581 15.3501C6.64581 14.9743 6.95747 14.6626 7.33331 14.6626H11.3483C11.7241 14.6626 12.0358 14.9743 12.0358 15.3501C12.0358 15.7259 11.7241 16.0376 11.3483 16.0376ZM13.75 12.3709H7.33331C6.95747 12.3709 6.64581 12.0593 6.64581 11.6834C6.64581 11.3076 6.95747 10.9959 7.33331 10.9959H13.75C14.1258 10.9959 14.4375 11.3076 14.4375 11.6834C14.4375 12.0593 14.1258 12.3709 13.75 12.3709Z" fill="#343434"/>
</svg>
