<svg width="95" height="44" viewBox="0 0 95 44" fill="none" xmlns="http://www.w3.org/2000/svg">
<g clip-path="url(#clip0_2584_786)">
<path d="M94.0664 7.11365C93.6233 3.6717 92.3598 2.71473 92.3598 2.71473C88.4812 -0.830395 83.6408 -0.0663851 79.2923 0.443029C71.6151 0.463799 63.9688 1.22088 56.3091 1.62712C40.232 1.68921 24.0174 0.670378 8.02014 3.18283C6.51734 3.95399 -1.55899 3.33447 0.267294 7.55428C0.745976 9.30965 2.49264 11.2578 2.43924 12.8686C2.67859 13.1509 3.01114 12.5037 3.15298 12.9099C3.64954 14.0045 4.46053 13.4881 5.12564 14.1353C4.19902 15.8632 4.86389 17.3019 5.49776 18.8094C4.38091 19.2018 2.94916 19.016 2.30646 20.3171C2.23995 21.2602 1.88094 21.0811 1.48641 21.04C1.1982 21.0123 0.617485 21.1157 0.714986 21.4116C1.04754 22.4235 -0.379929 23.0087 0.515455 24C-0.100538 25.074 0.941216 26.0033 0.799375 27.1666C0.781496 27.4007 0.878997 27.6003 1.03419 27.6555C1.72122 27.9514 0.719515 28.5296 0.825836 29.156C7.87377 33.4379 15.5201 30.4779 22.7408 32.4466C24.6157 31.0697 23.2062 32.9354 23.9554 32.6462C24.5404 32.309 24.9659 33.7064 25.6265 32.9147C25.7285 32.6875 25.5733 32.1507 25.9366 32.2538C26.1274 32.309 26.2959 32.2951 26.3224 31.9785C26.3624 31.5034 26.0122 31.7996 25.919 31.5517C26.9252 30.2988 26.6771 33.2796 27.6211 33.1556C27.5768 32.7909 27.3021 32.2677 27.865 32.3365C28.4235 31.8132 28.4411 31.3797 28.9377 32.5569C28.9553 32.8115 29.044 32.9904 29.1859 33.1143C30.7373 31.834 32.2799 33.5688 33.9067 32.9904C34.9041 32.3572 35.8614 33.3347 36.872 33.0938C37.2267 32.901 37.5857 32.5569 37.9271 33.1351C42.107 33.259 46.5617 32.7427 50.5247 33.1556C61.1141 32.3847 72.4306 33.4723 83.5964 32.4535C86.2294 32.0611 88.9644 31.5034 91.5309 31.0561C91.5309 31.0561 93.6099 29.8307 93.6099 24.3236C93.6099 18.8166 94.0531 19.5049 94.1196 15.1198C94.1861 10.7347 94.4965 10.5556 94.0531 7.11365H94.0664Z" fill="#0B57FF"/>
<path d="M17.6858 27.1142C17.285 27.1142 16.9203 27.0297 16.5916 26.8607C16.2589 26.6917 16.0926 26.4477 16.0926 26.1285V10.4702L15.0404 11.7093C14.9202 11.8032 14.806 11.8727 14.6977 11.9177C14.5855 11.9665 14.4793 11.9909 14.3791 11.9909C14.0584 11.9909 13.7979 11.8633 13.5975 11.6079C13.3971 11.3563 13.2969 11.0804 13.2969 10.78C13.2969 10.5547 13.357 10.3387 13.4772 10.1322C13.5975 9.92569 13.7478 9.75672 13.9282 9.62529L17.0545 6.80905C17.1547 6.71517 17.271 6.64007 17.4033 6.58375C17.5315 6.52742 17.6858 6.49926 17.8662 6.49926C18.2069 6.49926 18.5275 6.58375 18.8282 6.75272C19.1288 6.9217 19.2791 7.16577 19.2791 7.48495V26.1285C19.2791 26.4477 19.1127 26.6917 18.7801 26.8607C18.4514 27.0297 18.0866 27.1142 17.6858 27.1142ZM30.6122 27.1142H24.5098C24.0889 27.1142 23.7482 27.0203 23.4877 26.8325C23.2271 26.6448 23.0969 26.4195 23.0969 26.1566V7.51311C23.0969 7.19394 23.2472 6.94986 23.5478 6.78089C23.8484 6.61191 24.1691 6.52743 24.5098 6.52743H29.9809C31.0631 6.52743 32.0652 6.65885 32.9871 6.9217C33.9089 7.18455 34.6504 7.66894 35.2116 8.37488C35.7727 9.07706 36.0533 10.0853 36.0533 11.3995C36.0533 12.5823 35.8268 13.5586 35.3739 14.3284C34.925 15.0982 34.2997 15.6427 33.4981 15.9618C34.1194 16.1871 34.6605 16.4819 35.1214 16.8461C35.5823 17.2141 35.9431 17.7023 36.2036 18.3106C36.4641 18.9227 36.5944 19.7074 36.5944 20.665V21.2001C36.5944 22.6457 36.3339 23.8004 35.8128 24.664C35.2918 25.5277 34.5803 26.151 33.6785 26.534C32.7766 26.9208 31.7545 27.1142 30.6122 27.1142ZM26.2533 17.1447V24.4669H30.011C31.0932 24.4669 31.9289 24.189 32.5181 23.6333C33.1113 23.0813 33.4079 22.1951 33.4079 20.9748V20.5242C33.4079 19.285 33.1113 18.412 32.5181 17.905C31.9289 17.3981 31.0932 17.1447 30.011 17.1447H26.2533ZM26.2533 9.17469V14.779H29.8607C30.8828 14.779 31.6383 14.5349 32.1273 14.0468C32.6203 13.5586 32.8668 12.8358 32.8668 11.8783C32.8668 11.2399 32.7405 10.7236 32.488 10.3294C32.2395 9.93508 31.8848 9.64407 31.4239 9.45632C30.9629 9.26857 30.4218 9.17469 29.8006 9.17469H26.2533ZM42.4864 27.3395C41.3842 27.3395 40.4423 27.0334 39.6607 26.4214C38.8791 25.8131 38.4883 24.8799 38.4883 23.622C38.4883 22.5519 38.7889 21.7258 39.3901 21.1437C39.9913 20.5617 40.817 20.158 41.8672 19.9327C42.9213 19.7074 44.1398 19.5948 45.5226 19.5948H46.8453V19.0879C46.8453 18.5997 46.7491 18.1247 46.5567 17.6629C46.3684 17.2047 46.0577 16.8217 45.6248 16.5138C45.196 16.2022 44.6108 16.0463 43.8693 16.0463C43.1277 16.0463 42.5566 16.112 42.1558 16.2435C41.7549 16.3749 41.4343 16.5157 41.1938 16.6659C40.9533 16.8161 40.7329 16.8912 40.5325 16.8912C40.1717 16.8912 39.8911 16.726 39.6907 16.3955C39.4903 16.0689 39.3901 15.7365 39.3901 15.3986C39.3901 15.0606 39.6246 14.7546 40.0936 14.4805C40.5665 14.2101 41.1537 13.9942 41.8551 13.8328C42.5566 13.6751 43.248 13.5962 43.9294 13.5962C45.4124 13.5962 46.5948 13.8534 47.4766 14.3678C48.3584 14.886 48.9997 15.5582 49.4005 16.3843C49.8014 17.2104 50.0018 18.1022 50.0018 19.0597V26.1285C50.0018 26.3913 49.8555 26.6204 49.5629 26.8156C49.2743 27.0147 48.9095 27.1142 48.4686 27.1142C48.0678 27.1142 47.7271 27.0147 47.4466 26.8156C47.166 26.6204 47.0257 26.3913 47.0257 26.1285V25.1428C46.5046 25.706 45.8733 26.213 45.1318 26.6636C44.3903 27.1142 43.5085 27.3395 42.4864 27.3395ZM43.6288 25.0865C44.1298 25.0865 44.6248 24.9457 45.1138 24.664C45.6068 24.3824 46.0176 24.0257 46.3463 23.5939C46.679 23.162 46.8453 22.7208 46.8453 22.2702V21.2282H46.0938C45.3322 21.2282 44.6108 21.2695 43.9294 21.3521C43.248 21.4385 42.7009 21.6281 42.288 21.921C41.8792 22.2101 41.6748 22.6551 41.6748 23.2559C41.6748 23.8943 41.8592 24.358 42.2279 24.6471C42.6007 24.94 43.0676 25.0865 43.6288 25.0865ZM54.7455 27.1142C54.2845 27.1142 53.9097 27.0109 53.6212 26.8044C53.3286 26.5979 53.1823 26.3726 53.1823 26.1285V14.7227C53.1823 14.4411 53.3286 14.2101 53.6212 14.0299C53.9097 13.8534 54.2845 13.7652 54.7455 13.7652C55.1262 13.7652 55.4569 13.8534 55.7375 14.0299C56.0181 14.2101 56.1583 14.4411 56.1583 14.7227V15.7365C56.4589 15.1921 56.956 14.6983 57.6494 14.2552C58.3388 13.8159 59.1845 13.5962 60.1866 13.5962C61.1285 13.5962 61.9962 13.844 62.7899 14.3397C63.5795 14.8391 64.2148 15.5056 64.6958 16.3392C65.1767 17.1766 65.4172 18.1116 65.4172 19.1442V26.1285C65.4172 26.4477 65.2529 26.6917 64.9242 26.8607C64.5915 27.0297 64.2248 27.1142 63.824 27.1142C63.4632 27.1142 63.1125 27.0297 62.7718 26.8607C62.4311 26.6917 62.2608 26.4477 62.2608 26.1285V19.1442C62.2608 18.656 62.1265 18.1867 61.858 17.7361C61.5854 17.2855 61.2187 16.9194 60.7577 16.6377C60.2968 16.3561 59.7857 16.2153 59.2246 16.2153C58.7436 16.2153 58.2827 16.3317 57.8418 16.5645C57.4009 16.8011 57.0401 17.1353 56.7596 17.5671C56.479 17.9989 56.3387 18.5246 56.3387 19.1442V26.1285C56.3387 26.3726 56.1844 26.5979 55.8758 26.8044C55.5631 27.0109 55.1864 27.1142 54.7455 27.1142ZM70.1369 27.1142C69.696 27.1142 69.3312 27.0109 69.0426 26.8044C68.75 26.5979 68.6037 26.3726 68.6037 26.1285V6.78089C68.6037 6.49926 68.75 6.26833 69.0426 6.08809C69.3312 5.91161 69.696 5.82336 70.1369 5.82336C70.5978 5.82336 70.9846 5.91161 71.2972 6.08809C71.6059 6.26833 71.7602 6.49926 71.7602 6.78089V19.3132L78.043 13.906C78.2234 13.737 78.4438 13.6525 78.7043 13.6525C78.9448 13.6525 79.1813 13.722 79.4138 13.8609C79.6423 14.0036 79.8367 14.182 79.997 14.396C80.1573 14.6138 80.2375 14.8353 80.2375 15.0606C80.2375 15.1733 80.2174 15.2803 80.1773 15.3817C80.1373 15.4868 80.0671 15.5863 79.9669 15.6802L76.089 18.9189L80.8086 25.2836C80.9289 25.4714 80.989 25.6403 80.989 25.7905C80.989 26.0346 80.8948 26.2693 80.7064 26.4946C80.514 26.7199 80.2836 26.9076 80.015 27.0578C79.7425 27.208 79.4759 27.2831 79.2154 27.2831C78.8546 27.2831 78.5741 27.1423 78.3737 26.8607L73.9546 20.7495L71.7602 22.6082V26.1285C71.7602 26.3726 71.6059 26.5979 71.2972 26.8044C70.9846 27.0109 70.5978 27.1142 70.1369 27.1142Z" fill="white"/>
<path d="M0 42.3302V36.5289H1.63264V39.1216H3.13969V40.2622H1.63264V42.3302H0ZM2.74779 37.6874H1.89138V36.5289H4.38043V38.452H2.74779V37.6874ZM4.86462 42.3302V37.6874H6.50029V42.3302H4.86462ZM4.86462 37.1109V35.8772H6.50029V37.1109H4.86462ZM8.91974 42.3302H7.27197V37.6874H8.91974V42.3302ZM9.88813 42.3302V38.8459H9.18605V38.3391L9.73228 37.6874H10.6417L11.5238 38.7331V42.3302H9.88813ZM16.4626 42.3302H14.8677V38.8459H12.5436V38.2693L13.0354 37.6874H15.4836L16.4626 38.8459V42.3302ZM12.872 39.6283H14.609V40.4323H13.7662V41.2469H14.609V41.7572L14.1203 42.3302H12.872L12.2153 41.5656V40.4018L12.872 39.6283ZM18.8457 42.3302H17.1979V37.6874H18.8457V42.3302ZM19.8126 42.3302V38.8459H19.1105V38.3391L19.6582 37.6874H20.5661L21.4497 38.7331V42.3302H19.8126ZM23.8056 37.6874V42.3302H23.152L22.173 41.1717V38.8459L23.152 37.6874H23.8056ZM24.7892 38.8459H24.0644V37.6874H25.4428L26.4218 38.8459V39.5406H24.7892V38.8459ZM25.4428 42.3302H24.0644V41.2469H24.7892V40.665H26.4218V41.1717L25.4428 42.3302ZM27.0966 42.3302V37.6874H28.7338V42.3302H27.0966ZM27.0966 37.1109V35.8772H28.7338V37.1109H27.0966ZM33.6877 42.3302H32.0914V38.8459H29.7673V38.2693L30.259 37.6874H32.7087L33.6877 38.8459V42.3302ZM30.0956 39.6283H31.8327V40.4323H30.9899V41.2469H31.8327V41.7572L31.3454 42.3302H30.0956L29.4389 41.5656V40.4018L30.0956 39.6283ZM36.7866 41.1717V42.3302H35.3385L34.4216 41.2469V35.9166H36.0542V41.1717H36.7866ZM42.895 42.3302H42.2383V40.1583H40.1169L39.1349 38.9945V37.6874L40.1169 36.5289H40.6707V38.588H42.9252L43.8739 39.7519V41.1717L42.895 42.3302ZM42.2383 37.5746H40.9294V36.5289H42.8919L43.7408 37.5388V38.1547H42.2383V37.5746ZM39.1349 41.1717V40.5898H40.7675V41.281H41.9795V42.3302H39.958L39.1349 41.1717ZM47.2028 37.6874H48.8354V42.3302H47.2028V37.6874ZM46.2162 37.6874V41.1717H46.944V41.7483L46.4704 42.3302H45.5656L44.5836 41.1717V37.6874H46.2162ZM51.2352 43.8772H49.6025V37.6874H51.2352V43.8772ZM52.2142 41.2469V38.8459H51.4939V38.2604L51.9751 37.6874H52.8678L53.8513 38.8459V41.1717L52.8678 42.3302H51.4939V41.2469H52.2142ZM56.1861 37.6874V42.3302H55.5309L54.5534 41.1717V38.8459L55.5309 37.6874H56.1861ZM58.8083 40.4681H56.4448V39.6588H57.3042V38.8459H56.4448V37.6874H57.8293L58.8083 38.8459V40.4681ZM58.1501 42.3302H56.4448V41.2469H58.6388V41.7483L58.1501 42.3302ZM62.0917 39.9739V38.8459H61.3972V38.3391L61.9449 37.6874H62.9345L63.7289 38.7725V39.9739H62.0917ZM61.1354 42.3302H59.5028V37.6874H61.1354V42.3302ZM65.9229 42.3302H64.2857V37.6874H65.9229V42.3302ZM66.8459 42.3302V38.8459H66.1816V38.2998L66.6945 37.6874H67.958L68.483 38.3087V42.3302H66.8459ZM69.406 42.3302V38.8459H68.7403V38.3087L69.2426 37.6874H70.2413L71.0387 38.64V42.3302H69.406ZM75.9593 42.3302H74.363V38.8459H72.0388V38.2693L72.5306 37.6874H74.9803L75.9593 38.8459V42.3302ZM72.3687 39.6283H74.1042V40.4323H73.2614V41.2469H74.1042V41.7572L73.617 42.3302H72.3687L71.7105 41.5656V40.4018L72.3687 39.6283ZM79.2836 39.9739V38.8459H78.5891V38.3391L79.1353 37.6874H80.1249L80.9192 38.7725V39.9739H79.2836ZM78.3258 42.3302H76.6931V37.6874H78.3258V42.3302ZM83.0542 35.9166V42.3302H81.4216V35.9166H83.0542ZM85.7506 37.6928L83.3099 41.6749V39.0249L84.0635 37.6964L85.7506 37.6928ZM84.758 39.8557L85.8368 42.3302H84.0635L83.7926 41.3956L84.758 39.8557ZM87.8674 37.6874V42.3302H87.2137L86.2348 41.1717V38.8459L87.2137 37.6874H87.8674ZM90.4896 40.4681H88.1261V39.6588H88.9871V38.8459H88.1261V37.6874H89.5106L90.4896 38.8459V40.4681ZM89.8329 42.3302H88.1261V41.2469H90.3201V41.7483L89.8329 42.3302ZM92.8622 36.5289V41.1717H93.9395V42.3302H92.2115L91.228 41.1717V38.8459H90.9042V37.6874H91.228V37.1843L92.8622 36.5289ZM94 38.8459H93.1194V37.6874H94V38.8459Z" fill="#0B57FF"/>
</g>
<defs>
<clipPath id="clip0_2584_786">
<rect width="94" height="44" fill="white" transform="translate(0.144531)"/>
</clipPath>
</defs>
</svg>
