<svg width="71" height="71" viewBox="0 0 71 71" fill="none" xmlns="http://www.w3.org/2000/svg">
<path d="M51.4662 24.25L59.5372 12.1225C59.7953 11.7838 59.9527 11.3777 59.9909 10.9517C60.0291 10.5257 59.9465 10.0975 59.7528 9.71736C59.5592 9.33718 59.2624 9.02074 58.8974 8.80513C58.5323 8.58952 58.1141 8.48368 57.6917 8.5H19.8937V4H15.4468V62.5H11V67H24.3405V62.5H19.8937V40H57.6917C58.0921 39.9979 58.4845 39.8864 58.8275 39.6774C59.1705 39.4683 59.4513 39.1694 59.6404 38.8122C59.8294 38.455 59.9196 38.0527 59.9014 37.648C59.8832 37.2432 59.7574 36.8509 59.5372 36.5125L51.4662 24.25ZM19.8937 35.5V13H53.5117L46.9526 22.8775C46.7089 23.2472 46.5788 23.6818 46.5788 24.1262C46.5788 24.5707 46.7089 25.0053 46.9526 25.375L53.6229 35.5H19.8937Z" fill="#05581C"/>
</svg>
