<svg width="70" height="70" viewBox="0 0 70 70" fill="none" xmlns="http://www.w3.org/2000/svg">
<path d="M67.9492 29.8594C67.2109 29.1211 66.0215 29.1211 65.2969 29.8594L46.2383 48.918L40.9063 43.5859C40.168 42.8477 38.9785 42.8477 38.2539 43.5859C37.5156 44.3242 37.5156 45.5137 38.2539 46.2383L44.9121 52.8965C45.2812 53.2656 45.7598 53.4434 46.2383 53.4434C46.7168 53.4434 47.1953 53.2656 47.5645 52.8965L57.4492 43.0117C57.791 44.1328 57.9688 45.3086 57.9414 46.5117C57.8184 52.7871 52.5957 57.7774 46.3203 57.668C40.0449 57.5449 35.041 52.3223 35.1641 46.0469C35.2871 39.8398 40.373 34.8906 46.5527 34.8906C46.6348 34.8906 46.7031 34.8906 46.7852 34.8906C48.7129 34.9316 50.5996 35.4512 52.2539 36.4219C53.1563 36.9414 54.3047 36.6406 54.8242 35.7383C55.3438 34.8359 55.043 33.6875 54.1406 33.168C52.6777 32.3203 51.0781 31.7324 49.4238 31.418C50.4766 28.3828 51.0098 25.3477 51.0098 22.3535C51.0098 14.9844 45.7461 9.09181 38.7598 8.65431C33.9062 8.35352 29.1348 10.8555 26.373 14.8066C23.6113 10.8555 18.8262 8.35352 13.9863 8.65431C9.57031 8.92774 5.7832 11.3477 3.56836 15.2852C3.0625 16.1875 3.39062 17.3359 4.29297 17.8418C5.19531 18.3477 6.34375 18.0195 6.84961 17.1172C8.42187 14.3008 11.1152 12.5781 14.2324 12.3867C18.7441 12.0859 23.2012 15.1621 24.5957 19.4961C24.5957 19.5098 24.6094 19.5234 24.623 19.5371C24.6777 19.7012 24.7598 19.8516 24.8555 19.9883C24.8691 20.002 24.8828 20.0293 24.8965 20.043C24.9922 20.1797 25.1152 20.3027 25.2656 20.3984C25.293 20.4258 25.3203 20.4395 25.3613 20.4668C25.498 20.5625 25.6484 20.6445 25.8125 20.6992C25.8125 20.6992 25.8125 20.6992 25.8262 20.6992C25.9902 20.7539 26.168 20.7813 26.3457 20.7813C26.373 20.7813 26.3867 20.7949 26.4004 20.7949C26.4141 20.7949 26.4414 20.7813 26.4551 20.7813C26.6328 20.7813 26.7969 20.7539 26.9609 20.6992H26.9746C27.0156 20.6856 27.0566 20.6582 27.084 20.6445C27.1523 20.6172 27.2207 20.5899 27.2754 20.5625C27.3301 20.5352 27.3711 20.4941 27.4258 20.4668C27.4805 20.4258 27.5352 20.3984 27.5762 20.3574C27.6172 20.3164 27.6582 20.2754 27.6992 20.2344C27.7402 20.1934 27.7949 20.1524 27.8223 20.0977C27.8633 20.0566 27.8906 20.002 27.9316 19.9473C27.9727 19.8926 28 19.8516 28.0273 19.7969C28.0547 19.7422 28.082 19.6738 28.1094 19.6055C28.123 19.5645 28.1504 19.5234 28.1641 19.4824C29.5586 15.1484 34.0156 12.0996 38.5273 12.3731C43.5039 12.6875 47.25 16.9668 47.25 22.3262C47.25 25.2246 46.6621 28.1777 45.5 31.1445C37.7754 31.6777 31.5547 38.0488 31.4043 45.9375C31.3906 46.6484 31.4453 47.3594 31.5273 48.0566C29.9551 49.1914 28.3418 50.2168 26.4004 51.3106C13.3027 43.9004 5.50977 33.127 5.50977 22.3262C5.50977 21.2871 4.67578 20.4531 3.63672 20.4531C2.59766 20.4531 1.76367 21.2871 1.76367 22.3262C1.76367 34.7539 10.6094 46.9902 25.4434 55.084C25.4434 55.084 25.4434 55.084 25.457 55.084C25.4707 55.0977 25.4844 55.0977 25.498 55.1113C25.5801 55.1524 25.6758 55.1797 25.7578 55.207C25.8125 55.2207 25.8672 55.2617 25.9219 55.2754C26.0723 55.3164 26.2363 55.3438 26.4004 55.3438C26.5645 55.3438 26.7148 55.3164 26.8789 55.2754C26.9336 55.2617 26.9883 55.2344 27.043 55.207C27.125 55.1797 27.2207 55.1524 27.3027 55.1113C29.2988 54.0176 30.9668 53.0195 32.5391 51.9395C34.7539 57.3672 40.0312 61.2637 46.2656 61.3867C46.375 61.3867 46.4707 61.3867 46.5801 61.3867C54.7832 61.3867 61.5508 54.7969 61.7148 46.5527C61.7559 44.2832 61.3047 42.1094 60.3887 40.0723L67.9766 32.4844C68.6738 31.7871 68.6738 30.5977 67.9492 29.8594Z" fill="#05581C"/>
</svg>
