<svg width="70" height="70" viewBox="0 0 70 70" fill="none" xmlns="http://www.w3.org/2000/svg">
<path d="M39.1257 55.406C28.2651 57.3575 19.9075 61.4514 20.4696 64.559C21.0318 67.6666 30.2803 68.5999 41.1515 66.6484C52.0121 64.6969 60.3696 60.6029 59.8075 57.4953C59.2454 54.3878 49.9863 53.4544 39.1257 55.406Z" fill="#05581C"/>
<path d="M50.0819 2.89538C28.6576 -0.498556 8.29398 12.6317 8.29398 12.6317C8.29398 12.6317 -6.43784 24.5954 6.15156 34.4166C13.8409 40.409 16.8637 44.609 18.0622 46.9742C23.047 43.7393 33.4728 38.4151 47.0697 39.3908C47.6531 39.4333 48.0985 39.9424 48.0561 40.5257C48.0137 41.109 47.494 41.5439 46.9213 41.5121C33.6425 40.5575 23.3758 46.0408 18.8152 49.0424C18.8364 49.1802 18.8364 49.2439 18.8364 49.2439L20.0455 60.656C23.7788 56.9333 32.7303 54.3878 38.744 53.3166C42.5728 52.6272 46.3697 52.256 49.7213 52.256C53.0197 52.256 56.7849 52.606 59.2561 53.9105L57.591 42.806C57.591 42.806 60.3485 32.4545 64.8137 26.9181C69.2788 21.3817 68.8334 16.7363 68.8334 16.7363C68.8334 16.7363 71.5167 6.28932 50.0819 2.89538ZM18.9849 42.2014C18.5076 41.3954 18.0091 40.6105 17.447 39.8469C16.3626 38.3377 15.2089 36.8796 13.9894 35.4772C12.7909 34.4166 11.6031 33.3348 10.5531 32.1257C9.45004 30.9272 8.47428 29.6227 7.56216 28.2757C6.68186 26.9075 5.8864 25.4863 5.26065 23.9802C4.63489 22.4848 4.11519 20.9363 3.91368 19.3348C4.51822 20.8196 5.27125 22.2196 6.07731 23.5772C6.89398 24.9242 7.77428 26.2181 8.70762 27.4802C9.19549 28.0954 9.66216 28.7211 10.1819 29.3045C10.6697 29.9196 11.1894 30.503 11.7197 31.0757C12.2394 31.659 12.8122 32.1999 13.3425 32.7727L15.0394 34.3954L15.1031 34.459L15.1243 34.4802C16.3228 36.0181 17.4046 37.609 18.3379 39.306C18.8046 40.1545 19.2182 41.0348 19.547 41.9469C19.8758 42.8484 20.1409 43.8242 20.0773 44.7999C19.897 43.8454 19.4409 43.0181 18.9849 42.2014ZM23.4713 42.8166C23.5455 42.4772 23.4713 42.1378 23.397 41.8196C23.3228 41.4908 23.2167 41.1727 23.1 40.8545C22.8667 40.2287 22.5803 39.6136 22.2834 39.009C21.6894 37.7999 20.9894 36.6333 20.2894 35.4772C18.8788 33.1651 17.3197 30.9484 15.8985 28.5514C14.5091 26.1545 13.2894 23.6514 12.3349 21.053C11.3909 18.4545 10.6273 15.7605 10.447 12.9924C11.2743 15.6121 12.3455 18.1151 13.4803 20.5757C14.647 23.0257 15.8879 25.4227 17.2773 27.7454C18.6243 30.0681 20.1728 32.3802 21.3925 34.8727C22.0076 36.1136 22.5803 37.3863 23.0152 38.7121C23.2273 39.3802 23.4288 40.0484 23.5455 40.7378C23.6303 41.4166 23.747 42.159 23.4713 42.8166ZM29.2834 40.3454C29.1031 38.9878 28.6682 37.6939 28.2546 36.3999C27.8303 35.106 27.3531 33.8333 26.8758 32.5605C25.9106 30.0257 24.8288 27.5227 23.9061 24.9136C23.0046 22.3151 22.2091 19.6742 21.5728 17.0014C20.9258 14.3287 20.3849 11.6242 20.0879 8.88781C21.0213 11.4757 21.8909 14.0742 22.7606 16.6621C23.6409 19.2393 24.4894 21.8378 25.4122 24.3939C26.2925 26.9499 27.3213 29.506 28.0637 32.1787C28.4455 33.5045 28.7743 34.8514 29.0182 36.2196C29.2197 37.5666 29.4531 38.956 29.2834 40.3454ZM35.7106 37.5454C35.2016 34.7878 34.8728 32.0196 34.6182 29.2408C34.3637 26.4621 34.2046 23.6727 34.1516 20.8727C34.1197 18.0196 34.4167 15.3045 34.2576 12.5787C34.1622 11.2211 34.0455 9.86357 33.6849 8.56963C33.5152 7.92266 33.2819 7.28629 32.9531 6.70296C32.6137 6.14084 32.1788 5.56811 31.5213 5.32417C32.2319 5.40902 32.847 5.90751 33.3137 6.44841C33.7803 7.01054 34.1303 7.65751 34.4273 8.31508C34.9894 9.65144 35.297 11.0621 35.4985 12.4727C35.6894 13.8833 35.7637 15.3045 35.7637 16.7151C35.7531 18.1469 35.7106 19.4727 35.7531 20.8727L35.8697 29.1984C35.8803 31.956 35.8591 34.7454 35.7106 37.5454ZM46.6349 21.2545L45.9879 23.3439L45.394 25.3908C44.991 26.759 44.6516 28.1484 44.3016 29.5272C43.6758 32.306 42.9652 35.0954 43.1137 37.9802C42.6682 36.5908 42.6258 35.0954 42.647 33.6317C42.7 32.1681 42.8591 30.7151 43.0819 29.2833C43.294 27.8408 43.6122 26.4196 43.941 24.9984C44.1106 24.2878 44.3016 23.5984 44.5031 22.8772L45.097 20.8302C45.8713 18.1045 46.4228 15.3363 46.5182 12.5363C46.5182 11.1469 46.4546 9.7469 46.1046 8.38932C45.7546 7.05296 45.2031 5.70599 44.1743 4.68781C45.4364 5.44084 46.2637 6.78781 46.847 8.14538C47.4091 9.54538 47.6637 11.0302 47.7697 12.5151C47.9288 15.4848 47.3985 18.4333 46.6349 21.2545ZM50.9197 33.5469C50.3605 35.0002 49.8721 36.4797 49.4561 37.9802C49.6788 34.8514 50.4637 31.7651 51.4713 28.7954C52.4682 25.8045 53.7516 22.9302 55.1834 20.1302C55.9364 18.7302 56.6576 17.3939 57.2622 16.0257C57.5273 15.3257 57.8667 14.6469 58.0364 13.9257C58.1319 13.5651 58.2591 13.2151 58.3334 12.8545L58.5243 11.7621C58.694 10.309 58.5985 8.81357 58.0046 7.45599C57.4425 6.08781 56.3394 4.94235 54.9925 4.1575C55.7455 4.38023 56.4561 4.77266 57.0819 5.28175C57.7182 5.76963 58.2591 6.40599 58.694 7.09538C59.5425 8.5166 59.85 10.2242 59.7546 11.8681L59.6379 13.0984C59.5849 13.5014 59.4576 13.8939 59.3728 14.2863C59.2243 15.0924 58.8955 15.8348 58.641 16.5984C58.0364 18.0939 57.2834 19.5151 56.5834 20.8621C55.1516 23.5984 53.8364 26.3984 52.6273 29.2408C52.0189 30.6603 51.4495 32.0962 50.9197 33.5469ZM64.0182 24.606C56.6046 36.0181 56.6046 40.3348 56.6046 40.3348C56.6046 40.3348 56.5197 33.4302 61.8758 25.0408C61.8758 25.0408 55.9788 28.1696 54.197 39.1469C54.197 39.1469 52.9031 31.8924 62.8091 20.8302C65.5561 17.7651 66.4576 13.3636 64.8031 9.59841C64.697 9.36508 64.591 9.12114 64.4637 8.8772C64.4637 8.8772 71.4213 13.1939 64.0182 24.606Z" fill="#05581C"/>
</svg>
