<svg width="80" height="80" viewBox="0 0 80 80" fill="none" xmlns="http://www.w3.org/2000/svg">
<path d="M65.0013 2.50025C63.3311 2.49713 63.3311 5.00343 65.0013 5.00036H66.2513V7.5884C61.2548 8.21792 57.5059 12.4648 57.5012 17.501C57.5012 23.0242 61.9784 27.5016 67.5014 27.5016C73.0243 27.5015 77.5016 23.0241 77.5015 17.501C77.4954 12.4658 73.747 8.22026 68.7514 7.59085V5.00036H70.0014C71.6716 5.00343 71.6716 2.49713 70.0014 2.50025H65.0013ZM44.9985 11.2507C43.3283 11.2476 43.3283 13.7539 44.9985 13.7508H53.7486C55.4188 13.754 55.4188 11.2476 53.7486 11.2507H44.9985ZM66.5587 13.7331C64.6324 14.2493 63.4412 16.1509 63.7828 18.0888C64.1291 20.0529 65.9171 21.4074 67.8796 21.2359C69.8663 21.0621 71.3758 19.3947 71.3758 17.4247C71.4136 15.7722 73.8244 15.7478 73.8782 17.4247C73.8782 20.7126 71.3576 23.4414 68.1018 23.7263C64.846 24.0112 61.9015 21.7665 61.3194 18.5234C60.7419 15.3065 62.7573 12.1619 65.9142 11.316C66.0224 11.2829 66.1339 11.2687 66.2464 11.2692C67.692 11.3121 67.9759 13.3036 66.5587 13.7331ZM71.6421 14.3801L68.4975 18.2646C67.4488 19.5646 65.5006 17.9858 66.5541 16.6898L69.6987 12.8078C69.9609 12.4827 70.2786 12.3368 70.5922 12.3219C71.5332 12.2793 72.4322 13.408 71.6421 14.3801ZM47.4985 16.2503C45.8284 16.2472 45.8284 18.7535 47.4985 18.7505H53.7486C55.4188 18.7536 55.4188 16.2473 53.7486 16.2503H47.4985ZM51.2486 21.2506C49.5785 21.2475 49.5785 23.7538 51.2486 23.7507H53.7486C55.4188 23.7539 55.4188 21.2475 53.7486 21.2506H51.2486ZM17.5592 41.2612V26.2508H7.5026C5.44669 26.2508 3.7452 27.9425 3.7452 29.9986V65.0005C3.055 65.0031 2.50006 65.5595 2.50006 66.2505V68.7531C2.50006 69.4456 3.0576 70.0038 3.75012 70.0031L7.49287 70.0006C7.49287 64.5024 12.0144 59.9928 17.5053 59.9928C22.9961 59.9928 27.5079 64.5058 27.5079 70.0006H53.7511C53.7511 64.5024 58.2726 59.9928 63.7635 59.9928C69.2544 59.9928 73.7661 64.5058 73.7661 70.0006L76.2515 70.0031C76.9441 70.0031 77.5015 69.4456 77.5015 68.7531V66.2505C77.5015 65.5579 76.9441 65.0005 76.2515 65.0005H75.0015V57.5025H72.5015C70.8343 57.5025 70.8496 55.2276 72.5015 55.0024H75.0015V52.5022C75.0015 52.0576 74.8258 51.8608 74.6817 51.6209C72.496 47.9803 63.8929 33.6512 63.8929 33.6512C63.2601 32.3561 62.4988 32.4988 61.2537 32.4988H50.001V65.0005H47.5009V29.9986C47.5009 27.9425 45.8117 26.2508 43.7558 26.2508H35.0105V41.2565C35.0135 42.9859 33.1824 44.2282 31.5778 43.5833L26.253 41.4518L20.9967 43.5685C19.3943 44.2153 17.5697 42.9879 17.5592 41.2612ZM32.5101 26.2508H20.0615V41.2467L25.7818 38.9419C26.0809 38.8215 26.4152 38.8215 26.7144 38.9419L32.5054 41.2565L32.5101 26.2508ZM56.0509 36.2562H60.8924C61.7376 36.2604 62.4697 36.6914 62.8846 37.3989L69.916 49.0133C70.8368 50.5892 69.6854 52.5017 67.914 52.4973H56.0656C54.8019 52.5021 53.7563 51.483 53.7511 50.1901V38.5635C53.7511 37.2958 54.783 36.2562 56.0509 36.2562ZM56.2512 38.7466V49.9948H67.5918L60.7826 38.7466H56.2512ZM31.2508 53.7499C31.8767 53.7499 32.5024 54.167 32.5008 55.0024V60.0002C32.5039 61.6704 29.9977 61.6704 30.0008 60.0002V55.0024C29.9993 54.1672 30.6248 53.7499 31.2508 53.7499ZM36.2509 53.7499C36.8768 53.7499 37.5024 54.167 37.5009 55.0024V60.0002C37.504 61.6704 34.9978 61.6704 35.0009 60.0002V55.0024C34.9994 54.1672 35.625 53.7499 36.2509 53.7499ZM41.251 53.7499C41.8769 53.7499 42.5026 54.167 42.501 55.0024V60.0002C42.5041 61.6704 39.9979 61.6704 40.0009 60.0002V55.0024C39.9994 54.1672 40.625 53.7499 41.251 53.7499ZM53.7537 55.0024H55.0037C56.6739 54.9992 56.6739 57.5055 55.0037 57.5025H53.7537C52.0835 57.5056 52.0835 54.9993 53.7537 55.0024ZM17.5054 62.4979C13.3742 62.4979 9.99548 65.8666 9.99548 69.9983C9.99548 74.13 13.3742 77.5011 17.5054 77.5011C21.6366 77.5011 25.0056 74.13 25.0056 69.9983C25.0056 65.8666 21.6366 62.4979 17.5054 62.4979ZM63.7612 62.4979C59.63 62.4979 56.2513 65.8666 56.2513 69.9983C56.2513 74.13 59.63 77.5011 63.7612 77.5011C67.8925 77.5011 71.2613 74.13 71.2613 69.9983C71.2613 65.8666 67.8925 62.4979 63.7612 62.4979ZM17.5054 66.2505C19.5628 66.2505 21.2506 67.9383 21.2506 69.9958C21.2506 72.0534 19.5628 73.7533 17.5054 73.7533C15.4479 73.7533 13.748 72.0551 13.748 69.9958C13.748 67.9366 15.4479 66.2505 17.5054 66.2505ZM63.7636 66.2505C65.8211 66.2505 67.5088 67.9383 67.5088 69.9958C67.5088 72.0534 65.8211 73.7533 63.7636 73.7533C61.7062 73.7533 60.0062 72.0551 60.0062 69.9958C60.0062 67.9366 61.7062 66.2505 63.7636 66.2505ZM17.5054 68.7506C16.8078 68.7506 16.2505 69.2993 16.2505 69.9958C16.2505 70.6923 16.8078 71.2532 17.5054 71.2532C18.203 71.2532 18.7506 70.694 18.7506 69.9958C18.7506 69.2976 18.203 68.7506 17.5054 68.7506ZM63.7636 68.7506C63.066 68.7506 62.5087 69.2993 62.5087 69.9958C62.5087 70.6923 63.066 71.2532 63.7636 71.2532C64.4613 71.2532 65.0088 70.694 65.0088 69.9958C65.0088 69.2976 64.4613 68.7506 63.7636 68.7506Z" fill="#05581C"/>
</svg>
