<svg width="18" height="18" viewBox="0 0 18 18" fill="none" xmlns="http://www.w3.org/2000/svg">
<path d="M16.3504 0.25H1.74531C0.947266 0.25 0.25 0.824219 0.25 1.61289V16.2504C0.25 17.0434 0.947266 17.75 1.74531 17.75H16.3461C17.1484 17.75 17.75 17.0387 17.75 16.2504V1.61289C17.7547 0.824219 17.1484 0.25 16.3504 0.25ZM5.67461 14.8371H3.16758V7.04219H5.67461V14.8371ZM4.50781 5.85703H4.48984C3.6875 5.85703 3.16797 5.25977 3.16797 4.51211C3.16797 3.75078 3.70117 3.16758 4.52148 3.16758C5.3418 3.16758 5.84375 3.74648 5.86172 4.51211C5.86133 5.25977 5.3418 5.85703 4.50781 5.85703ZM14.8371 14.8371H12.3301V10.575C12.3301 9.55391 11.9652 8.85625 11.0582 8.85625C10.3652 8.85625 9.95508 9.325 9.77266 9.78164C9.7043 9.9457 9.68594 10.1691 9.68594 10.3973V14.8371H7.17891V7.04219H9.68594V8.12695C10.0508 7.60742 10.6207 6.85977 11.9469 6.85977C13.5926 6.85977 14.8375 7.94453 14.8375 10.2832L14.8371 14.8371Z" fill="#323238"/>
</svg>
