<svg width="18" height="18" viewBox="0 0 18 18" fill="none" xmlns="http://www.w3.org/2000/svg">
<path d="M12.6457 1.7082C13.6118 1.71109 14.5375 2.09616 15.2207 2.77931C15.9038 3.46246 16.2889 4.38818 16.2918 5.3543V12.6457C16.2889 13.6118 15.9038 14.5375 15.2207 15.2207C14.5375 15.9038 13.6118 16.2889 12.6457 16.2918H5.3543C4.38818 16.2889 3.46246 15.9038 2.77931 15.2207C2.09616 14.5375 1.71109 13.6118 1.7082 12.6457V5.3543C1.71109 4.38818 2.09616 3.46246 2.77931 2.77931C3.46246 2.09616 4.38818 1.71109 5.3543 1.7082H12.6457ZM12.6457 0.25H5.3543C2.54687 0.25 0.25 2.54687 0.25 5.3543V12.6457C0.25 15.4531 2.54687 17.75 5.3543 17.75H12.6457C15.4531 17.75 17.75 15.4531 17.75 12.6457V5.3543C17.75 2.54687 15.4531 0.25 12.6457 0.25Z" fill="#323238"/>
<path d="M13.7395 5.3543C13.5231 5.3543 13.3117 5.29015 13.1318 5.16997C12.9519 5.04978 12.8117 4.87896 12.729 4.67911C12.6462 4.47925 12.6245 4.25933 12.6667 4.04717C12.7089 3.835 12.8131 3.64011 12.9661 3.48715C13.119 3.33419 13.3139 3.23002 13.5261 3.18781C13.7382 3.14561 13.9582 3.16727 14.158 3.25005C14.3579 3.33284 14.5287 3.47303 14.6489 3.65289C14.7691 3.83276 14.8332 4.04422 14.8332 4.26055C14.8335 4.40427 14.8054 4.54663 14.7506 4.67947C14.6957 4.81231 14.6152 4.93301 14.5135 5.03463C14.4119 5.13626 14.2912 5.21681 14.1584 5.27167C14.0255 5.32653 13.8832 5.35461 13.7395 5.3543Z" fill="#323238"/>
<path d="M9 6.0832C9.57689 6.0832 10.1408 6.25427 10.6205 6.57477C11.1002 6.89527 11.474 7.35082 11.6948 7.88379C11.9155 8.41677 11.9733 9.00323 11.8608 9.56904C11.7482 10.1348 11.4704 10.6546 11.0625 11.0625C10.6546 11.4704 10.1348 11.7482 9.56904 11.8608C9.00323 11.9733 8.41677 11.9155 7.88379 11.6948C7.35082 11.474 6.89527 11.1002 6.57477 10.6205C6.25427 10.1408 6.0832 9.57689 6.0832 9C6.08403 8.22667 6.3916 7.48525 6.93843 6.93843C7.48525 6.3916 8.22667 6.08403 9 6.0832ZM9 4.625C8.13471 4.625 7.28885 4.88159 6.56938 5.36232C5.84992 5.84305 5.28916 6.52633 4.95803 7.32576C4.62689 8.12519 4.54025 9.00485 4.70906 9.85352C4.87787 10.7022 5.29455 11.4817 5.90641 12.0936C6.51826 12.7054 7.29781 13.1221 8.14648 13.2909C8.99515 13.4597 9.87481 13.3731 10.6742 13.042C11.4737 12.7108 12.1569 12.1501 12.6377 11.4306C13.1184 10.7112 13.375 9.86529 13.375 9C13.375 7.83968 12.9141 6.72688 12.0936 5.90641C11.2731 5.08594 10.1603 4.625 9 4.625Z" fill="#323238"/>
</svg>
