<svg width="46" height="56" viewBox="0 0 46 56" fill="none" xmlns="http://www.w3.org/2000/svg">
<path d="M44.6068 1.06803L37.3251 0.00851494C37.1009 -0.0255256 36.8767 0.0638308 36.8078 0.127657L33.6994 4.11465C33.4881 4.38272 33.4364 4.70611 33.5097 4.9997C33.5829 5.2933 33.3286 5.56137 33.0268 5.49329L30.4702 4.93588C30.065 4.84652 29.6425 4.99971 29.3881 5.32309L19.3213 18.1393C19.1316 18.3819 18.7953 18.467 18.5108 18.3393L14.6824 16.6203C14.3461 16.4714 13.9538 16.5054 13.6477 16.7139L11.7206 18.0372C11.4015 18.2585 10.9833 18.284 10.6384 18.1096L9.67271 17.6245C9.06482 17.3181 8.32329 17.6585 8.17239 18.3181L7.47397 21.3391C7.31014 22.0455 7.62055 22.7774 8.24569 23.1603L9.69858 24.0411L14.4108 26.9048L16.713 28.3004C17.3467 28.6876 18.1659 28.6196 18.7264 28.1302L22.5634 24.8028C22.8781 24.5304 23.3265 24.4751 23.6972 24.6624L24.8526 25.241C25.245 25.4368 25.7192 25.3729 26.0382 25.0751L27.9869 23.2795C28.293 22.9944 28.7457 22.922 29.1294 23.0965L32.0266 24.3985C32.4663 24.5943 32.988 24.4709 33.2812 24.0922L34.6176 22.3944L44.7448 9.56964C45.219 8.96542 44.8957 8.08037 44.1412 7.91868L41.8821 7.42509C41.4122 7.32297 41.2139 6.76556 41.5157 6.39537L45.0207 2.11477C45.3397 1.72756 45.1069 1.14462 44.6068 1.07228V1.06803Z" fill="#996DFF"/>
<path d="M11.1935 26.8582C10.9909 26.7305 10.7408 26.9305 10.8271 27.1518L11.9178 29.9771C11.9954 30.1771 12.0083 30.3941 11.9523 30.5984L11.0038 34.2705C10.9435 34.5088 11.0297 34.7598 11.228 34.913L13.9398 36.9937C14.1855 37.181 14.5304 37.1724 14.7676 36.9725L17.6216 34.513C17.7854 34.3726 17.9881 34.2833 18.2036 34.262L21.4198 33.9046C21.6526 33.879 21.7216 33.5812 21.5276 33.4578L11.1935 26.8624V26.8582Z" fill="#996DFF"/>
<path d="M10.2191 36.2954C10.0337 36.1464 9.77933 36.1209 9.56807 36.223L7.28311 37.3166C7.15377 37.3804 7.0503 37.491 6.99856 37.6229L2.12684 49.4903C2.11391 49.5158 2.11391 49.5499 2.12684 49.5797C2.1484 49.6435 2.21738 49.6775 2.27774 49.652L3.38142 49.235C3.41591 49.2222 3.45902 49.218 3.4892 49.2393C3.54525 49.2733 3.56249 49.3499 3.528 49.4052L0.0186386 55.0602C-0.0546528 55.1793 0.104864 55.307 0.208334 55.2049L12.8231 42.695C12.9395 42.5886 13.0128 42.4397 13.0257 42.2822L13.2671 39.0611C13.2801 38.8654 13.1982 38.6782 13.0429 38.5548L10.2191 36.2996V36.2954Z" fill="#996DFF"/>
</svg>
