<svg width="18" height="18" viewBox="0 0 18 18" fill="none" xmlns="http://www.w3.org/2000/svg">
<path d="M6.23667 10.0305C6.405 9.69383 6.5 9.31383 6.5 8.91216C6.5 8.5105 6.405 8.1305 6.23667 7.79383M6.23667 10.0305C5.98475 10.5342 5.57017 10.938 5.06008 11.1766C4.54999 11.4153 3.97427 11.4747 3.4262 11.3452C2.87813 11.2158 2.38981 10.9052 2.04034 10.4636C1.69088 10.022 1.50075 9.47531 1.50075 8.91216C1.50075 8.34902 1.69088 7.80237 2.04034 7.36077C2.38981 6.91918 2.87813 6.6085 3.4262 6.47908C3.97427 6.34966 4.54999 6.40907 5.06008 6.6477C5.57017 6.88632 5.98475 7.29017 6.23667 7.79383M6.23667 10.0305L11.7633 12.7938M6.23667 7.79383L11.7633 5.0305M11.7633 12.7938C11.4667 13.387 11.4179 14.0738 11.6277 14.7029C11.8374 15.3321 12.2885 15.8522 12.8817 16.1488C13.4749 16.4454 14.1616 16.4942 14.7908 16.2845C15.42 16.0748 15.9401 15.6237 16.2367 15.0305C16.5333 14.4373 16.5821 13.7506 16.3723 13.1214C16.1626 12.4922 15.7115 11.9721 15.1183 11.6755C14.8246 11.5286 14.5048 11.4411 14.1773 11.4178C13.8497 11.3945 13.5208 11.436 13.2092 11.5398C12.58 11.7495 12.0599 12.2006 11.7633 12.7938ZM11.7633 5.0305C11.9102 5.32417 12.1135 5.58603 12.3615 5.80115C12.6096 6.01626 12.8976 6.1804 13.2091 6.28421C13.5206 6.38802 13.8495 6.42946 14.177 6.40616C14.5045 6.38286 14.8242 6.29528 15.1179 6.14841C15.4116 6.00155 15.6735 5.79829 15.8886 5.55022C16.1037 5.30216 16.2678 5.01415 16.3716 4.70265C16.4754 4.39115 16.5169 4.06225 16.4936 3.73473C16.4703 3.40722 16.3827 3.0875 16.2358 2.79383C15.9392 2.20074 15.4192 1.74977 14.7901 1.54012C14.161 1.33047 13.4743 1.37931 12.8812 1.67591C12.2882 1.97251 11.8372 2.49257 11.6275 3.12168C11.4179 3.75078 11.4667 4.43741 11.7633 5.0305Z" stroke="#333333" stroke-width="1.5" stroke-linecap="round" stroke-linejoin="round"/>
</svg>
