<svg width="15" height="9" viewBox="0 0 15 9" fill="none" xmlns="http://www.w3.org/2000/svg">
<path d="M14.1721 2.54543L7.96628 8.76971C7.8924 8.84359 7.81236 8.89604 7.72617 8.92707C7.63998 8.9581 7.54763 8.97337 7.44913 8.97287C7.35062 8.97287 7.25827 8.95736 7.17208 8.92633C7.08589 8.8953 7.00585 8.84309 6.93198 8.76971L0.707702 2.54543C0.535319 2.37305 0.449127 2.15757 0.449127 1.899C0.449127 1.64042 0.541475 1.41878 0.726172 1.23409C0.910869 1.04939 1.12635 0.957043 1.37261 0.957043C1.61887 0.957043 1.83435 1.04939 2.01905 1.23409L7.44913 6.66417L12.8792 1.23409C13.0516 1.0617 13.2641 0.975512 13.5168 0.975512C13.7694 0.975512 13.9879 1.06786 14.1721 1.25256C14.3568 1.43725 14.4491 1.65273 14.4491 1.899C14.4491 2.14526 14.3568 2.36074 14.1721 2.54543Z" fill="white"/>
</svg>
