<svg width="22" height="23" viewBox="0 0 22 23" fill="none" xmlns="http://www.w3.org/2000/svg">
<path d="M20.3768 23C17.8409 23 15.3691 22.3875 12.9614 21.1626C10.5537 19.9376 8.42076 18.3191 6.56267 16.307C4.70459 14.2949 3.21057 11.9843 2.08062 9.37506C0.950676 6.76583 0.385308 4.08804 0.384521 1.34167C0.384521 0.958334 0.50247 0.638889 0.738368 0.383333C0.974265 0.127778 1.26914 0 1.62298 0H6.39991C6.67512 0 6.92085 0.0958332 7.13709 0.2875C7.35332 0.479167 7.4811 0.724074 7.52042 1.02222L8.28709 5.49444C8.3264 5.79259 8.32129 6.06433 8.27175 6.30967C8.22221 6.555 8.10938 6.77307 7.93324 6.96389L5.10247 10.0944C5.92811 11.6278 6.96016 13.0653 8.19862 14.4069C9.43709 15.7486 10.8033 16.9093 12.2973 17.8889L15.0691 14.8861C15.2461 14.6944 15.4772 14.5509 15.7627 14.4555C16.0481 14.3601 16.328 14.3333 16.6025 14.375L20.6717 15.2694C20.9469 15.3333 21.173 15.4773 21.3499 15.7013C21.5268 15.9254 21.6153 16.186 21.6153 16.4833V21.6583C21.6153 22.0417 21.4973 22.3611 21.2614 22.6167C21.0255 22.8722 20.7307 23 20.3768 23Z" fill="#F8EDFF"/>
</svg>
