<svg width="222" height="35" viewBox="0 0 222 35" fill="none" xmlns="http://www.w3.org/2000/svg">
<path d="M59.2002 15.2222L54.1702 15.2222L53.19 18.6L49.2051 18.6L54.3726 3.22366L59.1573 3.22366L64.3257 18.6L60.1699 18.6L59.2002 15.2222ZM54.9271 12.4085L58.4328 12.4085L56.7281 6.48412L56.6423 6.48412L54.9271 12.4085Z" fill="white"/>
<path d="M69.419 2.45412L65.647 2.45412L65.647 18.5978L69.419 18.5978L69.419 2.45412Z" fill="white"/>
<path d="M78.8297 6.56985C80.3285 6.56985 81.4936 7.10245 82.3249 8.16766C83.1633 9.23375 83.582 10.7291 83.582 12.6536C83.582 14.5791 83.1668 16.0744 82.3354 17.1405C81.5111 18.2127 80.3566 18.7488 78.8717 18.7488C77.0891 18.7488 75.8776 18.0209 75.2381 16.565L75.1636 16.565L75.1636 22.202L71.3916 22.202L71.3916 6.72928L75.1426 6.72928L75.1426 8.80714L75.2171 8.80714C75.5158 8.10372 75.981 7.55709 76.6134 7.1664C77.245 6.7687 77.9844 6.56985 78.8297 6.56985ZM77.4334 15.7766C78.1298 15.7766 78.6843 15.4954 79.096 14.9347C79.5077 14.3662 79.7136 13.6058 79.7136 12.6536C79.7136 11.7093 79.5077 10.956 79.096 10.3953C78.6764 9.8268 78.1228 9.5421 77.4334 9.5421C76.7448 9.5421 76.1903 9.8268 75.7716 10.3953C75.359 10.963 75.1531 11.7198 75.1531 12.665C75.1531 13.6164 75.359 14.3732 75.7716 14.9347C76.1833 15.4954 76.7378 15.7766 77.4334 15.7766Z" fill="white"/>
<path d="M85.1707 2.45412L88.8682 2.45412L88.8682 8.96452L88.9427 8.96452C89.5822 7.3448 90.8567 6.53538 92.7682 6.53538C94.0892 6.53538 95.1264 6.92958 95.8797 7.71798C96.6331 8.51338 97.0089 9.611 97.0089 11.0108L97.0089 18.5978L93.2263 18.5978L93.2263 11.8203C93.2263 11.1387 93.0415 10.5991 92.6718 10.2006C92.296 9.80986 91.7844 9.61451 91.1379 9.61451C90.4915 9.61451 89.9659 9.82825 89.5603 10.254C89.1486 10.6876 88.9427 11.2421 88.9427 11.9166L88.9427 18.5978L85.1707 18.5978L85.1707 2.45412Z" fill="white"/>
<path d="M103.723 16.1285C104.349 16.1285 104.874 15.9612 105.3 15.6274C105.748 15.2867 105.972 14.8495 105.972 14.3169L105.972 13.4961L103.787 13.6459C102.679 13.7239 102.125 14.1426 102.125 14.903C102.125 15.2796 102.271 15.5784 102.562 15.7982C102.846 16.0181 103.234 16.1285 103.723 16.1285ZM102.392 18.7495C101.262 18.7495 100.317 18.4157 99.5571 17.7482C98.7757 17.0737 98.385 16.21 98.385 15.1588C98.385 12.9355 99.9863 11.724 103.191 11.5251L105.972 11.3543L105.972 10.6728C105.972 10.1971 105.812 9.82745 105.492 9.56465C105.18 9.30886 104.754 9.18096 104.214 9.18096C103.709 9.18096 103.29 9.30185 102.956 9.54275C102.636 9.77752 102.448 10.0832 102.392 10.4599L98.9921 10.4599C99.042 9.25893 99.5536 8.29621 100.527 7.57176C101.507 6.8403 102.797 6.47414 104.394 6.47414C105.972 6.47414 107.243 6.8403 108.209 7.57176C109.176 8.31022 109.659 9.27645 109.659 10.4704L109.659 18.59L105.993 18.59L105.993 16.8853L105.919 16.8853C105.606 17.4679 105.12 17.926 104.458 18.2598C103.82 18.5865 103.13 18.7495 102.392 18.7495Z" fill="white"/>
<path d="M115.958 6.73775L119.624 6.73775L119.624 9.01797L119.699 9.01797C119.933 8.2576 120.356 7.65404 120.966 7.20641C121.578 6.75877 122.285 6.53539 123.087 6.53539C123.968 6.53539 124.696 6.75176 125.272 7.18538C125.847 7.62601 126.22 8.24709 126.391 9.05038L126.465 9.05038C126.7 8.28301 127.147 7.67156 127.808 7.21692C128.475 6.76228 129.25 6.53539 130.131 6.53539C131.289 6.53539 132.226 6.90506 132.944 7.64353C133.661 8.38988 134.02 9.36311 134.02 10.5632L134.02 18.5979L130.248 18.5979L130.248 11.5224C130.248 10.2435 129.68 9.60401 128.543 9.60401C128.01 9.60401 127.587 9.78183 127.275 10.1366C126.956 10.4923 126.795 10.9679 126.795 11.5645L126.795 18.5979L123.194 18.5979L123.194 11.469C123.194 10.8724 123.044 10.4108 122.746 10.0841C122.455 9.76431 122.036 9.60401 121.488 9.60401C120.963 9.60401 120.537 9.78534 120.21 10.148C119.891 10.5098 119.73 10.9898 119.73 11.5864L119.73 18.5979L115.958 18.5979L115.958 6.73775Z" fill="white"/>
<path d="M140.734 16.1285C141.36 16.1285 141.885 15.9612 142.312 15.6274C142.76 15.2867 142.983 14.8495 142.983 14.3169L142.983 13.4961L140.798 13.6459C139.69 13.7239 139.137 14.1426 139.137 14.903C139.137 15.2796 139.282 15.5784 139.573 15.7982C139.857 16.0181 140.245 16.1285 140.734 16.1285ZM139.403 18.7495C138.273 18.7495 137.328 18.4157 136.568 17.7482C135.787 17.0737 135.396 16.21 135.396 15.1588C135.396 12.9355 136.998 11.724 140.202 11.5251L142.983 11.3543L142.983 10.6728C142.983 10.1971 142.824 9.82745 142.504 9.56465C142.191 9.30886 141.765 9.18096 141.225 9.18096C140.72 9.18096 140.302 9.30185 139.967 9.54275C139.648 9.77752 139.46 10.0832 139.403 10.4599L136.003 10.4599C136.053 9.25893 136.565 8.29621 137.538 7.57176C138.518 6.8403 139.808 6.47414 141.406 6.47414C142.983 6.47414 144.255 6.8403 145.221 7.57176C146.187 8.31022 146.67 9.27645 146.67 10.4704L146.67 18.59L143.004 18.59L143.004 16.8853L142.93 16.8853C142.617 17.4679 142.131 17.926 141.47 18.2598C140.831 18.5865 140.141 18.7495 139.403 18.7495Z" fill="white"/>
<path d="M148.557 6.72928L152.223 6.72928L152.223 8.95606L152.297 8.95606C152.73 7.36525 153.665 6.56985 155.1 6.56985C155.44 6.56985 155.76 6.6189 156.059 6.71877L156.059 9.9582C155.732 9.81629 155.327 9.74533 154.844 9.74533C154.034 9.74533 153.413 9.96521 152.979 10.4058C152.546 10.8535 152.329 11.4929 152.329 12.3234L152.329 18.5894L148.557 18.5894L148.557 6.72928Z" fill="white"/>
<path d="M164.65 6.73774L168.87 6.73774L164.608 11.8203L169.115 18.5978L164.767 18.5978L161.816 14.0795L161.092 14.9213L161.092 18.5978L157.319 18.5978L157.319 2.45412L161.092 2.45412L161.092 11.2771L161.166 11.2771L164.65 6.73774Z" fill="white"/>
<path d="M174.847 9.15994C174.244 9.15994 173.736 9.3623 173.323 9.76701C172.911 10.1717 172.68 10.6903 172.631 11.3228L177.042 11.3228C177.006 10.6693 176.79 10.1437 176.392 9.74598C175.987 9.35529 175.472 9.15994 174.847 9.15994ZM180.538 14.86C180.353 16.0751 179.756 17.0413 178.747 17.7587C177.731 18.4832 176.456 18.8458 174.922 18.8458C173.046 18.8458 171.575 18.3027 170.51 17.2156C169.444 16.1285 168.911 14.6297 168.911 12.7182C168.911 10.8077 169.44 9.28696 170.5 8.1578C171.558 7.03565 172.989 6.47414 174.794 6.47414C176.562 6.47414 177.976 7.01025 179.034 8.08334C180.086 9.16344 180.612 10.6053 180.612 12.4099L180.612 13.4856L172.588 13.4856L172.588 13.7204C172.588 14.4448 172.808 15.0309 173.248 15.4785C173.689 15.9331 174.265 16.1609 174.975 16.1609C176.104 16.1609 176.822 15.7273 177.127 14.86L180.538 14.86Z" fill="white"/>
<path d="M186.847 4.12338L186.847 6.74436L188.988 6.74436L188.988 9.53616L186.847 9.53616L186.847 14.5977C186.847 15.429 187.305 15.8442 188.221 15.8442C188.484 15.8442 188.74 15.8267 188.988 15.7916L188.988 18.4766C188.555 18.5764 188.001 18.6255 187.326 18.6255C185.806 18.6255 184.715 18.3697 184.055 17.8581C183.401 17.3544 183.075 16.5196 183.075 15.3545L183.075 9.53616L181.486 9.53616L181.486 6.74436L183.075 6.74436L183.075 4.12338L186.847 4.12338Z" fill="white"/>
<path d="M190.642 6.73938L194.425 6.73938L194.425 18.5995L190.642 18.5995L190.642 6.73938ZM192.528 5.75914C191.988 5.75914 191.533 5.58131 191.164 5.22653C190.781 4.87088 190.589 4.42675 190.589 3.89414C190.589 3.36854 190.781 2.92441 191.164 2.56263C191.533 2.20697 191.988 2.02914 192.528 2.02914C193.068 2.02914 193.526 2.20697 193.903 2.56263C194.286 2.92441 194.478 3.36854 194.478 3.89414C194.478 4.42675 194.286 4.87088 193.903 5.22653C193.533 5.58131 193.075 5.75914 192.528 5.75914Z" fill="white"/>
<path d="M196.345 6.73775L200.01 6.73775L200.01 8.96453L200.085 8.96453C200.739 7.34481 202 6.53539 203.868 6.53539C205.189 6.53539 206.226 6.92959 206.98 7.71799C207.725 8.50638 208.098 9.6005 208.098 11.0003L208.098 18.5979L204.316 18.5979L204.316 11.8098C204.316 11.1212 204.138 10.5842 203.782 10.2006C203.421 9.80987 202.916 9.61452 202.27 9.61452C201.63 9.61452 201.112 9.82826 200.714 10.254C200.316 10.6806 200.117 11.2307 200.117 11.9061L200.117 18.5979L196.345 18.5979L196.345 6.73775Z" fill="white"/>
<path d="M215.707 15.6697C216.418 15.6697 216.975 15.4069 217.379 14.8813C217.792 14.3487 217.998 13.6058 217.998 12.6536C217.998 11.7023 217.792 10.9454 217.379 10.3839C216.968 9.8233 216.41 9.5421 215.707 9.5421C215.004 9.5421 214.449 9.81979 214.045 10.3734C213.633 10.9349 213.426 11.6918 213.426 12.6431C213.426 13.6023 213.628 14.3487 214.034 14.8813C214.439 15.4069 214.997 15.6697 215.707 15.6697ZM215.643 22.9904C213.967 22.9904 212.606 22.6636 211.562 22.0102C210.503 21.3497 209.949 20.4684 209.899 19.3673L213.565 19.3673C213.643 19.701 213.884 19.9708 214.29 20.1767C214.688 20.3764 215.16 20.4754 215.707 20.4754C216.396 20.4754 216.947 20.3125 217.358 19.9857C217.77 19.6511 217.977 19.2 217.977 18.6323L217.977 16.3836L217.902 16.3836C217.661 17.0161 217.217 17.5207 216.57 17.8965C215.917 18.2802 215.156 18.472 214.29 18.472C212.862 18.472 211.721 17.9569 210.869 16.9267C210.003 15.8756 209.569 14.4407 209.569 12.6221C209.569 10.7396 209.995 9.26178 210.848 8.18956C211.7 7.10946 212.869 6.56985 214.354 6.56985C215.192 6.56985 215.934 6.77571 216.581 7.18742C217.206 7.59213 217.657 8.13262 217.934 8.80714L217.998 8.80714L217.998 6.72928L221.759 6.72928L221.759 18.3546C221.759 19.7615 221.201 20.8836 220.086 21.722C218.971 22.5673 217.49 22.9904 215.643 22.9904Z" fill="white"/>
<path d="M54.2754 28.4871L50.9378 28.4871L50.0566 30.9215L49.2585 30.9215L52.2317 22.9753L52.9807 22.9753L55.9494 30.9215L55.1566 30.9215L54.2754 28.4871ZM51.1638 27.838L54.0494 27.838L52.6232 23.9056L52.59 23.9056L51.1638 27.838Z" fill="white"/>
<path d="M61.4731 30.9273L60.5095 30.9273L57.602 28.0251L57.5687 28.0251L57.5687 30.9273L56.8469 30.9273L56.8469 24.9968L57.5687 24.9968L57.5687 27.6669L57.602 27.6669L60.4376 24.9968L61.3627 24.9968L58.3396 27.8158L61.4731 30.9273Z" fill="white"/>
<path d="M66.5388 25.6074L64.5127 25.6074L64.5127 30.9273L63.7917 30.9273L63.7917 25.6074L61.7646 25.6074L61.7646 24.9968L66.5388 24.9968L66.5388 25.6074Z" fill="white"/>
<path d="M67.9277 32.992C67.8024 32.992 67.6815 32.978 67.5641 32.9482L67.5641 32.3263C67.6736 32.3517 67.7937 32.3648 67.9215 32.3648C68.1896 32.3648 68.4086 32.286 68.5768 32.1274C68.7424 31.9733 68.8913 31.7096 69.0236 31.3347L69.1558 30.9659L66.9255 24.9968L67.7069 24.9968L69.5246 30.1897L69.5413 30.1897L71.3633 24.9968L72.1342 24.9968L69.8216 31.2138C69.5649 31.9111 69.3039 32.3815 69.0393 32.6232C68.7791 32.8694 68.4086 32.992 67.9277 32.992Z" fill="white"/>
<path d="M74.7844 30.3597C75.317 30.3597 75.7611 30.2003 76.1176 29.8806C76.4768 29.5652 76.6573 29.1719 76.6573 28.7024L76.6573 28.0471L74.9219 28.168C73.9049 28.2346 73.3968 28.6069 73.3968 29.2858C73.3968 29.6055 73.5256 29.8639 73.7822 30.0628C74.0389 30.2608 74.3735 30.3597 74.7844 30.3597ZM74.6416 30.9983C74.0503 30.9983 73.5711 30.8407 73.2041 30.5253C72.837 30.2056 72.6531 29.7912 72.6531 29.2805C72.6531 28.2486 73.3802 27.6818 74.8343 27.5793L76.6573 27.4576L76.6573 26.9512C76.6573 26.5176 76.5267 26.1821 76.2657 25.9438C76.002 25.7047 75.6306 25.5856 75.1532 25.5856C74.7388 25.5856 74.3954 25.6845 74.1239 25.8825C73.8523 26.0849 73.6832 26.3617 73.6167 26.7147L72.9176 26.7147C72.9474 26.1926 73.1725 25.7669 73.5948 25.4366C74.0135 25.1029 74.5347 24.9356 75.1593 24.9356C75.8382 24.9356 76.3796 25.1116 76.7834 25.4647C77.1837 25.8168 77.3835 26.2925 77.3835 26.8908L77.3835 30.9326L76.6897 30.9326L76.6897 29.7982L76.673 29.7982C76.5118 30.1583 76.2473 30.4482 75.8802 30.6681C75.5097 30.8888 75.0962 30.9983 74.6416 30.9983Z" fill="white"/>
<path d="M80.0816 28.3773C80.015 29.2296 79.8792 29.8533 79.6743 30.2502C79.4202 30.7346 79.0295 30.9773 78.5013 30.9773C78.3795 30.9773 78.2692 30.9589 78.1702 30.9221L78.1702 30.2554C78.2586 30.2852 78.3576 30.2992 78.468 30.2992C78.758 30.2992 78.9778 30.1197 79.1285 29.7596C79.2573 29.4513 79.3449 28.9817 79.3931 28.3501C79.4772 27.4689 79.5542 26.3511 79.6243 24.9968L83.4183 24.9968L83.4183 30.9273L82.6973 30.9273L82.6973 25.6074L80.2796 25.6074C80.2209 26.7383 80.1552 27.6616 80.0816 28.3773Z" fill="white"/>
<path d="M85.5547 27.6283L85.5547 30.3159L86.838 30.3159C87.2716 30.3159 87.6185 30.1932 87.8787 29.9471C88.1362 29.7044 88.2641 29.3803 88.2641 28.9721C88.2641 28.5613 88.1345 28.2345 87.8735 27.9919C87.6168 27.7501 87.2716 27.6283 86.838 27.6283L85.5547 27.6283ZM84.8337 24.9968L85.5547 24.9968L85.5547 27.0116L86.838 27.0116C87.4915 27.0116 88.0127 27.1886 88.4017 27.5407C88.795 27.8964 88.9912 28.3738 88.9912 28.9721C88.9912 29.5669 88.795 30.0426 88.4017 30.3991C88.0127 30.7512 87.4915 30.9273 86.838 30.9273L84.8337 30.9273L84.8337 24.9968Z" fill="white"/>
<path d="M94.1347 28.1522L90.8085 28.1522L90.8085 30.9273L90.0867 30.9273L90.0867 24.9968L90.8085 24.9968L90.8085 27.5407L94.1347 27.5407L94.1347 24.9968L94.8556 24.9968L94.8556 30.9273L94.1347 30.9273L94.1347 28.1522Z" fill="white"/>
<path d="M101.316 24.9968L102.038 24.9968L102.038 30.9273L101.316 30.9273L101.316 24.9968ZM96.9983 27.6283L96.9983 30.3159L98.2816 30.3159C98.7152 30.3159 99.0621 30.1932 99.3223 29.9471C99.5799 29.7044 99.7077 29.3803 99.7077 28.9721C99.7077 28.5613 99.5781 28.2345 99.3171 27.9919C99.0604 27.7501 98.7152 27.6283 98.2816 27.6283L96.9983 27.6283ZM96.2773 24.9968L96.9983 24.9968L96.9983 27.0116L98.2816 27.0116C98.9351 27.0116 99.4563 27.1886 99.8462 27.5407C100.239 27.8964 100.435 28.3738 100.435 28.9721C100.435 29.5669 100.239 30.0426 99.8462 30.3991C99.4563 30.7512 98.9351 30.9273 98.2816 30.9273L96.2773 30.9273L96.2773 24.9968Z" fill="white"/>
<path d="M104.835 22.5236C104.835 22.8538 104.934 23.1219 105.133 23.3277C105.334 23.5362 105.602 23.6413 105.936 23.6413C106.271 23.6413 106.537 23.5362 106.735 23.3277C106.933 23.1219 107.032 22.8538 107.032 22.5236L107.588 22.5236C107.588 22.9966 107.438 23.3768 107.137 23.6632C106.832 23.9532 106.432 24.0986 105.936 24.0986C105.437 24.0986 105.037 23.9532 104.736 23.6632C104.431 23.3768 104.279 22.9966 104.279 22.5236L104.835 22.5236ZM103.458 30.9489L103.458 25.0184L104.18 25.0184L104.18 29.8145L104.213 29.8145L107.583 25.0184L108.304 25.0184L108.304 30.9489L107.583 30.9489L107.583 26.1528L107.545 26.1528L104.18 30.9489L103.458 30.9489Z" fill="white"/>
<path d="M112.22 30.9273L112.22 24.9968L113.084 24.9968L115.43 29.9637L115.463 29.9637L117.803 24.9968L118.641 24.9968L118.641 30.9273L117.914 30.9273L117.914 26.3178L117.88 26.3178L115.711 30.8117L115.144 30.8117L112.974 26.3178L112.941 26.3178L112.941 30.9273L112.22 30.9273Z" fill="white"/>
<path d="M121.951 30.3597C122.482 30.3597 122.927 30.2003 123.283 29.8806C123.643 29.5652 123.823 29.1719 123.823 28.7024L123.823 28.0471L122.088 28.168C121.071 28.2346 120.563 28.6069 120.563 29.2858C120.563 29.6055 120.691 29.8639 120.948 30.0628C121.205 30.2608 121.539 30.3597 121.951 30.3597ZM121.807 30.9983C121.217 30.9983 120.737 30.8407 120.37 30.5253C120.002 30.2056 119.819 29.7912 119.819 29.2805C119.819 28.2486 120.546 27.6818 122 27.5793L123.823 27.4576L123.823 26.9512C123.823 26.5176 123.692 26.1821 123.432 25.9438C123.167 25.7047 122.797 25.5856 122.319 25.5856C121.904 25.5856 121.562 25.6845 121.289 25.8825C121.018 26.0849 120.849 26.3617 120.783 26.7147L120.084 26.7147C120.113 26.1926 120.339 25.7669 120.761 25.4366C121.18 25.1029 121.701 24.9356 122.325 24.9356C123.004 24.9356 123.546 25.1116 123.95 25.4647C124.35 25.8168 124.55 26.2925 124.55 26.8908L124.55 30.9326L123.856 30.9326L123.856 29.7982L123.839 29.7982C123.678 30.1583 123.414 30.4482 123.047 30.6681C122.675 30.8888 122.262 30.9983 121.807 30.9983Z" fill="white"/>
<path d="M128.659 24.9356C129.408 24.9356 130.016 25.215 130.487 25.773C130.953 26.331 131.186 27.0616 131.186 27.9648C131.186 28.8679 130.953 29.6002 130.487 30.1618C130.024 30.7198 129.418 30.9983 128.669 30.9983C128.203 30.9983 127.788 30.8792 127.424 30.6409C127.072 30.4132 126.812 30.1031 126.643 29.7097L126.626 29.7097L126.626 32.8765L125.899 32.8765L125.899 25.0021L126.588 25.0021L126.588 26.2294L126.604 26.2294C126.762 25.8484 127.027 25.5374 127.397 25.2991C127.776 25.0565 128.196 24.9356 128.659 24.9356ZM128.532 30.3431C129.104 30.3431 129.567 30.1267 129.919 29.694C130.268 29.2569 130.442 28.6822 130.442 27.97C130.442 27.2578 130.268 26.6814 129.919 26.2408C129.567 25.8037 129.104 25.5856 128.532 25.5856C127.967 25.5856 127.507 25.8054 127.154 26.2461C126.799 26.6902 126.621 27.2631 126.621 27.9648C126.621 28.6691 126.799 29.242 127.154 29.6826C127.507 30.1232 127.967 30.3431 128.532 30.3431Z" fill="white"/>
<path d="M136.934 30.9273L135.971 30.9273L133.063 28.0251L133.03 28.0251L133.03 30.9273L132.308 30.9273L132.308 24.9968L133.03 24.9968L133.03 27.6669L133.063 27.6669L135.899 24.9968L136.824 24.9968L133.801 27.8158L136.934 30.9273Z" fill="white"/>
<path d="M139.975 25.5803C139.443 25.5803 139.006 25.7616 138.665 26.1252C138.32 26.4852 138.13 26.96 138.097 27.5513L141.787 27.5513C141.78 26.96 141.611 26.4852 141.28 26.1252C140.947 25.7616 140.511 25.5803 139.975 25.5803ZM142.47 29.2534C142.382 29.7632 142.113 30.1802 141.666 30.5034C141.215 30.8337 140.669 30.9983 140.03 30.9983C139.208 30.9983 138.554 30.7285 138.07 30.1889C137.585 29.6458 137.343 28.91 137.343 27.9805C137.343 27.0599 137.584 26.3214 138.065 25.7669C138.549 25.2133 139.189 24.9356 139.987 24.9356C140.764 24.9356 141.387 25.1966 141.853 25.7178C142.316 26.2426 142.547 26.946 142.547 27.8264L142.547 28.1461L138.097 28.1461L138.097 28.1846C138.097 28.853 138.276 29.3813 138.631 29.7711C138.984 30.16 139.456 30.3545 140.047 30.3545C140.484 30.3545 140.856 30.252 141.165 30.0461C141.466 29.8482 141.661 29.5836 141.748 29.2534L142.47 29.2534Z" fill="white"/>
<path d="M147.843 25.6074L145.817 25.6074L145.817 30.9273L145.095 30.9273L145.095 25.6074L143.069 25.6074L143.069 24.9968L147.843 24.9968L147.843 25.6074Z" fill="white"/>
<path d="M148.775 30.9273L148.775 24.9968L149.496 24.9968L149.496 29.7929L149.529 29.7929L152.899 24.9968L153.621 24.9968L153.621 30.9273L152.899 30.9273L152.899 26.1312L152.861 26.1312L149.496 30.9273L148.775 30.9273Z" fill="white"/>
<path d="M159.085 28.1522L155.758 28.1522L155.758 30.9273L155.037 30.9273L155.037 24.9968L155.758 24.9968L155.758 27.5407L159.085 27.5407L159.085 24.9968L159.806 24.9968L159.806 30.9273L159.085 30.9273L159.085 28.1522Z" fill="white"/>
<path d="M161.947 25.6074L161.947 30.9273L161.226 30.9273L161.226 24.9968L164.987 24.9968L164.987 25.6074L161.947 25.6074Z" fill="white"/>
<path d="M168.552 30.9273L168.552 24.9968L169.272 24.9968L169.272 29.7929L169.306 29.7929L172.676 24.9968L173.398 24.9968L173.398 30.9273L172.676 30.9273L172.676 26.1312L172.637 26.1312L169.272 30.9273L168.552 30.9273Z" fill="white"/>
<path d="M181.304 25.6074L178.033 25.6074L178.033 30.9273L177.311 30.9273L177.311 24.9968L182.025 24.9968L182.025 30.9273L181.304 30.9273L181.304 25.6074Z" fill="white"/>
<path d="M186.206 24.9356C186.955 24.9356 187.564 25.215 188.034 25.773C188.5 26.331 188.733 27.0616 188.733 27.9648C188.733 28.8679 188.5 29.6002 188.034 30.1618C187.572 30.7198 186.966 30.9983 186.217 30.9983C185.751 30.9983 185.335 30.8792 184.972 30.6409C184.62 30.4132 184.36 30.1031 184.19 29.7097L184.174 29.7097L184.174 32.8765L183.447 32.8765L183.447 25.0021L184.135 25.0021L184.135 26.2294L184.152 26.2294C184.31 25.8484 184.574 25.5374 184.945 25.2991C185.323 25.0565 185.743 24.9356 186.206 24.9356ZM186.079 30.3431C186.652 30.3431 187.115 30.1267 187.467 29.694C187.815 29.2569 187.99 28.6822 187.99 27.97C187.99 27.2578 187.815 26.6814 187.467 26.2408C187.115 25.8037 186.652 25.5856 186.079 25.5856C185.514 25.5856 185.055 25.8054 184.702 26.2461C184.346 26.6902 184.169 27.2631 184.169 27.9648C184.169 28.6691 184.346 29.242 184.702 29.6826C185.055 30.1232 185.514 30.3431 186.079 30.3431Z" fill="white"/>
<path d="M192.252 30.9983C191.437 30.9983 190.785 30.7233 190.297 30.1723C189.805 29.6257 189.559 28.8898 189.559 27.9648C189.559 27.0432 189.805 26.3065 190.297 25.7564C190.785 25.2089 191.437 24.9356 192.252 24.9356C193.071 24.9356 193.724 25.2089 194.212 25.7564C194.705 26.3065 194.95 27.0432 194.95 27.9648C194.95 28.8863 194.705 29.6221 194.212 30.1723C193.724 30.7233 193.071 30.9983 192.252 30.9983ZM192.252 30.3431C192.858 30.3431 193.335 30.132 193.683 29.7097C194.033 29.284 194.207 28.7024 194.207 27.9648C194.207 27.2263 194.033 26.6446 193.683 26.2189C193.335 25.7967 192.858 25.5856 192.252 25.5856C191.65 25.5856 191.174 25.7967 190.826 26.2189C190.477 26.6446 190.303 27.2263 190.303 27.9648C190.303 28.7024 190.477 29.284 190.826 29.7097C191.174 30.132 191.65 30.3431 192.252 30.3431Z" fill="white"/>
<path d="M200.128 25.6074L197.551 25.6074C197.496 26.6577 197.427 27.581 197.347 28.3773C197.27 29.3067 197.092 29.9418 196.812 30.2826L196.812 30.3159L200.128 30.3159L200.128 25.6074ZM195.469 32.4971L195.469 30.3159L195.948 30.3159C196.345 30.0592 196.585 29.404 196.669 28.3501C196.779 26.9915 196.856 25.8737 196.901 24.9968L200.854 24.9968L200.854 30.3159L201.812 30.3159L201.812 32.4971L201.13 32.4971L201.13 30.9273L196.152 30.9273L196.152 32.4971L195.469 32.4971Z" fill="white"/>
<path d="M204.598 30.3597C205.131 30.3597 205.575 30.2003 205.931 29.8806C206.291 29.5652 206.47 29.1719 206.47 28.7024L206.47 28.0471L204.736 28.168C203.719 28.2346 203.211 28.6069 203.211 29.2858C203.211 29.6055 203.34 29.8639 203.596 30.0628C203.853 30.2608 204.187 30.3597 204.598 30.3597ZM204.456 30.9983C203.864 30.9983 203.385 30.8407 203.018 30.5253C202.651 30.2056 202.467 29.7912 202.467 29.2805C202.467 28.2486 203.194 27.6818 204.648 27.5793L206.47 27.4576L206.47 26.9512C206.47 26.5176 206.341 26.1821 206.08 25.9438C205.815 25.7047 205.445 25.5856 204.967 25.5856C204.553 25.5856 204.209 25.6845 203.938 25.8825C203.666 26.0849 203.497 26.3617 203.431 26.7147L202.732 26.7147C202.761 26.1926 202.987 25.7669 203.409 25.4366C203.827 25.1029 204.349 24.9356 204.973 24.9356C205.652 24.9356 206.194 25.1116 206.597 25.4647C206.998 25.8168 207.197 26.2925 207.197 26.8908L207.197 30.9326L206.504 30.9326L206.504 29.7982L206.487 29.7982C206.326 30.1583 206.061 30.4482 205.694 30.6681C205.324 30.8888 204.91 30.9983 204.456 30.9983Z" fill="white"/>
<path d="M215.982 30.9273L215.023 30.9273L212.364 28.0251L212.33 28.0251L212.33 30.9273L211.609 30.9273L211.609 28.0251L211.576 28.0251L208.917 30.9273L207.98 30.9273L210.849 27.8324L208.069 24.9968L208.988 24.9968L211.576 27.6669L211.609 27.6669L211.609 24.9968L212.33 24.9968L212.33 27.6669L212.364 27.6669L214.952 24.9968L215.866 24.9968L213.096 27.8158L215.982 30.9273Z" fill="white"/>
<path d="M216.836 30.9273L216.836 24.9968L217.558 24.9968L217.558 29.7929L217.591 29.7929L220.961 24.9968L221.683 24.9968L221.683 30.9273L220.961 30.9273L220.961 26.1312L220.922 26.1312L217.558 30.9273L216.836 30.9273Z" fill="white"/>
<path fill-rule="evenodd" clip-rule="evenodd" d="M28.137 20.8712L28.2228 20.5277L30.7131 28.1701L30.4125 28.5995L30.4125 28.5566L30.3267 28.7283C23.1565 38.2599 7.95749 36.4137 2.333 26.7103C-3.63497 16.4059 2.41887 2.79552 14.0972 0.348228C15.2994 0.133553 16.5445 0.00474545 17.7896 0.00474545C23.3282 0.00474543 29.1674 2.40911 32.1299 7.26077L34.4484 0.949318L41.6615 0.949318L36.2088 16.1054L39.7294 25.8946C40.1158 26.8821 41.1892 27.4402 42.1767 27.1826L42.4773 27.0968L44.4094 33.58L42.0909 34.181C38.7849 34.9968 35.393 33.3223 34.1479 30.1452C33.8473 29.587 33.5468 28.9859 33.3321 28.3419L32.0441 24.95L31.9582 24.8212L31.9582 24.7783L29.0815 16.0625C27.4929 11.2537 24.5304 8.93524 22.169 7.99067C20.8809 7.38957 19.4212 7.08903 17.8755 7.08903C11.9075 7.08903 7.09879 11.8548 7.09879 17.694C7.09879 23.5332 11.9075 28.2989 17.8755 28.2989C22.6842 28.2989 26.763 25.1647 28.137 20.8712Z" fill="url(#paint0_linear_11_32)"/>
<defs>
<linearGradient id="paint0_linear_11_32" x1="0.0574407" y1="0.494207" x2="42.9925" y2="0.494207" gradientUnits="userSpaceOnUse">
<stop stop-color="#7A5FFF"/>
<stop offset="1" stop-color="#00E824"/>
</linearGradient>
</defs>
</svg>
