<svg width="14" height="23" viewBox="0 0 14 23" fill="none" xmlns="http://www.w3.org/2000/svg">
<path d="M6.75116 15.7368C6.25355 15.7368 5.8339 15.5653 5.49221 15.2224C5.15052 14.8794 4.99999 14.4759 5.04063 14.0118C5.10283 13.1645 5.31017 12.4281 5.66264 11.8026C6.01512 11.1772 6.57493 10.5316 7.34208 9.86579C8.19216 9.13947 8.8403 8.50879 9.28649 7.97374C9.73268 7.43868 9.95536 6.82858 9.95453 6.14342C9.95453 5.31623 9.66965 4.63026 9.09988 4.08553C8.53012 3.54079 7.73685 3.26842 6.72006 3.26842C6.05658 3.26842 5.49138 3.40481 5.02446 3.67758C4.55754 3.95035 4.17935 4.28809 3.88991 4.69079C3.59964 5.0943 3.24219 5.36667 2.81756 5.50789C2.39293 5.64912 1.98323 5.63904 1.58846 5.47763C1.11159 5.27588 0.785238 4.94298 0.609416 4.47895C0.433593 4.01491 0.469671 3.58114 0.717646 3.17763C1.31892 2.26974 2.12754 1.51316 3.14349 0.907895C4.15945 0.302632 5.35164 0 6.72006 0C8.89711 0 10.5716 0.58993 11.7434 1.76979C12.9153 2.94965 13.5008 4.36718 13.5 6.02237C13.5 7.03114 13.2773 7.89384 12.832 8.61047C12.3866 9.3271 11.6866 10.139 10.732 11.0461C10.0271 11.6917 9.52949 12.2162 9.23921 12.6197C8.94894 13.0232 8.75197 13.4873 8.6483 14.0118C8.56537 14.5162 8.34766 14.9298 7.99519 15.2526C7.64272 15.5754 7.22804 15.7368 6.75116 15.7368ZM6.72006 23C6.03585 23 5.44991 22.7627 4.96226 22.2882C4.4746 21.8137 4.23119 21.2439 4.23202 20.5789C4.23202 19.9132 4.47584 19.343 4.9635 18.8685C5.45116 18.3939 6.03668 18.1571 6.72006 18.1579C7.40428 18.1579 7.99021 18.3952 8.47787 18.8697C8.96553 19.3442 9.20894 19.914 9.20811 20.5789C9.20811 21.2447 8.96428 21.8149 8.47663 22.2894C7.98897 22.7639 7.40345 23.0008 6.72006 23Z" fill="#F8EDFF"/>
</svg>
