<svg width="25" height="24" viewBox="0 0 25 24" fill="none" xmlns="http://www.w3.org/2000/svg">
<path d="M20.2667 21L13.9667 14.7C13.4667 15.1 12.8917 15.4167 12.2417 15.65C11.5917 15.8833 10.9001 16 10.1667 16C8.35008 16 6.81275 15.3707 5.55475 14.112C4.29675 12.8533 3.66741 11.316 3.66675 9.5C3.66675 7.68333 4.29608 6.146 5.55475 4.888C6.81341 3.63 8.35075 3.00067 10.1667 3C11.9834 3 13.5207 3.62933 14.7787 4.888C16.0367 6.14667 16.6661 7.684 16.6667 9.5C16.6667 10.2333 16.5501 10.925 16.3167 11.575C16.0834 12.225 15.7667 12.8 15.3667 13.3L21.6667 19.6L20.2667 21ZM10.1667 14C11.4167 14 12.4794 13.5623 13.3547 12.687C14.2301 11.8117 14.6674 10.7493 14.6667 9.5C14.6667 8.25 14.2291 7.18733 13.3537 6.312C12.4784 5.43667 11.4161 4.99933 10.1667 5C8.91675 5 7.85408 5.43767 6.97875 6.313C6.10341 7.18833 5.66608 8.25067 5.66675 9.5C5.66675 10.75 6.10441 11.8127 6.97975 12.688C7.85508 13.5633 8.91741 14.0007 10.1667 14Z" fill="white"/>
</svg>
