<svg width="14" height="8" viewBox="0 0 14 8" fill="none" xmlns="http://www.w3.org/2000/svg">
<path d="M6.87617 7.91211C6.7255 7.91211 6.57972 7.88539 6.43884 7.83196C6.29721 7.77852 6.17931 7.70727 6.08514 7.61822L0.886934 2.70219C0.679759 2.50626 0.576172 2.25689 0.576172 1.95409C0.576172 1.65129 0.679759 1.40193 0.886934 1.206C1.09411 1.01007 1.35779 0.912109 1.67797 0.912109C1.99814 0.912109 2.26182 1.01007 2.469 1.206L6.87617 5.37394L11.2833 1.206C11.4905 1.01007 11.7542 0.912109 12.0744 0.912109C12.3946 0.912109 12.6582 1.01007 12.8654 1.206C13.0726 1.40193 13.1762 1.65129 13.1762 1.95409C13.1762 2.25689 13.0726 2.50626 12.8654 2.70219L7.6672 7.61822C7.5542 7.72509 7.43178 7.80061 7.29994 7.84478C7.1681 7.88967 7.02684 7.91211 6.87617 7.91211Z" fill="#787774"/>
</svg>
