<svg width="20" height="21" viewBox="0 0 20 21" fill="none" xmlns="http://www.w3.org/2000/svg">
<path d="M19 19.4121L17.2 17.6121M9.55 18.5121C10.6728 18.5121 11.7846 18.291 12.8219 17.8613C13.8593 17.4316 14.8018 16.8018 15.5958 16.0079C16.3897 15.2139 17.0195 14.2714 17.4492 13.2341C17.8788 12.1967 18.1 11.0849 18.1 9.96211C18.1 8.83931 17.8788 7.7275 17.4492 6.69017C17.0195 5.65283 16.3897 4.71029 15.5958 3.91635C14.8018 3.12241 13.8593 2.49262 12.8219 2.06294C11.7846 1.63326 10.6728 1.41211 9.55 1.41211C7.2824 1.41211 5.10767 2.31291 3.50424 3.91635C1.9008 5.51978 1 7.69451 1 9.96211C1 12.2297 1.9008 14.4044 3.50424 16.0079C5.10767 17.6113 7.2824 18.5121 9.55 18.5121Z" stroke="#787774" stroke-width="1.5" stroke-linecap="round" stroke-linejoin="round"/>
</svg>
