<svg width="28" height="28" viewBox="0 0 28 28" fill="none" xmlns="http://www.w3.org/2000/svg">
<path d="M14 -0.00390625C6.26801 -0.00390625 0 6.26411 0 13.9961C0 21.7281 6.26801 27.9961 14 27.9961C21.732 27.9961 28 21.7281 28 13.9961C27.991 6.26784 21.7283 0.00509431 14 -0.00390625Z" fill="#5243C2" fill-opacity="0.15"/>
<path d="M22.0811 9.56321L14.0953 20.4004C13.9048 20.6531 13.6208 20.8186 13.3071 20.8599C12.9934 20.9011 12.6762 20.8146 12.4269 20.6197L6.72426 16.0604C6.22104 15.6577 6.13955 14.9233 6.54226 14.42C6.94497 13.9168 7.67937 13.8353 8.18259 14.238L12.9379 18.0425L20.2028 8.18304C20.441 7.82556 20.8564 7.62792 21.284 7.66858C21.7117 7.70925 22.0824 7.98164 22.249 8.37761C22.4156 8.77358 22.3511 9.22906 22.0811 9.56321Z" fill="#BB6BD9"/>
</svg>
