<svg width="89" height="70" viewBox="0 0 89 70" fill="none" xmlns="http://www.w3.org/2000/svg">
<path d="M33.1484 25.6897C34.9081 28.8397 36.6678 32.1997 38.4274 35.3497C40.7736 31.9897 43.1199 28.4197 45.4661 25.0597C49.3764 25.0597 53.2868 25.0597 57.1971 25.0597" stroke="#073D37" stroke-width="3" stroke-miterlimit="10" stroke-linecap="round" stroke-linejoin="round"/>
<path d="M56.415 45.6396C58.1747 47.7396 59.9344 49.8396 61.4985 51.9396C63.2582 49.6296 65.0178 47.5296 66.582 45.2196C69.9058 45.2196 73.0341 45.2196 76.3579 45.2196" stroke="#073D37" stroke-width="3" stroke-miterlimit="10" stroke-linecap="round" stroke-linejoin="round"/>
<path d="M11.6414 46.6897C13.401 48.9997 15.1607 51.3097 16.9203 53.6197C18.68 51.0997 20.6352 48.7897 22.3948 46.2697C25.7186 46.2697 29.238 46.2697 32.5618 46.2697" stroke="#073D37" stroke-width="3" stroke-miterlimit="10" stroke-linecap="round" stroke-linejoin="round"/>
<path d="M46.2481 67.8997C35.2991 67.8997 24.3501 68.1097 13.4011 68.1097" stroke="#073D37" stroke-width="3" stroke-miterlimit="10" stroke-linecap="round" stroke-linejoin="round"/>
<path d="M27.6738 35.9796C32.3663 25.2696 37.2542 14.5596 41.9466 3.63964C43.1197 1.11964 46.4435 1.11964 47.6167 3.42964C52.3091 13.0896 57.197 22.7496 61.8895 32.6196" stroke="#073D37" stroke-width="3" stroke-miterlimit="10" stroke-linecap="round" stroke-linejoin="round"/>
<path d="M46.6392 67.8996C52.7002 54.4596 58.5658 40.8096 64.6268 27.3696C65.2134 25.8996 67.1685 25.8996 67.7551 27.3696L87.5024 67.8996H46.6392Z" stroke="#073D37" stroke-width="3" stroke-miterlimit="10" stroke-linecap="round" stroke-linejoin="round"/>
<path d="M2.25659 68.1096C8.12213 54.6696 13.9877 41.4396 20.0487 27.9996C20.8308 26.3196 22.9815 26.3196 23.7636 27.9996L43.3154 67.8996L2.25659 68.1096Z" stroke="#073D37" stroke-width="3" stroke-miterlimit="10" stroke-linecap="round" stroke-linejoin="round"/>
</svg>
