<svg width="80" height="90" viewBox="0 0 80 90" fill="none" xmlns="http://www.w3.org/2000/svg">
<path d="M12.0366 75.2872C29.6165 70.2875 47.1964 65.1093 64.7763 60.1096C65.2514 62.4309 65.8849 64.9307 66.36 67.252C48.9385 72.4302 31.3586 77.4299 13.9371 82.6081C13.3036 80.2869 12.6701 77.787 12.0366 75.2872Z" stroke="#073D37" stroke-width="3" stroke-miterlimit="10" stroke-linecap="round" stroke-linejoin="round"/>
<path d="M20.7474 69.5732C17.8967 68.859 15.0459 68.1448 12.1951 67.4305C12.8286 65.1093 13.4621 62.9665 13.9372 60.6453C21.8561 63.1451 29.9333 65.6449 37.8522 67.9662" stroke="#073D37" stroke-width="3" stroke-miterlimit="10" stroke-linejoin="round"/>
<path d="M57.6492 72.6088C60.5 73.5016 63.5092 74.3944 66.36 75.1086C65.7265 77.2513 65.0929 79.5726 64.6178 81.7153C56.0654 79.5726 47.5131 77.4299 38.9607 75.1086" stroke="#073D37" stroke-width="3" stroke-miterlimit="10" stroke-linecap="round" stroke-linejoin="round"/>
<path d="M34.5262 58.8597C28.0327 59.7525 21.6976 56.717 18.53 51.0031C14.4122 43.6821 15.996 32.79 22.9646 26.5404C22.8062 27.0761 21.856 31.183 24.2316 34.9327C26.7657 38.861 31.0419 38.861 31.3586 38.861" stroke="#073D37" stroke-width="3" stroke-miterlimit="10" stroke-linecap="round" stroke-linejoin="round"/>
<path d="M30.4085 32.79C30.4085 30.1116 30.7252 24.7548 33.576 18.8623C37.3771 11.3628 43.0787 7.97016 45.1376 6.8988C44.8208 7.97016 39.5944 24.0405 47.5132 34.0399C48.6219 35.4684 50.5224 37.4325 53.3732 38.861C53.8483 38.1468 54.9569 36.3612 55.1153 34.0399C55.5905 29.7544 53.0564 26.7189 52.7397 26.3618C59.2331 28.8617 63.5093 35.2898 63.6677 42.2536C63.8261 50.8245 57.3326 58.6811 48.7802 59.5739C49.8889 57.9669 50.364 56.3599 50.5224 55.2885C51.3143 49.0389 46.2462 41.8965 37.6938 37.4325C40.5446 41.8965 39.1192 47.6104 36.2684 49.2175C33.576 50.6459 29.1415 49.0389 27.3993 44.2178C27.2409 45.1106 26.7658 47.6104 27.7161 50.4674C28.3496 52.253 29.1415 53.3243 29.775 54.0386" stroke="#073D37" stroke-width="3" stroke-miterlimit="10" stroke-linecap="round" stroke-linejoin="round"/>
</svg>
