<svg width="86" height="86" viewBox="0 0 86 86" fill="none" xmlns="http://www.w3.org/2000/svg">
<g clip-path="url(#clip0_5_112)">
<path d="M74.7649 29.8397C74.7649 45.9897 74.9349 62.3097 74.9349 78.4597C67.6249 74.7197 60.3149 70.9797 52.8349 67.2397C45.5249 70.9797 38.3849 74.5497 31.0749 78.2897C23.7649 74.5497 16.4549 70.8097 8.97485 67.0697C8.97485 50.7497 8.97485 34.4297 8.97485 17.9397C16.2849 21.6797 23.5949 25.2497 30.9049 28.9897C38.0449 25.5897 45.3549 22.0197 52.4949 18.6197" stroke="#073D37" stroke-width="3" stroke-miterlimit="10" stroke-linejoin="round"/>
<path d="M52.835 25.4197C52.835 32.3897 52.835 39.5297 52.835 46.4997" stroke="#073D37" stroke-width="3" stroke-miterlimit="10" stroke-linejoin="round"/>
<path d="M53.0049 53.9797C53.0049 58.3997 53.0049 62.9897 53.0049 67.4097" stroke="#073D37" stroke-width="3" stroke-miterlimit="10" stroke-linejoin="round"/>
<path d="M75.2749 24.0596C76.6349 22.1896 77.4849 19.9796 77.4849 17.4296C77.4849 11.1396 72.3849 5.86963 65.9249 5.86963C58.7849 5.86963 54.7049 12.4996 54.5349 17.4296C54.5349 17.7696 54.5349 19.6396 55.3849 21.6796C55.5549 22.1896 55.8949 22.6996 56.2349 23.2096" stroke="#073D37" stroke-width="3" stroke-miterlimit="10" stroke-linejoin="round"/>
<path d="M56.0649 23.2097C59.2949 27.9697 62.3549 32.7297 65.5849 37.4897C68.9849 32.7297 72.3849 27.9697 75.7849 23.2097" stroke="#073D37" stroke-width="3" stroke-miterlimit="10" stroke-linejoin="round"/>
<path d="M66.0949 22.3597C68.6299 22.3597 70.6849 20.3047 70.6849 17.7697C70.6849 15.2347 68.6299 13.1797 66.0949 13.1797C63.5599 13.1797 61.5049 15.2347 61.5049 17.7697C61.5049 20.3047 63.5599 22.3597 66.0949 22.3597Z" stroke="#073D37" stroke-width="3" stroke-miterlimit="10" stroke-linejoin="round"/>
<path d="M17.6448 52.1097C19.8548 54.3197 22.0648 56.5297 24.2748 58.7397" stroke="#073D37" stroke-width="3" stroke-miterlimit="10" stroke-linejoin="round"/>
<path d="M24.2748 52.1097C22.0648 54.3197 19.8548 56.5297 17.6448 58.7397" stroke="#073D37" stroke-width="3" stroke-miterlimit="10" stroke-linejoin="round"/>
<path d="M64.9049 42.7596C64.3949 43.6096 64.0549 44.2896 63.5449 45.1396" stroke="#073D37" stroke-width="3" stroke-miterlimit="10" stroke-linejoin="round"/>
<path d="M61.3349 47.8597C59.8049 48.5397 58.2749 49.2197 56.7449 49.8997" stroke="#073D37" stroke-width="3" stroke-miterlimit="10" stroke-linejoin="round"/>
<path d="M53.6848 50.5797C51.9848 50.0697 50.2848 49.5597 48.4148 49.2197" stroke="#073D37" stroke-width="3" stroke-miterlimit="10" stroke-linejoin="round"/>
<path d="M45.3548 48.0297C43.8248 47.1797 42.2948 46.1597 40.9348 45.3097" stroke="#073D37" stroke-width="3" stroke-miterlimit="10" stroke-linejoin="round"/>
<path d="M38.2148 43.9497C36.6848 43.0997 35.1548 42.2497 33.6248 41.3997" stroke="#073D37" stroke-width="3" stroke-miterlimit="10" stroke-linejoin="round"/>
<path d="M30.2248 41.0597C28.5248 41.0597 26.6548 41.2297 24.9548 41.2297" stroke="#073D37" stroke-width="3" stroke-miterlimit="10" stroke-linejoin="round"/>
<path d="M22.9148 43.6097C22.2348 45.1397 21.5548 46.8397 20.8748 48.3697" stroke="#073D37" stroke-width="3" stroke-miterlimit="10" stroke-linejoin="round"/>
<path d="M31.075 45.1396C31.075 56.1896 31.075 67.4097 31.245 78.4597" stroke="#073D37" stroke-width="3" stroke-miterlimit="10" stroke-linejoin="round"/>
<path d="M31.075 29.1597C31.075 31.7097 31.075 36.9797 31.075 36.9797" stroke="#073D37" stroke-width="3" stroke-miterlimit="10" stroke-linejoin="round"/>
</g>
<defs>
<clipPath id="clip0_5_112">
<rect width="85" height="85" fill="white" transform="translate(0.474854 0.429688)"/>
</clipPath>
</defs>
</svg>
