<svg xmlns="http://www.w3.org/2000/svg" viewBox="0 0 16 16" width="16px" height="16px"><path d="M1.72 11.72c0.04,-0.54 0.09,-1.4 0.18,-2.87 0.09,-1.46 0.21,-3.54 0.29,-4.64 0.07,-1.1 0.09,-1.23 0.12,-1.35 0.03,-0.13 0.08,-0.26 0.14,-0.4 0.06,-0.14 0.13,-0.28 0.22,-0.42 0.08,-0.13 0.18,-0.25 0.28,-0.36 0.11,-0.12 0.22,-0.22 0.33,-0.3 0.1,-0.09 0.19,-0.15 0.3,-0.21 0.1,-0.06 0.22,-0.11 0.35,-0.16 0.13,-0.05 0.27,-0.09 0.38,-0.12 0.11,-0.03 0.19,-0.05 0.35,-0.05 0.15,-0.02 0.38,-0.02 1.49,-0.02 1.11,-0.01 3.1,-0.01 4.14,0 1.04,0 1.13,0.01 1.24,0.03 0.11,0.02 0.24,0.06 0.37,0.1 0.13,0.04 0.25,0.08 0.36,0.14 0.1,0.05 0.2,0.1 0.28,0.15 0.09,0.06 0.17,0.12 0.26,0.2 0.09,0.07 0.18,0.16 0.26,0.25 0.09,0.08 0.15,0.16 0.22,0.27 0.07,0.1 0.15,0.23 0.2,0.34 0.06,0.11 0.1,0.2 0.13,0.29 0.04,0.09 0.06,0.18 0.08,0.26 0.02,0.09 0.04,0.17 0.05,0.26 0.02,0.09 0.03,0.2 0.03,0.31 0.01,0.1 0.02,0.21 0.12,1.83 0.09,1.62 0.28,4.75 0.38,6.39 0.1,1.63 0.11,1.76 0.11,1.87 0,0.11 0,0.2 -0.01,0.29 -0.01,0.1 -0.03,0.19 -0.06,0.29 -0.03,0.09 -0.08,0.19 -0.12,0.28 -0.05,0.09 -0.1,0.16 -0.16,0.24 -0.06,0.07 -0.14,0.15 -0.22,0.22 -0.08,0.06 -0.16,0.12 -0.24,0.16 -0.09,0.05 -0.18,0.09 -0.25,0.11 -0.07,0.03 -0.12,0.04 -0.19,0.05 -0.07,0.02 -0.16,0.03 -0.23,0.03 -0.07,0.01 -0.13,0.01 -0.21,0 -0.07,-0.01 -0.17,-0.02 -0.26,-0.05 -0.1,-0.02 -0.19,-0.06 -0.28,-0.1 -0.09,-0.04 -0.17,-0.09 -0.28,-0.17 -0.11,-0.07 -0.24,-0.17 -0.89,-0.65 -0.65,-0.48 -1.81,-1.34 -2.4,-1.77 -0.58,-0.43 -0.58,-0.43 -0.58,-0.43 0,0 0,0 -0.62,0.46 -0.63,0.46 -1.88,1.39 -2.55,1.88 -0.68,0.5 -0.77,0.56 -0.86,0.62 -0.09,0.05 -0.17,0.09 -0.25,0.12 -0.07,0.03 -0.14,0.05 -0.22,0.06 -0.08,0.02 -0.17,0.03 -0.26,0.03 -0.1,0 -0.2,0 -0.3,-0.02 -0.1,-0.01 -0.2,-0.04 -0.29,-0.07 -0.1,-0.04 -0.19,-0.08 -0.27,-0.13 -0.08,-0.04 -0.14,-0.09 -0.22,-0.16 -0.07,-0.07 -0.16,-0.16 -0.23,-0.24 -0.06,-0.09 -0.11,-0.17 -0.15,-0.24 -0.04,-0.08 -0.06,-0.14 -0.08,-0.2 -0.02,-0.05 -0.04,-0.1 -0.05,-0.15 -0.01,-0.05 -0.02,-0.1 -0.02,-0.16 -0.01,-0.06 -0.02,-0.12 -0.01,-0.22 0,-0.09 0,-0.22 0.01,-0.38 0.01,-0.15 0.02,-0.33 0.04,-0.53 0.01,-0.2 0.02,-0.42 0.05,-0.96z" fill="none" stroke="#475569" stroke-width="1"></path></svg>