<svg width="273" height="185" viewBox="0 0 273 185" fill="none" xmlns="http://www.w3.org/2000/svg">
<rect y="-0.000976562" width="273" height="185" rx="30" fill="url(#paint0_linear_1_2266)"/>
<path d="M120.296 159.509H122.896C123.529 159.509 124.029 159.552 124.396 159.639C124.769 159.726 125.039 159.879 125.206 160.099C125.379 160.312 125.466 160.612 125.466 160.999V162.229C125.466 162.656 125.372 162.989 125.186 163.229C125.006 163.469 124.716 163.639 124.316 163.739C123.922 163.839 123.389 163.889 122.716 163.889H121.856V165.999H120.296V159.509ZM122.846 162.819C123.252 162.819 123.539 162.772 123.706 162.679C123.872 162.579 123.956 162.412 123.956 162.179V161.139C123.956 160.926 123.876 160.786 123.716 160.719C123.562 160.652 123.266 160.619 122.826 160.619H121.856V162.819H122.846ZM128.825 166.099C128.525 166.099 128.279 166.089 128.085 166.069C127.892 166.049 127.685 166.009 127.465 165.949C127.225 165.882 127.032 165.789 126.885 165.669C126.739 165.542 126.615 165.366 126.515 165.139C126.415 164.919 126.365 164.652 126.365 164.339V162.909C126.365 162.589 126.415 162.309 126.515 162.069C126.615 161.829 126.745 161.642 126.905 161.509C127.045 161.396 127.229 161.302 127.455 161.229C127.689 161.149 127.915 161.099 128.135 161.079C128.389 161.066 128.619 161.059 128.825 161.059C129.132 161.059 129.375 161.069 129.555 161.089C129.742 161.102 129.945 161.142 130.165 161.209C130.405 161.282 130.599 161.382 130.745 161.509C130.899 161.636 131.029 161.816 131.135 162.049C131.235 162.289 131.285 162.576 131.285 162.909V164.339C131.285 164.639 131.235 164.902 131.135 165.129C131.042 165.356 130.919 165.532 130.765 165.659C130.632 165.772 130.449 165.866 130.215 165.939C129.989 166.006 129.765 166.049 129.545 166.069C129.345 166.089 129.105 166.099 128.825 166.099ZM128.825 165.189C129.099 165.189 129.305 165.169 129.445 165.129C129.585 165.082 129.682 165.012 129.735 164.919C129.795 164.826 129.825 164.689 129.825 164.509V162.679C129.825 162.412 129.755 162.226 129.615 162.119C129.475 162.012 129.212 161.959 128.825 161.959C128.439 161.959 128.175 162.012 128.035 162.119C127.895 162.226 127.825 162.412 127.825 162.679V164.509C127.825 164.689 127.852 164.826 127.905 164.919C127.965 165.012 128.065 165.082 128.205 165.129C128.345 165.169 128.552 165.189 128.825 165.189ZM134.783 166.099C134.53 166.099 134.33 166.092 134.183 166.079C134.037 166.072 133.857 166.056 133.643 166.029C133.43 166.002 133.253 165.956 133.113 165.889C132.98 165.822 132.84 165.722 132.693 165.589C132.42 165.362 132.283 164.976 132.283 164.429V162.819C132.283 162.379 132.383 162.012 132.583 161.719C132.657 161.612 132.763 161.516 132.903 161.429C133.05 161.336 133.197 161.262 133.343 161.209C133.463 161.169 133.623 161.136 133.823 161.109C134.023 161.082 134.2 161.066 134.353 161.059H134.883C135.257 161.059 135.747 161.119 136.353 161.239V162.199C135.667 162.039 135.14 161.959 134.773 161.959C134.1 161.959 133.763 162.186 133.763 162.639V164.419C133.763 164.932 134.133 165.189 134.873 165.189C135.233 165.189 135.75 165.116 136.423 164.969V165.929C135.817 166.042 135.27 166.099 134.783 166.099ZM139.607 166.099C139.354 166.099 139.154 166.092 139.007 166.079C138.861 166.072 138.681 166.056 138.467 166.029C138.254 166.002 138.077 165.956 137.937 165.889C137.804 165.822 137.664 165.722 137.517 165.589C137.244 165.362 137.107 164.976 137.107 164.429V162.819C137.107 162.379 137.207 162.012 137.407 161.719C137.481 161.612 137.587 161.516 137.727 161.429C137.874 161.336 138.021 161.262 138.167 161.209C138.287 161.169 138.447 161.136 138.647 161.109C138.847 161.082 139.024 161.066 139.177 161.059H139.707C140.081 161.059 140.571 161.119 141.177 161.239V162.199C140.491 162.039 139.964 161.959 139.597 161.959C138.924 161.959 138.587 162.186 138.587 162.639V164.419C138.587 164.932 138.957 165.189 139.697 165.189C140.057 165.189 140.574 165.116 141.247 164.969V165.929C140.641 166.042 140.094 166.099 139.607 166.099ZM142.072 161.159H143.532V164.319L145.442 161.159H146.902V165.999H145.442V162.749L143.532 165.999H142.072V161.159ZM149.205 164.149C148.825 164.109 148.548 163.996 148.375 163.809C148.202 163.622 148.115 163.342 148.115 162.969V162.449C148.115 161.976 148.268 161.642 148.575 161.449C148.888 161.256 149.408 161.159 150.135 161.159H152.765V165.999H151.305V164.259H150.745L149.485 165.999H147.745L149.205 164.149ZM151.305 163.339V162.069H150.535C150.188 162.069 149.942 162.106 149.795 162.179C149.648 162.246 149.575 162.369 149.575 162.549V162.899C149.575 163.092 149.648 163.216 149.795 163.269C149.942 163.316 150.152 163.339 150.425 163.339H151.305Z" fill="url(#paint1_linear_1_2266)"/>
<g filter="url(#filter0_dd_1_2266)">
<path d="M137.058 114.018C154.592 113.984 168.763 100.14 168.71 83.0956C168.657 66.0516 154.4 52.2624 136.867 52.2966C119.333 52.3307 105.162 66.1753 105.214 83.2193C105.267 100.263 119.524 114.052 137.058 114.018Z" fill="url(#paint2_linear_1_2266)"/>
<path d="M136.857 43.257C142.58 43.2458 147.205 38.7271 147.188 33.1641C147.171 27.6011 142.517 23.1004 136.794 23.1116C131.071 23.1228 126.446 27.6415 126.463 33.2045C126.481 38.7675 131.134 43.2682 136.857 43.257Z" fill="white"/>
<path d="M137.124 143.124C142.847 143.113 147.472 138.594 147.455 133.031C147.438 127.468 142.784 122.968 137.061 122.979C131.339 122.99 126.713 127.509 126.73 133.072C126.748 138.635 131.401 143.135 137.124 143.124Z" fill="white"/>
<path d="M107.846 55.002C111.884 51.0604 111.867 44.685 107.808 40.7621C103.749 36.8392 97.1854 36.8543 93.1475 40.7958C89.1097 44.7374 89.1268 51.1128 93.1858 55.0357C97.2447 58.9586 103.808 58.9435 107.846 55.002Z" fill="white"/>
<path d="M180.775 125.463C184.813 121.521 184.796 115.146 180.737 111.223C176.678 107.3 170.115 107.315 166.077 111.257C162.039 115.198 162.056 121.574 166.115 125.497C170.174 129.42 176.738 129.404 180.775 125.463Z" fill="white"/>
<path d="M85.559 93.3192C91.2819 93.308 95.9073 88.7892 95.8901 83.2262C95.8728 77.6632 91.2195 73.1627 85.4966 73.174C79.7737 73.1852 75.1482 77.704 75.1655 83.267C75.1827 88.8299 79.836 93.3305 85.559 93.3192Z" fill="white"/>
<path d="M188.432 93.0929C194.155 93.0818 198.781 88.563 198.763 83C198.746 77.437 194.093 72.9364 188.37 72.9475C182.647 72.9587 178.022 77.4775 178.039 83.0405C178.056 88.6035 182.709 93.1041 188.432 93.0929Z" fill="white"/>
<path d="M180.594 54.8301C184.632 50.8886 184.615 44.5132 180.556 40.5902C176.497 36.6673 169.933 36.6824 165.896 40.624C161.858 44.5655 161.875 50.9409 165.934 54.8638C169.993 58.7867 176.556 58.7717 180.594 54.8301Z" fill="white"/>
<path d="M108.03 125.721C112.068 121.779 112.051 115.404 107.992 111.481C103.933 107.558 97.369 107.573 93.3311 111.515C89.2933 115.456 89.3104 121.832 93.3694 125.754C97.4283 129.677 103.992 129.662 108.03 125.721Z" fill="white"/>
</g>
<defs>
<filter id="filter0_dd_1_2266" x="55.1655" y="3.11182" width="163.598" height="160.012" filterUnits="userSpaceOnUse" color-interpolation-filters="sRGB">
<feFlood flood-opacity="0" result="BackgroundImageFix"/>
<feColorMatrix in="SourceAlpha" type="matrix" values="0 0 0 0 0 0 0 0 0 0 0 0 0 0 0 0 0 0 127 0" result="hardAlpha"/>
<feOffset/>
<feGaussianBlur stdDeviation="10"/>
<feComposite in2="hardAlpha" operator="out"/>
<feColorMatrix type="matrix" values="0 0 0 0 0.8423 0 0 0 0 0.585 0 0 0 0 1 0 0 0 0.5 0"/>
<feBlend mode="normal" in2="BackgroundImageFix" result="effect1_dropShadow_1_2266"/>
<feColorMatrix in="SourceAlpha" type="matrix" values="0 0 0 0 0 0 0 0 0 0 0 0 0 0 0 0 0 0 127 0" result="hardAlpha"/>
<feOffset/>
<feGaussianBlur stdDeviation="2"/>
<feComposite in2="hardAlpha" operator="out"/>
<feColorMatrix type="matrix" values="0 0 0 0 0.8423 0 0 0 0 0.585 0 0 0 0 1 0 0 0 1 0"/>
<feBlend mode="normal" in2="effect1_dropShadow_1_2266" result="effect2_dropShadow_1_2266"/>
<feBlend mode="normal" in="SourceGraphic" in2="effect2_dropShadow_1_2266" result="shape"/>
</filter>
<linearGradient id="paint0_linear_1_2266" x1="13" y1="184.999" x2="284.99" y2="30.0453" gradientUnits="userSpaceOnUse">
<stop stop-color="#1F0B32"/>
<stop offset="1" stop-color="#1D1B7A"/>
</linearGradient>
<linearGradient id="paint1_linear_1_2266" x1="36.2589" y1="107.482" x2="37.5603" y2="178.804" gradientUnits="userSpaceOnUse">
<stop stop-color="#B195FF"/>
<stop offset="1" stop-color="#D795FF"/>
</linearGradient>
<linearGradient id="paint2_linear_1_2266" x1="175.537" y1="33.9565" x2="74.8077" y2="61.9371" gradientUnits="userSpaceOnUse">
<stop stop-color="white"/>
<stop offset="0.523958" stop-color="#D795FF"/>
<stop offset="1" stop-color="#7BC2FE"/>
</linearGradient>
</defs>
</svg>
