<svg width="273" height="186" viewBox="0 0 273 186" fill="none" xmlns="http://www.w3.org/2000/svg">
<rect y="0.0146484" width="273" height="185" rx="30" fill="url(#paint0_linear_1_2027)"/>
<g filter="url(#filter0_dd_1_2027)">
<path d="M190.423 79.3809C189.694 78.2178 189.23 76.9029 189.066 75.533C188.995 75.0232 188.931 74.5108 188.898 73.997C188.839 73.0963 189.042 72.2246 189.238 71.357C189.62 69.6713 189.867 67.9815 189.566 66.2477C189.184 63.793 188.131 61.4967 186.528 59.6238C185.779 58.7615 184.866 58.0969 183.95 57.4384C182.914 56.6944 181.937 55.8961 181.317 54.7326C181.274 54.6508 181.205 54.5836 181.154 54.5054C180.58 53.6152 180.029 52.7138 179.821 51.6458C179.753 51.2932 179.688 50.9397 179.607 50.5898C179.38 49.6022 179.216 48.5916 178.897 47.6352C178.225 45.6192 176.974 43.9846 175.429 42.577C173.979 41.2333 172.206 40.3037 170.291 39.8833C169.751 39.7649 169.213 39.6382 168.677 39.5036C167.878 39.3392 167.115 39.0294 166.424 38.5887C165.956 38.2635 165.496 37.9254 165.016 37.6189C164.269 37.1195 163.632 36.4676 163.146 35.7047C162.772 35.1508 162.406 34.5913 162.035 34.0345C161.286 32.8845 160.328 31.8911 159.212 31.1085C157.065 29.6239 154.711 28.7529 152.101 28.7551C151.243 28.7966 150.389 28.8952 149.545 29.051C148.892 29.14 148.243 29.267 147.59 29.363C146.722 29.4878 145.88 29.2763 145.035 29.1307C143.814 28.9593 142.649 28.5031 141.63 27.7972C141.256 27.5244 140.867 27.2692 140.473 27.0292C139.933 26.7007 139.397 26.3599 138.832 26.0832C137.265 25.3473 135.554 24.9825 133.829 25.0169C131.639 25.0133 129.566 25.4904 127.688 26.6865C127.206 26.993 126.737 27.3192 126.253 27.6225C125.782 27.9172 125.304 28.1964 124.826 28.4774C124.26 28.8071 123.594 28.9106 122.958 28.7671C122.206 28.6173 121.45 28.4791 120.707 28.2926C118.951 27.8109 117.107 27.7656 115.33 28.1604C112.838 28.7495 110.613 29.843 108.87 31.8011C108.346 32.3903 107.898 33.0491 107.408 33.6714C107.015 34.1708 106.614 34.664 106.212 35.156C105.908 35.5367 105.476 35.788 105 35.8607C104.228 35.9859 103.46 36.1487 102.683 36.2221C100.389 36.4143 98.2001 37.2848 96.3849 38.7262C94.2742 40.3978 92.7607 42.4812 92.0468 45.133C91.9091 45.6451 91.7517 46.152 91.5888 46.6567C90.9905 48.6206 89.6662 50.2728 87.897 51.262C87.2413 51.6367 86.5839 52.0087 85.9369 52.3987C85.1489 52.8573 84.432 53.4328 83.8102 54.1062C81.1045 57.1252 79.8478 60.625 80.4046 64.7381C80.532 65.6804 80.6401 66.6411 80.4366 67.5871C80.28 68.3179 80.0492 69.0317 79.8678 69.7574C79.6547 70.5758 79.2839 71.3426 78.7769 72.0134C78.2988 72.6643 77.8053 73.3034 77.3239 73.9519C76.5319 74.9937 75.9504 76.1855 75.6131 77.458C75.4077 78.2262 75.2575 79.0086 75.1637 79.7992C74.9181 82.0976 75.1802 84.3258 76.2219 86.4154C76.5554 87.0843 76.9097 87.7424 77.253 88.406C77.5757 89.03 77.917 89.6633 77.9949 90.3648C78.0943 91.2617 78.4323 92.1168 78.385 93.0396C78.3647 93.4399 78.4792 93.8455 78.4985 94.2506C78.5437 95.1688 78.3145 96.0492 78.1 96.929C77.7924 98.1887 77.4714 99.4456 77.4528 100.765C77.5314 101.463 77.5689 102.168 77.6965 102.857C78.0861 105.166 79.0932 107.323 80.6066 109.087C81.3448 109.935 82.2367 110.604 83.1166 111.284C84.0591 111.986 84.8606 112.866 85.4767 113.876C86.1192 114.925 86.5394 116.1 86.7102 117.324C86.8687 118.516 86.9815 119.727 87.4123 120.855C88.9217 124.808 91.5836 127.531 95.6404 128.731C96.4648 128.975 97.2971 129.195 98.1096 129.475C99.23 129.848 100.187 130.612 100.811 131.63C101.188 132.238 101.559 132.852 101.893 133.484C102.967 135.542 104.616 137.23 106.631 138.332C108.324 139.274 110.11 139.914 112.058 139.925C112.961 139.931 113.864 139.826 114.767 139.757C115.623 139.691 116.478 139.547 117.334 139.717C117.785 139.806 118.231 139.92 118.677 140.035C119.797 140.325 120.885 140.689 121.81 141.438C122.231 141.778 122.674 142.089 123.094 142.43C124.792 143.82 126.847 144.683 129.013 144.915C131.43 145.191 133.76 144.922 135.937 143.738C136.6 143.378 137.256 143.001 137.917 142.639C138.542 142.269 139.224 142.01 139.935 141.875C140.708 141.756 141.483 141.65 142.259 141.557C142.532 141.516 142.81 141.515 143.083 141.555C143.987 141.723 144.895 141.884 145.783 142.119C147.514 142.577 149.253 142.755 151.021 142.401C154.215 141.761 156.892 140.258 158.83 137.527C158.919 137.4 159.02 137.281 159.112 137.156C159.859 136.083 160.809 135.174 161.907 134.481C163.147 133.721 164.41 133.119 165.862 132.938C166.745 132.83 167.621 132.666 168.484 132.446C171.886 131.57 175.614 128.241 176.686 124.37C176.807 123.934 176.934 123.499 177.043 123.06C177.37 121.734 177.814 120.482 178.631 119.353C179.461 118.205 180.338 117.148 181.569 116.437C181.943 116.221 182.304 115.983 182.667 115.749C183.417 115.29 184.115 114.746 184.747 114.128C186.222 112.609 187.306 110.742 187.903 108.693C188.347 107.339 188.506 105.905 188.371 104.484C188.269 103.584 188.145 102.686 188.041 101.786C187.923 100.996 187.942 100.191 188.095 99.407C188.23 98.8144 188.378 98.2247 188.504 97.631C188.637 96.9866 188.884 96.3727 189.234 95.8192C189.618 95.2159 190.015 94.6217 190.426 94.0363C191.336 92.7919 191.998 91.3769 192.372 89.8723C192.596 88.9136 192.717 87.9329 192.734 86.9475C192.766 85.0124 192.461 83.1445 191.575 81.4112C191.225 80.715 190.84 80.0372 190.423 79.3809ZM189.262 87.7088C189.125 89.2915 188.551 90.8028 187.606 92.0666C187.095 92.7694 186.627 93.5066 186.172 94.2475C185.731 94.9828 185.408 95.7849 185.215 96.6235C185.148 96.8942 185.041 97.1543 184.951 97.4191C184.925 97.475 184.903 97.5333 184.886 97.5931C184.787 98.2547 184.693 98.9174 184.594 99.5788C184.491 100.497 184.51 101.424 184.651 102.337C184.759 103.268 184.904 104.196 184.972 105.129C185.139 107.4 183.709 110.943 181.27 112.512C180.661 112.904 180.048 113.293 179.44 113.688C178.304 114.382 177.318 115.304 176.541 116.397C176.464 116.51 176.346 116.595 176.261 116.705C176.131 116.873 176.008 117.047 175.892 117.226C175.808 117.355 175.755 117.507 175.662 117.628C174.943 118.588 174.411 119.68 174.098 120.844C173.913 121.489 173.726 122.134 173.573 122.788C173.02 125.148 171.591 126.835 169.657 128.142C168.668 128.777 167.554 129.185 166.394 129.335C165.41 129.493 164.421 129.647 163.459 129.903C162.789 130.121 162.134 130.388 161.501 130.7C161.192 130.833 160.893 130.988 160.589 131.135C160.52 131.166 160.453 131.204 160.389 131.248C160.029 131.509 159.677 131.785 159.309 132.034C158.446 132.634 157.68 133.369 157.039 134.21C156.675 134.674 156.304 135.134 155.96 135.613C154.824 137.195 153.278 138.151 151.465 138.705C150.654 138.959 149.81 139.092 148.961 139.098C148.213 139.079 147.47 138.966 146.749 138.762C145.762 138.537 144.781 138.264 143.781 138.122C143.076 138.023 142.346 138.107 141.627 138.114C141.505 138.114 141.384 138.15 141.261 138.154C141.033 138.131 140.803 138.135 140.576 138.167C139.504 138.482 138.358 138.515 137.346 139.052C136.666 139.412 135.98 139.762 135.304 140.132C134.48 140.584 133.675 141.085 132.744 141.279C130.066 141.835 127.557 141.504 125.32 139.777C124.661 139.267 123.999 138.756 123.321 138.272C122.49 137.677 121.564 137.234 120.584 136.963C120.381 136.897 120.181 136.821 119.985 136.733C119.904 136.691 119.819 136.655 119.731 136.628C119.086 136.5 118.441 136.37 117.793 136.258C116.895 136.129 115.985 136.118 115.084 136.227C114.32 136.299 113.558 136.39 112.793 136.44C111.043 136.555 109.466 135.992 107.983 135.104C106.79 134.409 105.8 133.402 105.117 132.187C104.731 131.493 104.336 130.805 103.933 130.123C102.744 128.061 100.808 126.555 98.5423 125.932C97.9231 125.751 97.3058 125.563 96.6817 125.404C94.1317 124.755 92.3855 123.097 91.1172 120.831C90.5334 119.787 90.3567 118.628 90.1916 117.466C90.0331 116.352 89.9012 115.225 89.4636 114.183C88.6224 112.178 87.5201 110.355 85.7912 108.997C85.3168 108.625 84.8566 108.234 84.3736 107.875C82.6528 106.595 81.682 104.831 81.1728 102.767C80.8464 101.425 80.8549 100.022 81.1976 98.6841C81.4616 97.6886 81.6747 96.6799 81.8361 95.662C81.9194 94.9015 81.9265 94.1345 81.857 93.3725C81.8424 93.1461 81.7882 92.3666 81.7027 91.6709C81.6427 91.182 81.5911 90.6996 81.5301 90.2983C81.3916 88.9042 80.8 87.7544 80.1573 86.5359C79.8301 85.9169 79.503 85.2968 79.2003 84.6639C78.6231 83.3938 78.392 81.9884 78.5312 80.596C78.5786 79.9885 78.6692 79.3854 78.8021 78.7914C79.0293 77.7652 79.4764 76.8028 80.1113 75.9734C80.6156 75.3033 81.1274 74.639 81.6173 73.9574C82.2838 73.0008 82.8012 71.9448 83.1507 70.8269C83.3523 70.2211 83.4607 69.601 83.639 68.9954C84.0205 67.6995 83.9923 66.3711 83.8816 65.0408C83.8361 64.4957 83.7873 63.9509 83.7388 63.4059C83.5627 61.4031 84.1444 59.6077 85.1845 57.9404C85.8635 56.8156 86.8126 55.8853 87.9422 55.2378C88.6803 54.8214 89.4149 54.3978 90.1391 53.957C91.1198 53.3404 91.9915 52.5597 92.7178 51.6482C93.8163 50.3145 94.615 48.7519 95.058 47.0702C95.1932 46.5737 95.3642 46.0862 95.5017 45.5911C96.216 43.0006 99.3103 40.0345 102.616 39.7573C103.455 39.6867 104.288 39.5266 105.123 39.41C106.711 39.2098 108.157 38.3684 109.133 37.0753C109.61 36.4633 110.103 35.8609 110.537 35.2184C112.048 32.9865 114.195 31.8585 116.76 31.4534C117.902 31.2726 119.017 31.4862 120.132 31.7382C121.074 31.9509 122.025 32.1222 122.978 32.2737C124.28 32.4805 125.479 32.1136 126.599 31.4723C127.373 31.0286 128.133 30.5524 128.867 30.0415C131.227 28.3977 133.783 28.1671 136.481 28.8895C137.13 29.0839 137.747 29.3774 138.309 29.7602C139.038 30.2241 139.753 30.7108 140.486 31.1663C141.442 31.7303 142.476 32.1443 143.553 32.3944C144.149 32.5487 144.749 32.6044 145.343 32.7325C146.755 33.0378 148.152 32.8588 149.547 32.6013C150.452 32.4333 151.355 32.1995 152.281 32.2573C155 32.4265 157.306 33.4665 158.997 35.71C159.491 36.3663 159.918 37.0758 160.381 37.7569C161.096 38.7946 161.973 39.7054 162.979 40.4525C163.507 40.8531 164.076 41.1725 164.614 41.5476C165.667 42.2861 166.869 42.6656 168.101 42.9569C168.534 43.0592 168.968 43.1621 169.403 43.2552C171.901 43.7902 173.686 45.3192 175.042 47.4492C175.665 48.4289 175.919 49.5348 176.143 50.6584C176.314 51.6107 176.533 52.5532 176.799 53.4825C177.043 54.1386 177.331 54.7766 177.663 55.3914C177.781 55.6441 177.913 55.8904 178.04 56.139C178.076 56.224 178.119 56.3056 178.169 56.3831C178.418 56.7172 178.687 57.0361 178.923 57.3796C179.602 58.329 180.43 59.1589 181.372 59.8364C181.791 60.153 182.21 60.4712 182.639 60.7724C184.426 62.0223 185.427 63.8009 185.996 65.8824C186.409 67.3896 186.294 68.8793 185.949 70.379C185.761 71.1993 185.632 72.035 185.504 72.8678C185.391 73.6903 185.418 74.5264 185.582 75.3398C185.598 75.3842 185.606 75.4305 185.607 75.4775C185.513 76.169 185.84 76.7862 185.944 77.4424C186.134 78.6313 186.643 79.7022 187.24 80.7304C187.576 81.309 187.916 81.885 188.254 82.4622C189.206 84.087 189.416 85.8618 189.261 87.7083L189.262 87.7088Z" fill="white"/>
<path d="M165.752 85.0323C165.743 67.0951 151.454 52.6365 134.051 52.5618C116.323 52.486 102.086 67.217 102.057 84.9672C102.027 102.717 116.203 117.477 133.896 117.484C151.447 117.491 165.751 102.919 165.752 85.0323ZM133.825 114.861C117.596 114.822 104.611 101.327 104.632 85.0016C104.657 68.6457 117.863 55.1975 133.913 55.1814C150.301 55.2097 163.202 68.8528 163.179 85.0685C163.156 101.249 150.249 114.9 133.825 114.861Z" fill="white"/>
<path d="M167.468 64.9765L165.865 65.5438C165.92 65.7339 165.954 65.8683 165.998 65.9998C166.246 66.7388 166.509 67.4729 166.741 68.2174C166.806 68.4749 167.017 68.6688 167.275 68.7082C169.578 69.3034 171.877 69.9168 174.176 70.5257C174.331 70.5667 174.485 70.6164 174.639 70.6622C174.641 70.6982 174.644 70.7342 174.646 70.77C173.886 71.0417 173.129 71.322 172.365 71.5822C171.588 71.8462 170.828 72.1689 170.018 72.3758L169.712 71.6035L168.096 72.1833L169.418 76.0624L171.041 75.4864L170.711 74.4304C172.744 73.6987 174.746 72.9905 176.768 72.2904C176.912 72.6677 177.033 72.9816 177.165 73.3267L178.78 72.7562C178.735 72.593 178.705 72.4584 178.661 72.3285C178.411 71.5901 178.136 70.8593 177.915 70.1122C177.843 69.8088 177.593 69.5815 177.289 69.5422C174.951 68.9583 172.618 68.3556 170.283 67.7578C170.151 67.7242 170.022 67.6791 169.892 67.6392L169.886 67.5286L174.575 65.8726C174.69 66.1438 174.785 66.3682 174.895 66.6288L176.513 66.0572L175.213 62.2412L173.594 62.8158C173.697 63.1724 173.785 63.4803 173.884 63.8238L167.831 65.9597L167.468 64.9765Z" fill="white"/>
<path d="M160.055 54.9238L158.721 55.9884C158.806 56.1139 158.869 56.2183 158.943 56.3146C159.432 56.9566 159.937 57.5866 160.407 58.2425C160.548 58.4674 160.81 58.5821 161.067 58.5305C161.784 58.4585 162.503 58.4105 163.222 58.3543C164.628 58.2422 166.035 58.1304 167.441 58.0183C167.845 57.9869 168.251 57.9684 168.655 57.9437L168.696 58.0464L164.841 61.1131C164.634 60.8705 164.467 60.6744 164.283 60.4589L162.937 61.5319L165.42 64.7766L166.771 63.7012L166.126 62.7986C167.82 61.4455 169.485 60.1085 171.182 58.7822L171.878 59.6405L173.221 58.5679C173.128 58.4282 173.067 58.3234 172.994 58.2276C172.496 57.5726 171.99 56.9244 171.5 56.2635C171.374 56.0674 171.145 55.9663 170.919 56.0074C168.689 56.2107 166.458 56.3955 164.226 56.5834C163.881 56.6127 163.535 56.6273 163.19 56.6484C163.173 56.6165 163.157 56.5843 163.141 56.5524C164.445 55.5161 165.742 54.4702 167.071 53.4336L167.606 54.0456L168.955 52.9733C168.138 51.9061 167.34 50.8645 166.515 49.7881L165.157 50.8654C165.382 51.1774 165.568 51.4373 165.77 51.7174L160.712 55.7379L160.055 54.9238Z" fill="white"/>
<path d="M91.0501 72.3995C93.1031 73.1176 95.1189 73.7915 97.1265 74.5187L96.825 75.5123L98.4501 76.0722C98.9059 74.7078 99.3477 73.3842 99.8037 72.021C99.2412 71.8269 98.724 71.6476 98.1816 71.4599C98.049 71.8079 97.9299 72.1204 97.8008 72.4597L91.7244 70.3521C92.1579 68.9793 92.6012 67.6603 93.0654 66.3228L99.1553 68.4347C99.0484 68.7844 98.9546 69.0904 98.8468 69.4439L100.478 70.0096C100.936 68.631 101.376 67.3072 101.825 65.9536L100.2 65.3899L99.8364 66.3959L93.7491 64.284C93.8608 63.9161 93.954 63.6091 94.06 63.2589L92.4368 62.7021C91.3089 66.083 90.1918 69.4319 89.0623 72.8173L90.6793 73.3787C90.8103 73.0336 90.9241 72.7333 91.0501 72.3995Z" fill="white"/>
<path d="M135.49 46.4133C136.24 46.4613 136.99 46.5266 137.74 46.5347C139.143 46.5599 140.37 45.5397 140.628 44.1348C140.808 43.2321 140.657 42.4248 139.939 41.7921C139.896 41.7451 139.859 41.6923 139.829 41.6352C140.061 41.4192 140.277 41.1854 140.474 40.9356C140.92 40.2732 140.947 39.521 140.777 38.7725C140.472 37.4319 139.423 36.553 138.002 36.4368C136.58 36.3207 135.157 36.2336 133.735 36.1373C133.57 36.126 133.405 36.1356 133.216 36.1356C133.132 36.7059 133.1 37.2831 133.121 37.8593L134.086 37.9932C133.952 40.187 133.825 42.329 133.653 44.49H132.646C132.612 45.066 132.58 45.6179 132.547 46.1887C132.697 46.2086 132.785 46.2254 132.874 46.2319C133.746 46.2935 134.618 46.3576 135.49 46.4133ZM136.224 38.112C136.794 38.1485 137.314 38.1497 137.825 38.2229C138.456 38.3129 138.836 39.1416 138.592 39.8162C138.464 40.2852 138.017 40.5938 137.543 40.542C137.114 40.5235 136.687 40.4834 136.259 40.4506C136.193 40.4362 136.128 40.4162 136.065 40.3913C136.118 39.63 136.169 38.8899 136.224 38.112ZM135.952 42.222C136.575 42.2628 137.121 42.2957 137.667 42.3374C137.758 42.3489 137.847 42.3773 137.928 42.4207C138.37 42.6355 138.59 43.2249 138.462 43.8388C138.394 44.3695 137.939 44.7674 137.414 44.7554C136.926 44.7386 136.439 44.6899 135.952 44.6512C135.896 44.634 135.843 44.6092 135.793 44.5776C135.845 43.8184 135.897 43.0495 135.952 42.222Z" fill="white"/>
<path d="M151.223 48.5985C150.88 49.0785 150.561 49.5412 150.258 50.0442L153.703 52.4564L154.671 51.0148L153.829 50.3776L155.757 47.5199C155.818 47.7273 155.856 47.8254 155.874 47.9279C156.102 49.1718 156.315 50.4189 156.561 51.6587C156.639 51.9616 156.57 52.2846 156.378 52.528C156.093 52.91 155.842 53.318 155.552 53.7519L158.216 55.6162C158.581 55.0748 158.923 54.5663 159.269 54.0519C159.178 53.9643 159.079 53.8866 158.972 53.8199C158.722 53.69 158.562 53.4311 158.553 53.1457C158.341 51.8992 158.116 50.6545 157.9 49.4085C157.885 49.2709 157.878 49.1327 157.88 48.9942C158.1 48.9582 158.279 48.9208 158.46 48.9006C159.436 48.7929 160.415 48.7036 161.387 48.5795C161.897 48.5145 162.396 48.4115 162.816 48.9174L163.888 47.3239L161.148 45.4082C160.828 45.8781 160.531 46.2947 160.256 46.726C160.148 46.9142 159.952 47.0339 159.738 47.0435C158.549 47.1739 157.363 47.3279 156.175 47.4693C156.05 47.4722 155.925 47.4664 155.801 47.4522L157.455 44.9959L158.346 45.5635L159.318 44.1235L155.854 41.7021L154.887 43.1462L155.683 43.7556C155.227 44.609 152.286 48.9016 152.009 49.1176L151.223 48.5985Z" fill="white"/>
<path d="M96.4739 59.6744L101.587 63.2967L101.019 64.1902L102.426 65.1876L106.916 58.5995L104.039 56.5638L102.861 58.2935C103.354 58.6475 103.812 58.977 104.308 59.3341C103.798 60.0812 103.312 60.7916 102.805 61.5344L100.86 60.1515L101.967 58.4809L100.476 57.4273C100.086 57.9858 99.7168 58.5147 99.3284 59.0718L97.6649 57.8915C98.183 57.1268 98.6513 56.4059 99.1692 55.7017C99.5875 55.9864 99.9511 56.2343 100.335 56.4959L101.505 54.7657L98.7704 52.835L94.2854 59.4195L95.8384 60.5218L96.4739 59.6744Z" fill="white"/>
<path d="M125.951 47.2795C127.66 47.2863 128.942 46.6911 129.815 45.643C131.73 43.3477 131.359 39.7371 129.016 37.857C127.151 36.3126 124.393 36.5142 122.764 38.3144C121.287 39.8984 120.977 42.4904 122.049 44.5186C122.955 46.2339 124.36 47.1828 125.951 47.2795ZM123.996 40.1156C124.41 39.3387 125.21 38.8532 126.078 38.8532C126.63 38.8532 127.165 39.05 127.59 39.4095C128.844 40.5147 129.223 42.3507 128.511 43.8769C128.112 44.7099 127.279 45.2403 126.369 45.2403C125.747 45.2403 125.149 44.9921 124.704 44.5489C123.974 43.8392 123.569 42.8504 123.585 41.823C123.571 41.2268 123.713 40.6374 123.996 40.1156Z" fill="white"/>
<path d="M144.07 47.7921C145.77 49.0974 148.157 49.0069 149.758 47.5761C149.944 47.4049 150.097 47.1966 150.289 46.9797L148.546 45.7766C148.408 45.8946 148.316 45.9772 148.22 46.0535C146.795 47.1858 144.921 46.575 144.399 44.8089C144.229 44.2375 144.211 43.6298 144.347 43.049C144.601 41.9436 145.165 41.0618 146.195 40.5612C147.327 40.0104 148.795 40.446 149.233 41.5505C149.411 42.0616 149.851 42.4339 150.376 42.5184C150.48 42.5436 150.579 42.5892 150.683 42.6208C150.911 42.6914 151.14 42.7593 151.399 42.8368C151.63 42.1267 151.845 41.4667 152.068 40.7805C151.719 40.6605 151.419 40.5437 151.112 40.4539C150.844 40.3872 150.614 40.2101 150.479 39.965C150.219 39.4999 149.835 39.1195 149.372 38.8678C148.162 38.1758 146.706 38.082 145.42 38.6129C143.37 39.4289 142.03 41.5972 142.126 43.9291C142.191 45.5176 142.806 46.833 144.07 47.7921Z" fill="white"/>
<path d="M108.95 56.1822C111.029 55.7353 112.752 53.6283 112.478 51.2142C112.461 50.8199 112.346 50.4364 112.144 50.0997L110.276 50.9927C110.305 51.1607 110.323 51.268 110.34 51.3752C110.369 51.5255 110.383 51.6779 110.383 51.831C110.383 53.1373 109.328 54.2125 108.046 54.2125C107.914 54.2125 107.782 54.201 107.651 54.1782C106.02 53.9533 104.643 52.3252 104.66 50.6466C104.675 49.1622 105.904 47.9586 107.357 48.2397C107.652 48.3126 107.965 48.215 108.169 47.9853C108.436 47.7282 108.727 47.4966 109.003 47.249C109.091 47.1698 109.166 47.0752 109.26 46.9737L107.88 45.3506C107.572 45.6167 107.301 45.8431 107.04 46.0811C106.894 46.2184 106.703 46.2955 106.504 46.2971C105.996 46.2895 105.493 46.4059 105.038 46.6365C104.215 47.073 103.545 47.7602 103.122 48.6021C102.204 50.5122 102.412 52.358 103.633 54.0339C104.949 55.8416 106.739 56.6569 108.95 56.1822Z" fill="white"/>
<path d="M113.067 44.6899L112.532 43.4969L113.673 42.9319C114.629 44.9356 115.563 46.895 116.51 48.8802L115.599 49.3797C115.864 49.9182 116.086 50.4385 116.367 50.9385C117.043 50.6025 117.666 50.3015 118.283 49.9869C118.891 49.6761 119.527 49.415 120.12 49.0458L119.369 47.4979L118.418 47.943L115.573 41.9794L116.87 41.353L117.454 42.515L119.316 41.5879L118.018 38.874L109.918 42.8928L111.217 45.6064L113.067 44.6899Z" fill="white"/>
<path d="M139.818 127.186L140.823 127.106V125.571C140.641 125.571 140.521 125.567 140.401 125.571C139.758 125.599 139.115 125.645 138.472 125.65C138.211 125.635 137.963 125.771 137.83 126C137.242 126.877 136.634 127.741 136.031 128.607C135.956 128.715 135.865 128.812 135.765 128.933C135.667 128.826 135.602 128.76 135.543 128.69C134.838 127.844 134.13 127.002 133.433 126.149C133.317 125.983 133.123 125.893 132.924 125.913C132.45 125.941 131.974 125.939 131.499 125.962C131.185 125.977 130.872 126.014 130.563 126.041C130.563 126.353 130.552 126.603 130.566 126.852C130.579 127.093 130.618 127.333 130.646 127.574H131.603C131.642 128.561 131.68 129.518 131.719 130.493L130.719 130.579C130.746 131.108 130.771 131.597 130.798 132.125L134.179 131.971V130.457L133.481 130.394C133.45 129.791 133.421 129.214 133.392 128.637L133.503 128.593L135.882 131.353C136.267 130.816 136.616 130.326 136.968 129.839C137.315 129.357 137.644 128.859 138.014 128.395L138.116 128.436C138.141 129.019 138.166 129.603 138.192 130.201L137.544 130.284C137.573 130.797 137.601 131.286 137.632 131.822L141 131.665V130.101H139.94C139.899 129.114 139.859 128.168 139.818 127.186Z" fill="white"/>
<path d="M143.788 124.792C143.717 124.86 143.639 124.92 143.534 125.01C143.394 124.586 143.5 124.117 143.809 123.799C144.149 123.434 144.576 123.166 145.049 123.022C145.558 122.85 146.073 122.697 146.584 122.532C146.783 122.468 146.979 122.393 147.191 122.319C147.025 121.722 146.871 121.169 146.696 120.546C146.215 120.682 145.789 120.8 145.364 120.925C145.308 120.939 145.259 120.976 145.229 121.027C145.277 121.367 144.99 121.349 144.814 121.416C144.232 121.615 143.684 121.905 143.189 122.276C142.194 123.078 141.707 124.122 141.954 125.404C142.165 126.426 142.432 127.436 142.753 128.428C142.885 128.811 143.089 129.163 143.356 129.465C144.607 130.938 146.754 130.602 147.87 129.565C148.919 128.591 149.163 127.11 148.514 125.696C148.053 124.618 147.004 123.917 145.85 123.917C145.076 123.917 144.333 124.232 143.788 124.792ZM145.76 128.843C144.912 128.865 144.144 128.064 144.139 127.15C144.148 126.289 144.832 125.579 145.677 125.555C146.505 125.553 147.152 126.315 147.16 127.303C147.161 127.325 147.162 127.348 147.162 127.37C147.162 128.162 146.536 128.819 145.759 128.843L145.76 128.843Z" fill="white"/>
<path d="M164.854 117.724L163.002 115.475L163.625 114.875L162.654 113.702L160.019 115.965L160.993 117.141L161.66 116.621L162.146 117.216L160.131 118.944C159.96 118.728 159.812 118.542 159.637 118.32L160.247 117.791C159.908 117.379 159.599 117.003 159.271 116.604L156.633 118.866C156.971 119.277 157.282 119.654 157.604 120.044L158.312 119.496L160.169 121.751L159.52 122.367C159.856 122.775 160.16 123.142 160.489 123.541L163.127 121.279C162.782 120.862 162.471 120.487 162.152 120.1C161.914 120.287 161.725 120.436 161.503 120.61L160.886 119.848L162.905 118.119L163.515 118.883L162.906 119.462L163.878 120.638L166.509 118.375L165.544 117.201L164.854 117.724Z" fill="white"/>
<path d="M157.102 123.838C156.66 122.965 156.228 122.113 155.791 121.249L156.4 120.863L155.697 119.499C155.115 119.806 154.58 120.107 154.028 120.369C153.772 120.474 153.593 120.716 153.565 120.996C153.335 122.318 153.083 123.636 152.836 124.954C152.802 125.085 152.76 125.214 152.711 125.341L151.721 123.388L152.324 122.997C152.093 122.543 151.872 122.109 151.634 121.639C150.666 122.151 149.746 122.638 148.789 123.144L149.483 124.502L150.174 124.205L151.493 126.805L150.872 127.201C151.097 127.684 151.315 128.121 151.569 128.554C152.15 128.248 152.672 127.948 153.215 127.698C153.5 127.581 153.698 127.311 153.728 127C153.961 125.711 154.216 124.425 154.467 123.139C154.502 123.015 154.546 122.895 154.597 122.777C154.946 123.456 155.271 124.045 155.545 124.665L154.919 125.063L155.615 126.422L158.459 124.912C158.208 124.427 157.989 124.003 157.764 123.568L157.102 123.838Z" fill="white"/>
<path d="M98.495 107.449L99.8212 106.761C98.7786 104.668 97.7618 102.627 96.7371 100.569C96.2788 100.776 95.8324 101.01 95.4005 101.269C95.5303 101.557 95.636 101.793 95.7618 102.071C95.2743 102.295 94.8383 102.524 94.3828 102.7C93.6131 102.998 93.0116 102.794 92.5344 102.114C92.4388 101.978 92.3505 101.837 92.2391 101.669L90.9138 102.367C91.0846 102.706 91.2179 102.987 91.3653 103.26C91.8601 104.276 92.981 104.82 94.067 104.572C94.7754 104.431 95.4601 104.188 96.1 103.848C96.2444 103.776 96.3946 103.716 96.5618 103.642C96.8193 104.159 97.0701 104.615 97.2825 105.124L94.6829 106.467L94.2773 105.696C93.5272 105.989 93.1451 106.216 92.961 106.474L94.5816 109.735C95.0482 109.536 95.5001 109.303 95.9342 109.039L95.4853 108.053C96.3704 107.593 97.2046 107.146 98.072 106.728L98.495 107.449Z" fill="white"/>
<path d="M119.516 124.522C119.335 124.991 118.877 125.121 118.514 125.364C118.455 125.38 118.393 125.373 118.339 125.344C118.17 125.279 118.005 125.205 117.807 125.122C118.103 124.332 118.385 123.579 118.684 122.783L116.199 121.796C116.011 122.3 115.839 122.758 115.659 123.236C115.835 123.313 115.96 123.366 116.083 123.423C116.217 123.484 116.35 123.549 116.51 123.625C116.154 124.555 115.816 125.437 115.46 126.367L114.576 126.049L114.027 127.492L117.093 128.707L117.637 127.28L117.089 126.992C117.187 126.751 117.278 126.527 117.364 126.316C117.74 126.311 118.068 126.587 118.136 126.964C118.354 127.696 118.615 128.414 118.872 129.133C118.91 129.279 118.998 129.407 119.118 129.495C119.545 129.697 119.99 129.855 120.463 130.044L121.013 128.598C120.799 128.51 120.625 128.452 120.464 128.369C120.351 128.327 120.254 128.25 120.186 128.15C119.946 127.598 119.729 127.035 119.493 126.446C120.046 126.12 120.544 125.815 121.056 125.538C121.184 125.501 121.32 125.507 121.444 125.556C121.658 125.613 121.865 125.7 122.1 125.784C122.288 125.286 122.458 124.841 122.643 124.353L119.991 123.3C119.82 123.741 119.666 124.132 119.516 124.522Z" fill="white"/>
<path d="M178.757 88.518C178.358 88.5007 177.959 88.5135 177.56 88.5123C176.89 88.5096 176.787 88.4311 176.58 87.7704C176.487 87.4726 176.394 87.175 176.3 86.8776C176.276 86.8035 176.251 86.7298 176.224 86.6566C176.151 86.4245 175.936 86.2673 175.697 86.2726C175.458 86.2688 175.244 86.4307 175.178 86.6659C175.036 87.0785 174.91 87.4973 174.771 87.9111C174.606 88.4076 174.476 88.5055 173.973 88.511C173.544 88.5166 173.114 88.5046 172.684 88.5163C172.414 88.4832 172.157 88.6534 172.077 88.9183C171.997 89.177 172.073 89.3863 172.344 89.603C172.682 89.8733 173.027 90.1325 173.368 90.4008C173.787 90.7313 173.843 90.8981 173.694 91.4088C173.567 91.8429 173.418 92.2706 173.297 92.7064C173.186 92.9608 173.276 93.2625 173.507 93.4111C173.717 93.5577 174.002 93.5344 174.187 93.3556C174.446 93.1612 174.708 92.9702 174.968 92.776C175.662 92.2576 175.737 92.256 176.419 92.7542C176.681 92.9462 176.939 93.1423 177.206 93.3266C177.488 93.5222 177.712 93.5294 177.928 93.3672C178.144 93.2049 178.191 92.9949 178.097 92.6491C178.076 92.5737 178.051 92.4996 178.028 92.4254C177.92 92.0834 177.805 91.7433 177.704 91.3992C177.565 90.9278 177.628 90.7327 178.013 90.4241C178.363 90.1442 178.719 89.8721 179.073 89.5975C179.233 89.5018 179.339 89.3333 179.356 89.1451C179.357 89.1293 179.358 89.1134 179.358 89.0976C179.358 88.7791 179.101 88.517 178.788 88.517C178.778 88.517 178.767 88.5175 178.757 88.518Z" fill="white"/>
<path d="M92.5623 92.5854C92.8921 92.8129 93.21 93.0584 93.5369 93.2905C93.8857 93.5379 94.1052 93.561 94.332 93.3779C94.6121 93.152 94.5708 92.8676 94.4733 92.5688C94.3518 92.1987 94.2378 91.8263 94.1257 91.4528C93.9641 90.914 94.0167 90.7494 94.4529 90.4079C94.8061 90.1319 95.167 89.8679 95.5115 89.5818C95.8412 89.3077 95.8763 88.9381 95.5822 88.7053C95.4329 88.6017 95.2579 88.5433 95.0772 88.5373C94.6646 88.5133 94.2496 88.5328 93.8358 88.5277C93.3271 88.5215 93.2022 88.4279 93.0371 87.9299C92.8998 87.5159 92.7738 87.0981 92.6349 86.685C92.5649 86.4498 92.3506 86.2881 92.1094 86.2881C91.876 86.2881 91.6669 86.44 91.5906 86.6649C91.5522 86.7666 91.5199 86.8708 91.4858 86.9745C91.3708 87.3304 91.2571 87.6866 91.1414 88.0422C91.0698 88.3425 90.7943 88.5489 90.4916 88.5285C90.2618 88.5265 90.0316 88.5285 89.8018 88.5285V88.5309H89.1119C88.8434 88.503 88.5874 88.6602 88.4857 88.9149C88.3837 89.1709 88.4723 89.3949 88.7683 89.6348C89.0933 89.8955 89.4278 90.146 89.7551 90.4028C90.2125 90.7592 90.2599 90.9145 90.0837 91.4879C89.96 91.8901 89.8166 92.2868 89.7158 92.6948C89.6685 92.8712 89.6758 93.0582 89.7368 93.2303C89.8729 93.5471 90.2356 93.6128 90.5559 93.3937C90.925 93.1417 91.2752 92.8616 91.6393 92.6017C91.8937 92.3516 92.2995 92.3444 92.5623 92.5854Z" fill="white"/>
<path d="M173.542 105.674C172.648 105.199 171.783 104.75 170.927 104.228L171.422 103.328L172.447 103.836L173.246 102.307L170.936 101.046L167.514 107.55C168.304 107.982 169.045 108.404 169.831 108.805L170.627 107.285L169.628 106.71L170.105 105.822C170.996 106.309 171.863 106.756 172.706 107.259C172.558 107.573 172.435 107.835 172.303 108.116L173.631 108.839L175.394 105.491L174.06 104.768C173.877 105.088 173.718 105.366 173.542 105.674Z" fill="white"/>
<path d="M170.135 111.462C169.897 111.275 169.693 111.115 169.489 110.954C169.016 110.581 168.562 110.18 168.067 109.84C167.201 109.245 166.377 109.301 165.567 109.974C165.003 110.439 164.567 111.046 164.303 111.734C164.099 112.202 163.993 112.707 163.99 113.219L165.117 113.465C165.175 113.279 165.214 113.146 165.258 113.015C165.446 112.399 165.803 111.85 166.288 111.435C166.726 111.08 167.091 111.123 167.497 111.544C167.276 111.786 167.075 112 166.879 112.219C166.45 112.649 166.137 113.184 165.97 113.772C165.776 114.436 165.992 115.157 166.517 115.596C167.015 116.095 167.768 116.226 168.4 115.924C168.73 115.761 169.032 115.545 169.295 115.286C169.732 114.874 169.997 114.306 170.034 113.7C170.169 113.702 170.302 113.671 170.422 113.61C170.902 113.026 171.36 112.424 171.845 111.803L170.661 110.84L170.135 111.462ZM168.827 113.67C168.719 113.892 168.578 114.095 168.408 114.272C168.288 114.417 168.111 114.5 167.926 114.5C167.58 114.5 167.295 114.21 167.295 113.857C167.295 113.725 167.335 113.595 167.41 113.487C167.496 113.341 167.595 113.203 167.704 113.074C167.902 112.818 168.105 112.566 168.307 112.314C168.341 112.289 168.378 112.27 168.417 112.256C169.114 112.73 169.179 112.931 168.826 113.67L168.827 113.67Z" fill="white"/>
<path d="M98.9642 111.301L101.713 114.842C102.193 114.497 102.607 114.064 102.932 113.565C103.196 113.159 103.347 112.688 103.371 112.202C103.397 110.917 102.792 109.974 101.749 109.352C99.7124 108.137 97.4665 109.692 97.0343 111.517C96.9535 111.85 96.93 112.195 96.9649 112.536C97.1337 114.005 98.3617 115.382 99.841 115.775L100.336 114.621C100.173 114.506 100.028 114.421 99.9013 114.312C99.597 114.052 99.2861 113.797 99.0063 113.511C98.7197 113.221 98.5447 112.836 98.5136 112.426C98.4343 111.994 98.6109 111.553 98.9642 111.301ZM101.561 111.009C102.009 111.585 101.996 112.087 101.477 112.631L99.9289 110.63C100.522 110.268 101.101 110.416 101.561 111.009Z" fill="white"/>
<path d="M125.824 124.858C125.822 124.858 125.819 124.858 125.817 124.858C124.093 124.858 122.674 126.304 122.674 128.061C122.674 128.084 122.674 128.107 122.675 128.13C122.675 129.831 123.874 131.307 125.942 131.322C128.058 131.337 129.065 129.57 129.064 128.088C129.077 126.276 127.673 124.876 125.824 124.858ZM125.863 129.712C125.852 129.713 125.841 129.713 125.831 129.713C125.022 129.713 124.357 129.035 124.357 128.211C124.357 128.196 124.358 128.18 124.358 128.164C124.351 127.184 124.999 126.457 125.875 126.462C125.904 126.46 125.932 126.459 125.961 126.459C126.735 126.459 127.372 127.108 127.372 127.897C127.372 127.931 127.371 127.964 127.369 127.998C127.358 129.146 126.562 129.774 125.863 129.713V129.712Z" fill="white"/>
<path d="M111.124 118.969C109.513 118.93 107.945 120.315 107.918 122.276C107.895 123.978 109.454 125.473 111.197 125.484C112.889 125.495 114.329 123.999 114.338 122.22C114.346 120.467 112.886 119.01 111.124 118.969ZM111.068 123.849C110.264 123.847 109.604 123.171 109.604 122.352C109.604 122.34 109.604 122.328 109.604 122.315C109.604 121.393 110.34 120.587 111.187 120.58C112 120.579 112.674 121.252 112.689 122.081C112.684 123.005 111.915 123.845 111.068 123.85V123.849Z" fill="white"/>
<path d="M109.218 117.801C109.095 117.653 108.963 117.515 108.822 117.386C108.554 117.177 108.354 116.891 108.247 116.565C108.049 116.054 107.718 115.606 107.29 115.272C106.321 114.439 105.238 114.221 104.078 114.738C102.917 115.205 102.135 116.338 102.097 117.61C101.975 119.614 103.87 121.325 105.824 121.015C106.182 120.991 106.524 120.849 106.796 120.61C106.657 120.387 106.527 120.177 106.395 119.967C106.256 119.746 106.115 119.526 105.99 119.331C105.706 119.383 105.417 119.411 105.128 119.414C104.346 119.362 103.731 118.692 103.731 117.894C103.731 117.831 103.735 117.769 103.742 117.707C103.852 116.801 104.704 116.089 105.544 116.203C106.277 116.322 106.852 116.92 106.952 117.669C106.956 117.82 107.001 117.967 107.084 118.093C107.405 118.422 107.758 118.719 108.12 119.048L109.218 117.801Z" fill="white"/>
<path d="M179.961 67.9006C179.784 67.8572 179.618 67.7725 179.478 67.653C178.91 67.1367 178.821 66.2535 179.275 65.6307C179.32 65.57 179.36 65.5059 179.401 65.4452L178.897 63.9834C178.201 64.5188 177.727 65.1195 177.678 65.9783C177.617 66.9234 177.918 67.8565 178.517 68.5808C179.072 69.2725 179.819 69.5129 180.753 69.4448C180.606 69.0082 180.466 68.6466 180.365 68.2743C180.324 68.0746 180.16 67.9237 179.961 67.9006Z" fill="white"/>
<path d="M141.192 86.8324C140.631 86.5137 140.052 86.2264 139.46 85.9716C139.17 85.8386 138.86 85.7534 138.529 85.6356C138.547 85.3087 138.571 84.9986 138.581 84.6883C138.603 84.0453 138.311 83.7406 137.685 83.7C137.303 83.6834 136.923 83.6338 136.549 83.551C134.847 83.1348 133.44 82.1734 132.141 81.0243C131.918 80.827 131.9 80.6681 132.074 80.3621C132.429 79.7415 132.766 79.1055 133.171 78.5201C134.584 76.5284 136.22 74.7106 138.045 73.1041C139.207 72.0565 140.41 71.0603 141.813 70.3521C141.922 70.2947 142.022 70.2203 142.108 70.1315C142.729 69.5044 143.356 68.8811 143.962 68.2391C144.217 67.996 144.363 67.6554 144.363 67.2993C144.363 66.9705 144.239 66.6539 144.017 66.4151C143.338 65.6711 142.631 64.9511 141.904 64.2568C141.403 63.768 140.598 63.7792 140.11 64.2823C139.996 64.3864 139.89 64.5012 139.782 64.6116C136.061 68.4054 132.339 72.2 128.618 75.9951C128.448 76.2178 128.195 76.3589 127.919 76.3841C127.531 76.4115 127.168 76.5925 126.909 76.8881C125.813 78.0053 124.709 79.1148 123.623 80.2416C123.285 80.5656 123.094 81.018 123.094 81.4908C123.094 81.9569 123.28 82.4035 123.61 82.7268C124.31 83.4725 125.035 84.1941 125.756 84.9189C126.095 85.2969 126.597 85.4801 127.095 85.4076C127.541 85.332 127.744 85.5353 127.917 85.9137C127.752 85.9879 127.6 86.0577 127.447 86.1232C126.73 86.4057 126.062 86.8027 125.469 87.2992C124.727 87.9059 124.303 88.8302 124.321 89.7988C124.332 94.8349 124.326 99.8708 124.328 104.907C124.324 105.079 124.34 105.251 124.375 105.419C124.464 105.767 124.775 106.013 125.129 106.013C125.357 106.013 125.574 105.911 125.722 105.734C125.873 105.553 125.948 105.319 125.93 105.083C125.927 104.317 125.927 103.55 125.93 102.784C125.93 102.652 125.952 102.52 125.967 102.352C126.066 102.388 126.164 102.429 126.259 102.474C127.31 103.028 128.433 103.425 129.594 103.654C129.714 103.682 129.836 103.697 129.959 103.7C129.965 103.7 129.972 103.7 129.979 103.7C130.409 103.7 130.764 103.339 130.764 102.9C130.764 102.567 130.56 102.267 130.253 102.151C130.083 102.084 129.894 102.068 129.72 102.011C128.947 101.759 128.165 101.529 127.41 101.231C127.046 101.065 126.707 100.849 126.401 100.588C126.075 100.34 125.894 99.9389 125.923 99.5252C125.943 98.775 125.927 98.024 125.931 97.2731C125.939 97.1514 125.956 97.0302 125.98 96.9107C126.465 97.1528 126.894 97.3959 127.344 97.586C129.346 98.432 131.448 98.7217 133.599 98.7217C133.661 98.7234 133.722 98.7195 133.783 98.7102C134.078 98.6643 134.322 98.4483 134.409 98.1565C134.502 97.8838 134.434 97.5798 134.234 97.3753C134.063 97.1922 133.822 97.094 133.575 97.1067C132.809 97.063 132.042 97.0283 131.28 96.9459C130.118 96.8281 128.979 96.5348 127.902 96.0757C127.373 95.8607 126.884 95.5566 126.455 95.1762C126.188 94.982 126.008 94.6871 125.955 94.3576C125.921 93.6637 125.944 92.9668 125.944 92.1976C126.345 92.4102 126.671 92.6032 127.014 92.7621C127.362 92.9238 127.721 93.0633 128.083 93.1919C128.43 93.3153 128.783 93.4252 129.14 93.5166C129.511 93.6126 129.889 93.6858 130.266 93.7532C130.643 93.8207 131.023 93.8778 131.404 93.9212C131.784 93.9647 132.167 93.9959 132.55 94.016C132.917 94.0357 133.286 94.04 133.654 94.04C134.038 94.04 134.422 94.0352 134.805 94.016C135.188 93.9968 135.57 93.9644 135.951 93.92C136.332 93.8756 136.711 93.8154 137.087 93.746C137.464 93.6767 137.841 93.5994 138.212 93.5036C138.568 93.412 138.922 93.3059 139.269 93.1811C139.63 93.0515 139.986 92.9034 140.334 92.7417C140.672 92.5847 140.998 92.4001 141.337 92.2235C141.357 92.2737 141.372 92.3255 141.382 92.3783C141.386 93.8171 141.388 95.2559 141.389 96.6947C141.391 97.0127 141.264 97.3182 141.038 97.537C140.81 97.7679 140.56 97.9762 140.293 98.1589C139.693 98.5386 139.041 98.8263 138.358 99.013C138.064 99.1011 137.765 99.1714 137.471 99.2593C137.162 99.3296 136.928 99.5921 136.888 99.9125C136.88 99.9586 136.876 100.005 136.876 100.052C136.876 100.492 137.231 100.854 137.663 100.854C137.743 100.854 137.823 100.841 137.9 100.816C138.983 100.586 140.026 100.187 140.989 99.6327C141.098 99.5681 141.216 99.5197 141.391 99.4335V104.861C141.386 105.018 141.391 105.174 141.406 105.33C141.459 105.722 141.792 106.018 142.182 106.018C142.575 106.018 142.911 105.716 142.959 105.318C142.974 105.147 142.978 104.975 142.972 104.803V94.058C142.972 92.5878 142.962 91.1178 142.976 89.6476C142.994 88.919 142.719 88.2136 142.214 87.6974C141.912 87.3645 141.569 87.0736 141.192 86.8324ZM136.887 85.2941C136.897 85.4167 136.896 85.5398 136.884 85.6622C136.66 86.8843 136.063 88.0039 135.179 88.8611C135 89.0548 134.747 89.1599 134.486 89.1491C133.538 89.1321 132.589 89.1427 131.594 89.1427C130.99 87.3837 130.043 85.7668 128.812 84.3888L130.988 82.1753C132.683 83.6592 134.563 84.8849 136.887 85.2941ZM141.125 65.7189C141.495 66.1015 141.904 66.5234 142.312 66.9465C142.408 67.0461 142.499 67.1498 142.614 67.275C142.533 67.377 142.466 67.4757 142.385 67.5616C141.686 68.3478 140.875 69.0237 139.98 69.5668C138.763 70.2707 137.709 71.2189 136.675 72.177C134.956 73.7403 133.398 75.4772 132.024 77.3609C131.727 77.7752 131.451 78.2052 131.19 78.5916C130.717 78.1116 130.255 77.6437 129.836 77.2201L141.125 65.7189ZM126.923 83.8147C126.176 83.0647 125.423 82.3027 124.724 81.5667C125.901 80.3679 127.034 79.2132 128.184 78.043C128.976 78.7282 129.714 79.4768 130.389 80.2815C130.218 80.5966 127.346 83.5416 126.923 83.8157V83.8147ZM141.203 90.0666C140.977 90.3604 140.711 90.6198 140.413 90.8373C139.644 91.3586 138.785 91.7238 137.88 91.9137C134.708 92.6649 131.556 92.6409 128.44 91.6055C127.794 91.401 127.188 91.0818 126.65 90.6626C125.71 89.9104 125.697 89.2053 126.622 88.4507C127.283 87.9386 128.038 87.5656 128.842 87.3535C128.898 87.3482 128.955 87.3506 129.01 87.3609C129.36 87.8942 129.642 88.4702 129.85 89.0752C129.701 89.1153 129.586 89.1383 129.475 89.1772C129.131 89.296 128.903 89.6354 128.919 90.0059C128.956 90.3928 129.259 90.7022 129.638 90.741C129.776 90.7528 129.914 90.7564 130.052 90.7523H137.279C137.417 90.7569 137.555 90.7526 137.693 90.7398C138.085 90.6906 138.383 90.3474 138.383 89.945C138.383 89.5377 138.078 89.1921 137.681 89.1487C137.52 89.1292 137.357 89.1247 137.159 89.111L138.158 87.245C139.147 87.5445 140.105 87.9011 140.888 88.6223C141.011 88.739 141.121 88.8712 141.212 89.0157C141.448 89.3248 141.445 89.7626 141.203 90.0676V90.0666Z" fill="white"/>
<path d="M144.004 83.4909C143.594 83.4482 143.18 83.4496 142.77 83.4957C142.373 83.5449 142.074 83.8965 142.082 84.3038C142.103 84.7269 142.438 85.0694 142.853 85.0917C143.036 85.1068 143.22 85.0943 143.404 85.0943C143.573 85.0943 143.742 85.1032 143.91 85.0926C144.323 85.0833 144.668 84.753 144.702 84.3328C144.731 83.9087 144.419 83.5327 144.004 83.4909Z" fill="white"/>
<path d="M138.062 77.4785C137.644 77.4417 137.272 77.7607 137.235 78.1857C137.19 78.588 137.187 78.9943 137.228 79.397C137.254 79.8088 137.594 80.1333 137.999 80.1333C138.026 80.1333 138.053 80.1319 138.079 80.129C138.493 80.0925 138.813 79.7337 138.81 79.3108C138.819 79.1397 138.811 78.9679 138.811 78.7963C138.811 78.6247 138.82 78.4526 138.809 78.2817C138.801 77.8598 138.475 77.5094 138.062 77.4785Z" fill="white"/>
<path d="M142.125 79.2339C142.029 79.2423 141.935 79.2725 141.852 79.3225C141.463 79.6688 141.098 80.0422 140.76 80.4399C140.542 80.7149 140.655 81.1272 140.911 81.374C141.162 81.6488 141.582 81.6855 141.876 81.4582C142.217 81.1685 142.533 80.8503 142.821 80.5064C143.016 80.2702 143.035 79.9294 142.87 79.6712C142.724 79.393 142.434 79.2229 142.125 79.2339Z" fill="white"/>
<path d="M162.162 84.5459C162.161 84.5459 162.161 84.5459 162.16 84.5459C161.941 84.5459 161.762 84.729 161.762 84.9517C161.762 84.9717 161.763 84.9913 161.766 85.011C161.766 85.012 161.766 85.0132 161.766 85.0141C161.766 85.2316 161.941 85.4101 162.155 85.4101C162.163 85.4101 162.171 85.4099 162.18 85.4094C162.391 85.3957 162.558 85.2148 162.558 84.999C162.558 84.9889 162.557 84.9786 162.556 84.9683C162.557 84.963 162.557 84.9577 162.557 84.9525C162.557 84.7312 162.379 84.5483 162.162 84.5459Z" fill="white"/>
<path d="M105.963 81.0558C106.184 81.0558 106.367 80.8746 106.374 80.6497C106.351 80.445 106.192 80.2816 105.992 80.2568C105.991 80.2568 105.99 80.2568 105.99 80.2568C105.769 80.2568 105.588 80.4416 105.588 80.6663V80.6665C105.596 80.8743 105.759 81.044 105.963 81.0558Z" fill="white"/>
<path d="M115.146 106.14C114.926 106.139 114.743 106.319 114.735 106.543C114.758 106.747 114.915 106.91 115.115 106.939C115.335 106.936 115.516 106.752 115.517 106.527C115.515 106.319 115.35 106.148 115.146 106.14Z" fill="white"/>
<path d="M106.378 89.442C106.371 89.227 106.196 89.0537 105.985 89.0537C105.769 89.0537 105.592 89.2344 105.592 89.454C105.592 89.4581 105.592 89.4619 105.592 89.466C105.599 89.6811 105.774 89.8543 105.985 89.8543C106.201 89.8543 106.378 89.6736 106.378 89.454C106.378 89.4499 106.378 89.4461 106.378 89.442Z" fill="white"/>
<path d="M154.268 104.577C154.05 104.594 153.877 104.779 153.871 105.002C153.889 105.21 154.061 105.372 154.266 105.373C154.471 105.376 154.644 105.212 154.656 105.003C154.664 104.778 154.489 104.586 154.268 104.577Z" fill="white"/>
<path d="M155.717 102.937C155.513 102.931 155.337 103.09 155.319 103.297C155.308 103.521 155.476 103.716 155.696 103.733C155.898 103.723 156.068 103.569 156.101 103.366C156.107 103.142 155.936 102.951 155.717 102.937Z" fill="white"/>
<path d="M118.513 61.2694C118.716 61.2562 118.88 61.092 118.898 60.8854C118.892 60.6615 118.716 60.4779 118.496 60.4678C118.294 60.4834 118.131 60.649 118.115 60.8554C118.115 60.8592 118.115 60.8628 118.115 60.8666C118.115 61.0877 118.294 61.2694 118.51 61.2694C118.511 61.2694 118.512 61.2694 118.513 61.2694Z" fill="white"/>
<path d="M122.334 110.929C122.13 110.945 121.973 111.125 121.981 111.333C121.993 111.54 122.156 111.708 122.359 111.722C122.577 111.711 122.754 111.53 122.764 111.307C122.745 111.085 122.553 110.916 122.334 110.929Z" fill="white"/>
<path d="M147.4 109.921C147.192 109.93 147.025 110.108 147.025 110.321C147.025 110.527 147.182 110.702 147.384 110.72C147.605 110.728 147.795 110.554 147.81 110.33C147.8 110.106 147.62 109.927 147.4 109.921Z" fill="white"/>
<path d="M128.569 112.898C128.365 112.887 128.184 113.04 128.158 113.247C128.155 113.264 128.154 113.281 128.154 113.298C128.154 113.518 128.332 113.698 128.547 113.698C128.763 113.698 128.94 113.518 128.94 113.298C128.94 113.086 128.776 112.91 128.569 112.898Z" fill="white"/>
<path d="M124.308 58.3394C124.508 58.3142 124.668 58.1551 124.698 57.9518C124.696 57.7272 124.517 57.5424 124.296 57.5381C124.086 57.5414 123.914 57.7188 123.914 57.9336C123.914 57.9434 123.915 57.953 123.915 57.9629C123.939 58.1681 124.105 58.3279 124.308 58.3394Z" fill="white"/>
<path d="M134.909 56.6422C135.129 56.64 135.309 56.455 135.309 56.2306C135.303 56.0158 135.128 55.8428 134.917 55.8428C134.908 55.8428 134.899 55.843 134.89 55.8437C134.689 55.8697 134.534 56.0422 134.527 56.2488C134.549 56.4536 134.708 56.6172 134.909 56.6422Z" fill="white"/>
<path d="M108.613 97.421C108.391 97.4171 108.203 97.5954 108.191 97.8213C108.204 98.0298 108.365 98.2 108.568 98.2221C108.573 98.2223 108.578 98.2223 108.582 98.2223C108.798 98.2223 108.976 98.0411 108.976 97.821C108.976 97.6125 108.816 97.437 108.613 97.421Z" fill="white"/>
<path d="M135.011 113.382C134.808 113.394 134.64 113.554 134.615 113.76C134.612 113.984 134.788 114.173 135.008 114.181C135.212 114.181 135.384 114.018 135.4 113.811C135.404 113.586 135.231 113.396 135.011 113.382Z" fill="white"/>
<path d="M139.241 57.1368C139.444 57.1174 139.605 56.9484 139.618 56.741C139.611 56.5152 139.426 56.334 139.204 56.335C139 56.3508 138.839 56.5234 138.834 56.7319C138.834 56.7326 138.834 56.7331 138.834 56.7338C138.834 56.9549 139.013 57.137 139.23 57.137C139.233 57.137 139.237 57.1368 139.241 57.1368Z" fill="white"/>
<path d="M160.133 95.3896C159.913 95.3952 159.735 95.5807 159.734 95.8048C159.736 96.0134 159.901 96.1855 160.106 96.1917C160.326 96.1932 160.509 96.0115 160.514 95.7868C160.491 95.5824 160.334 95.4184 160.133 95.3896Z" fill="white"/>
<path d="M161.68 82.7162C161.684 82.925 161.847 83.0978 162.051 83.1112C162.272 83.1134 162.458 82.9358 162.469 82.7111C162.456 82.5038 162.297 82.3343 162.094 82.3115C161.873 82.3115 161.689 82.4913 161.68 82.7162Z" fill="white"/>
<path d="M149.338 108.794C149.317 108.79 149.295 108.788 149.273 108.788C149.057 108.788 148.879 108.969 148.879 109.19C148.879 109.385 149.019 109.553 149.208 109.586C149.229 109.589 149.251 109.591 149.273 109.591C149.489 109.591 149.667 109.41 149.667 109.19C149.667 108.994 149.527 108.826 149.338 108.794Z" fill="white"/>
<path d="M162.075 86.8193C161.872 86.833 161.707 86.9931 161.682 87.1983C161.682 87.2053 161.682 87.2124 161.682 87.2194C161.682 87.4388 161.859 87.6195 162.074 87.6195C162.29 87.6195 162.467 87.4388 162.467 87.2194C162.467 87.0003 162.29 86.8198 162.075 86.8193Z" fill="white"/>
<path d="M157.022 101.179C157.021 101.179 157.02 101.179 157.019 101.179C156.803 101.179 156.625 101.36 156.625 101.58C156.625 101.799 156.801 101.98 157.016 101.982C157.22 101.975 157.39 101.814 157.411 101.607C157.414 101.383 157.241 101.193 157.022 101.179Z" fill="white"/>
<path d="M120.424 109.929C120.218 109.94 120.05 110.11 120.039 110.321C120.034 110.533 120.197 110.713 120.404 110.726C120.408 110.726 120.412 110.726 120.415 110.726C120.636 110.726 120.818 110.543 120.821 110.318C120.796 110.11 120.629 109.946 120.424 109.929Z" fill="white"/>
<path d="M143.475 111.718C143.272 111.73 143.105 111.889 143.08 112.095C143.08 112.099 143.08 112.102 143.08 112.107C143.08 112.327 143.258 112.508 143.474 112.508C143.675 112.508 143.845 112.35 143.865 112.146C143.865 111.922 143.694 111.734 143.475 111.718Z" fill="white"/>
<path d="M139.31 112.897C139.308 112.897 139.306 112.897 139.304 112.897C139.091 112.897 138.916 113.076 138.916 113.293C138.916 113.298 138.916 113.304 138.916 113.309C138.931 113.516 139.094 113.682 139.296 113.696C139.515 113.683 139.69 113.5 139.697 113.276C139.68 113.07 139.513 112.907 139.31 112.897Z" fill="white"/>
<path d="M128.473 57.1351C128.678 57.1322 128.847 56.9676 128.86 56.7598C128.861 56.5344 128.685 56.3458 128.464 56.335C128.262 56.353 128.098 56.515 128.074 56.7209C128.074 56.723 128.074 56.725 128.074 56.7271C128.074 56.9503 128.254 57.1344 128.473 57.1351Z" fill="white"/>
<path d="M145.398 59.1052C145.618 59.098 145.795 58.9122 145.797 58.6878C145.792 58.4713 145.616 58.2959 145.403 58.2959C145.188 58.2959 145.01 58.4769 145.01 58.6969C145.01 58.7056 145.01 58.7145 145.011 58.7231C145.028 58.9302 145.194 59.0941 145.398 59.1052Z" fill="white"/>
<path d="M120.32 60.1161C120.331 60.1171 120.342 60.1176 120.353 60.1176C120.563 60.1176 120.738 59.9503 120.753 59.7374C120.753 59.7314 120.753 59.7254 120.753 59.7192C120.753 59.4998 120.576 59.3193 120.361 59.3193C120.152 59.3193 119.978 59.4888 119.969 59.7012C119.966 59.9092 120.118 60.0883 120.32 60.1161Z" fill="white"/>
<path d="M116.746 62.5529C116.948 62.5361 117.112 62.376 117.137 62.1711C117.139 61.9467 116.96 61.7604 116.74 61.7568C116.536 61.7554 116.365 61.922 116.358 62.1298C116.357 62.1344 116.357 62.1392 116.357 62.1437C116.357 62.3631 116.531 62.5455 116.746 62.5529Z" fill="white"/>
<path d="M109.588 70.7471C109.803 70.7452 109.979 70.5645 109.979 70.3456C109.979 70.1303 109.809 69.9515 109.598 69.9443C109.596 69.9443 109.595 69.9443 109.593 69.9443C109.377 69.9443 109.199 70.1255 109.199 70.3456C109.199 70.564 109.374 70.7445 109.588 70.7471Z" fill="white"/>
<path d="M108.547 72.6843C108.767 72.6788 108.947 72.4988 108.957 72.2751C108.95 72.0615 108.775 71.8896 108.566 71.8896C108.351 71.8896 108.174 72.0699 108.174 72.2888C108.174 72.2892 108.174 72.2897 108.174 72.2902C108.183 72.4978 108.344 72.668 108.547 72.6843Z" fill="white"/>
<path d="M107.684 74.6881C107.887 74.6824 108.053 74.5146 108.061 74.3075C108.064 74.0831 107.886 73.8954 107.666 73.8896C107.465 73.9136 107.305 74.0749 107.279 74.2794C107.281 74.5043 107.463 74.6881 107.684 74.6881Z" fill="white"/>
<path d="M106.339 78.9007C106.35 78.9017 106.361 78.9022 106.372 78.9022C106.581 78.9022 106.756 78.7327 106.767 78.5199C106.767 78.516 106.767 78.5124 106.767 78.5086C106.767 78.2871 106.59 78.1039 106.372 78.1006C106.169 78.115 106.004 78.2789 105.984 78.4858C105.986 78.6934 106.137 78.871 106.339 78.9007Z" fill="white"/>
<path d="M161.422 80.5332C161.436 80.7557 161.615 80.9333 161.833 80.9412C162.053 80.9244 162.22 80.7276 162.206 80.5039C162.186 80.2971 162.009 80.1394 161.806 80.1478C161.603 80.1639 161.44 80.3275 161.422 80.5332Z" fill="white"/>
<path d="M161.022 78.3713C161.022 78.5936 161.202 78.7762 161.42 78.7762C161.425 78.7762 161.431 78.7762 161.436 78.776C161.641 78.7462 161.794 78.565 161.793 78.3543C161.779 78.1433 161.602 77.9787 161.395 77.9835C161.392 77.9835 161.39 77.9835 161.387 77.9835C161.187 77.9835 161.021 78.1517 161.021 78.3565C161.021 78.3613 161.021 78.3663 161.022 78.3713Z" fill="white"/>
<path d="M158.22 99.3506C158.012 99.3475 157.835 99.5095 157.815 99.72C157.815 99.7301 157.814 99.7401 157.814 99.7505C157.814 99.9689 157.991 100.149 158.205 100.149C158.417 100.149 158.593 99.9722 158.596 99.756C158.586 99.5457 158.425 99.3725 158.22 99.3506Z" fill="white"/>
<path d="M122.306 59.1396C122.508 59.1273 122.667 58.955 122.667 58.7494C122.667 58.5348 122.494 58.3584 122.283 58.3584C122.083 58.3584 121.914 58.5185 121.9 58.7222C121.9 58.7232 121.9 58.7239 121.9 58.7249C121.9 58.9519 122.083 59.1389 122.306 59.1396Z" fill="white"/>
<path d="M158.178 70.6122C158.381 70.5958 158.54 70.4204 158.54 70.2123C158.54 69.997 158.37 69.818 158.159 69.8115C157.947 69.8168 157.775 69.9958 157.775 70.2118C157.775 70.4314 157.953 70.6122 158.168 70.6122C158.172 70.6122 158.175 70.6122 158.178 70.6122Z" fill="white"/>
<path d="M110.773 68.8653C110.981 68.8598 111.151 68.6887 111.159 68.477C111.15 68.255 110.969 68.0771 110.751 68.0771C110.746 68.0771 110.74 68.0771 110.735 68.0774C110.528 68.0968 110.37 68.2799 110.377 68.4919C110.39 68.7031 110.566 68.8689 110.773 68.8653Z" fill="white"/>
<path d="M113.507 65.4793C113.712 65.482 113.887 65.3233 113.908 65.116C113.919 64.8918 113.75 64.6967 113.531 64.6787C113.529 64.6787 113.528 64.6787 113.526 64.6787C113.31 64.6787 113.133 64.8594 113.133 65.0793C113.133 65.2919 113.299 65.4693 113.507 65.4793Z" fill="white"/>
<path d="M112.145 102.968C112.144 102.968 112.144 102.968 112.143 102.968C111.926 102.968 111.746 103.151 111.746 103.373C111.746 103.377 111.746 103.381 111.746 103.385C111.756 103.595 111.926 103.764 112.133 103.766C112.338 103.753 112.504 103.583 112.515 103.373C112.509 103.164 112.349 102.989 112.145 102.968Z" fill="white"/>
<path d="M150.959 62.4696C150.966 62.4699 150.972 62.4701 150.978 62.4701C151.194 62.4701 151.37 62.2896 151.37 62.0705C151.37 61.8516 151.194 61.6714 150.979 61.6709C150.768 61.6769 150.598 61.8557 150.598 62.0707C150.598 62.2783 150.756 62.4531 150.959 62.4696Z" fill="white"/>
<path d="M116.819 107.554C116.812 107.554 116.806 107.554 116.8 107.554C116.582 107.554 116.403 107.736 116.402 107.958C116.42 108.167 116.586 108.334 116.792 108.35C116.999 108.341 117.167 108.171 117.179 107.961C117.188 107.749 117.026 107.567 116.819 107.554Z" fill="white"/>
<path d="M147.376 60.0776C147.581 60.0589 147.74 59.881 147.739 59.671C147.727 59.4615 147.555 59.2959 147.348 59.2959C147.139 59.2959 146.964 59.4677 146.957 59.6813C146.961 59.9002 147.139 60.0783 147.354 60.0783C147.361 60.0783 147.369 60.0781 147.376 60.0776Z" fill="white"/>
<path d="M126.462 112.421C126.256 112.411 126.074 112.565 126.047 112.774C126.039 113.002 126.216 113.196 126.439 113.206C126.645 113.195 126.813 113.031 126.833 112.822C126.832 112.611 126.669 112.435 126.462 112.421Z" fill="white"/>
<path d="M105.637 85.4574C105.638 85.4574 105.639 85.4574 105.639 85.4574C105.855 85.4574 106.033 85.2762 106.033 85.0559C106.033 84.8461 105.872 84.6697 105.667 84.6553C105.463 84.6529 105.288 84.8091 105.264 85.0153C105.252 85.2395 105.418 85.436 105.637 85.4574Z" fill="white"/>
<path d="M141.354 57.6075C141.56 57.5897 141.722 57.416 141.729 57.2055C141.708 56.9965 141.541 56.8318 141.335 56.8193C141.122 56.8215 140.947 57.001 140.947 57.2182C140.947 57.2285 140.948 57.2386 140.948 57.2489C140.964 57.4599 141.147 57.6209 141.354 57.6075Z" fill="white"/>
<path d="M130.634 56.8114C130.841 56.7944 131.001 56.611 130.993 56.3991C130.985 56.1872 130.81 56.018 130.602 56.0226C130.396 56.0324 130.227 56.1987 130.211 56.4082C130.222 56.6355 130.411 56.8155 130.634 56.8114Z" fill="white"/>
<path d="M132.772 56.6427C132.974 56.6237 133.136 56.4615 133.159 56.2563C133.16 56.0312 132.979 55.8447 132.758 55.8428C132.554 55.8452 132.386 56.0146 132.381 56.2227C132.381 56.2287 132.381 56.2349 132.381 56.2409C132.381 56.4603 132.557 56.641 132.772 56.6427Z" fill="white"/>
<path d="M160.845 76.6585C161.049 76.6432 161.209 76.4675 161.209 76.259C161.209 76.0454 161.042 75.8675 160.833 75.8584C160.617 75.8663 160.443 76.0494 160.443 76.2698C160.443 76.2767 160.444 76.2834 160.444 76.2904C160.462 76.5001 160.638 76.6619 160.845 76.6585Z" fill="white"/>
<path d="M160.845 93.2959C160.641 93.3024 160.474 93.4716 160.467 93.6799C160.46 93.8873 160.611 94.0685 160.813 94.0956C161.033 94.1107 161.227 93.9391 161.243 93.7145C161.243 93.4898 161.066 93.3031 160.845 93.2959Z" fill="white"/>
<path d="M160.061 74.5854C160.067 74.5856 160.073 74.5858 160.08 74.5858C160.296 74.5858 160.473 74.4054 160.473 74.1858C160.473 74.1848 160.473 74.1805 160.473 74.1793C160.473 73.9647 160.299 73.7881 160.089 73.7881C159.883 73.7881 159.712 73.9566 159.705 74.1661C159.702 74.3766 159.856 74.558 160.061 74.5854Z" fill="white"/>
<path d="M152.681 63.8676C152.885 63.8398 153.038 63.6583 153.035 63.4486C153.03 63.2369 152.856 63.0665 152.648 63.0694C152.442 63.0766 152.276 63.2489 152.271 63.4589C152.271 63.461 152.271 63.463 152.271 63.4651C152.271 63.6862 152.45 63.8678 152.667 63.8678C152.672 63.8678 152.676 63.8678 152.681 63.8676Z" fill="white"/>
<path d="M156.971 68.7747C157.178 68.7802 157.354 68.6124 157.361 68.4015C157.362 68.3919 157.362 68.3823 157.362 68.3727C157.362 68.1591 157.19 67.9834 156.98 67.9834C156.782 67.9834 156.614 68.1416 156.599 68.3436C156.597 68.3614 156.596 68.3792 156.596 68.3969C156.596 68.6043 156.763 68.7747 156.966 68.7747C156.968 68.7747 156.97 68.7747 156.971 68.7747Z" fill="white"/>
<path d="M112.065 67.132C112.066 67.132 112.066 67.132 112.067 67.132C112.277 67.132 112.45 66.9556 112.45 66.7413C112.45 66.527 112.277 66.3506 112.067 66.3506C111.858 66.3506 111.686 66.5243 111.684 66.7372C111.693 66.9475 111.859 67.1188 112.065 67.132Z" fill="white"/>
<path d="M154.206 65.3896C154.414 65.396 154.59 65.2276 154.597 65.0157C154.604 64.8049 154.451 64.6211 154.246 64.5933C154.24 64.593 154.234 64.5928 154.227 64.5928C154.011 64.5928 153.832 64.7747 153.832 64.9957C153.832 64.9964 153.832 64.9972 153.832 64.9979C153.832 65.0005 153.832 65.0029 153.832 65.0056C153.832 65.2151 154 65.3879 154.206 65.3896Z" fill="white"/>
<path d="M155.666 67.0212C155.874 67.0214 156.044 66.8484 156.045 66.6372C156.045 66.6307 156.046 66.6245 156.046 66.618C156.046 66.4128 155.88 66.2436 155.679 66.2427C155.668 66.2417 155.657 66.2412 155.647 66.2412C155.437 66.2412 155.264 66.4174 155.264 66.6314C155.264 66.8455 155.437 67.0217 155.647 67.0217C155.653 67.0217 155.66 67.0214 155.666 67.0212Z" fill="white"/>
<path d="M159.239 97.4053C159.031 97.4034 158.856 97.568 158.842 97.7787C158.842 98.0014 159.021 98.1846 159.24 98.1846C159.244 98.1846 159.249 98.1846 159.253 98.1843C159.461 98.1776 159.627 97.9995 159.623 97.7879C159.616 97.5774 159.445 97.4077 159.239 97.4053Z" fill="white"/>
<path d="M143.42 58.2549C143.623 58.2457 143.786 58.0729 143.786 57.8656C143.786 57.6517 143.613 57.4756 143.403 57.4756C143.397 57.4756 143.392 57.4758 143.386 57.4761C143.181 57.4849 143.012 57.652 142.998 57.8613C143 58.0785 143.176 58.2561 143.389 58.2561C143.399 58.2561 143.41 58.2556 143.42 58.2549Z" fill="white"/>
<path d="M126.348 57.6584C126.569 57.6584 126.751 57.4734 126.751 57.2483V57.2478C126.746 57.0402 126.58 56.8708 126.376 56.8664C126.371 56.8662 126.366 56.8662 126.361 56.8662C126.145 56.8662 125.968 57.0467 125.967 57.2665C125.989 57.471 126.148 57.6342 126.348 57.6584Z" fill="white"/>
<path d="M161.425 91.1943C161.219 91.2001 161.053 91.3746 161.053 91.5846C161.053 91.7989 161.226 91.975 161.436 91.975C161.646 91.975 161.819 91.7989 161.819 91.5846C161.819 91.5826 161.819 91.5805 161.819 91.5783C161.802 91.3681 161.632 91.202 161.425 91.1943Z" fill="white"/>
<path d="M141.383 112.406C141.177 112.421 141.019 112.602 141.028 112.812C141.028 113.017 141.194 113.186 141.395 113.186C141.4 113.186 141.405 113.186 141.409 113.186C141.616 113.187 141.787 113.017 141.792 112.807C141.792 112.805 141.792 112.803 141.792 112.801C141.792 112.584 141.617 112.405 141.404 112.405C141.397 112.405 141.39 112.405 141.383 112.406Z" fill="white"/>
<path d="M113.524 104.611C113.326 104.625 113.17 104.796 113.17 104.999C113.17 105.213 113.342 105.388 113.552 105.388C113.57 105.388 113.588 105.387 113.607 105.384C113.8 105.364 113.949 105.196 113.949 104.997C113.949 104.784 113.777 104.608 113.567 104.608C113.553 104.608 113.539 104.609 113.524 104.611Z" fill="white"/>
<path d="M130.675 113.233C130.469 113.246 130.303 113.416 130.291 113.626C130.291 113.628 130.291 113.63 130.291 113.632C130.291 113.851 130.468 114.031 130.682 114.031C130.897 114.031 131.074 113.851 131.074 113.632C131.074 113.413 130.897 113.233 130.682 113.233C130.68 113.233 130.678 113.233 130.675 113.233Z" fill="white"/>
<path d="M152.72 106.125C152.512 106.114 152.331 106.275 152.312 106.486C152.312 106.489 152.312 106.491 152.312 106.494C152.312 106.718 152.493 106.902 152.713 106.902C152.714 106.902 152.715 106.902 152.716 106.902C152.924 106.899 153.093 106.724 153.093 106.512C153.093 106.508 153.093 106.504 153.093 106.5C153.093 106.294 152.927 106.125 152.725 106.125C152.723 106.125 152.722 106.125 152.72 106.125Z" fill="white"/>
<path d="M132.857 113.382C132.641 113.383 132.463 113.565 132.463 113.786C132.463 113.793 132.463 113.8 132.463 113.808C132.476 114.013 132.645 114.175 132.847 114.175C133.057 114.175 133.23 113.998 133.23 113.784V113.784C133.225 113.573 133.063 113.399 132.857 113.382Z" fill="white"/>
<path d="M151.015 107.539C150.808 107.549 150.643 107.726 150.643 107.937C150.656 108.146 150.825 108.314 151.031 108.321C151.238 108.319 151.411 108.152 151.423 107.941C151.423 107.937 151.423 107.932 151.423 107.927C151.423 107.714 151.251 107.538 151.041 107.538C151.033 107.538 151.024 107.538 151.015 107.539Z" fill="white"/>
<path d="M118.604 108.812C118.597 108.812 118.59 108.812 118.584 108.812C118.369 108.812 118.192 108.992 118.192 109.211C118.192 109.213 118.192 109.214 118.192 109.216C118.192 109.222 118.191 109.228 118.191 109.234C118.191 109.439 118.357 109.609 118.559 109.609C118.56 109.609 118.56 109.609 118.561 109.609C118.566 109.609 118.57 109.609 118.575 109.609C118.778 109.609 118.946 109.442 118.952 109.235C118.96 109.025 118.809 108.84 118.604 108.812Z" fill="white"/>
<path d="M115.089 63.9435C115.295 63.9255 115.455 63.7477 115.455 63.537C115.453 63.3227 115.28 63.1475 115.069 63.1475C115.057 63.1475 115.044 63.1482 115.031 63.1494C114.839 63.1664 114.689 63.3323 114.689 63.5291C114.689 63.543 114.69 63.5567 114.692 63.5703C114.708 63.7803 114.882 63.9442 115.089 63.9435Z" fill="white"/>
<path d="M105.695 83.2479C105.708 83.2491 105.721 83.2499 105.733 83.2499C105.941 83.2499 106.112 83.0773 106.115 82.8659C106.122 82.6568 105.961 82.4783 105.756 82.4684C105.536 82.4557 105.345 82.6288 105.332 82.8524C105.334 83.0593 105.493 83.2326 105.695 83.2479Z" fill="white"/>
<path d="M149.231 61.1945C149.432 61.1883 149.595 61.0176 149.595 60.8122C149.595 60.8057 149.595 60.7995 149.594 60.7932C149.589 60.5813 149.415 60.4104 149.207 60.4133C149.203 60.4133 149.2 60.4131 149.197 60.4131C148.986 60.4131 148.812 60.59 148.812 60.8045C148.812 61.0193 148.986 61.196 149.197 61.196C149.208 61.196 149.219 61.1955 149.231 61.1945Z" fill="white"/>
<path d="M161.833 89.0146C161.627 89.0242 161.46 89.1951 161.452 89.4056C161.442 89.617 161.604 89.7992 161.812 89.8098C161.822 89.8105 161.831 89.811 161.841 89.811C162.048 89.811 162.218 89.6377 162.218 89.427C162.218 89.42 162.218 89.4128 162.217 89.4058C162.205 89.1961 162.039 89.0271 161.833 89.0146Z" fill="white"/>
<path d="M145.499 110.914C145.49 110.913 145.48 110.913 145.471 110.913C145.263 110.913 145.092 111.088 145.092 111.3C145.092 111.306 145.092 111.312 145.092 111.319C145.101 111.531 145.276 111.699 145.484 111.696C145.486 111.696 145.489 111.696 145.491 111.696C145.702 111.696 145.875 111.52 145.875 111.305C145.875 111.093 145.706 110.918 145.499 110.914Z" fill="white"/>
<path d="M106.776 91.6021C106.769 91.3936 106.599 91.2256 106.394 91.2256C106.186 91.2256 106.014 91.3989 106.012 91.6108C106.014 91.8352 106.195 92.0188 106.416 92.0188C106.419 92.0188 106.421 92.0188 106.424 92.0188C106.631 91.9998 106.788 91.8138 106.776 91.6021Z" fill="white"/>
<path d="M106.12 87.2658C106.115 87.0542 105.944 86.8826 105.736 86.8818C105.517 86.8866 105.34 87.0714 105.34 87.2944C105.34 87.2982 105.34 87.3021 105.34 87.3059C105.365 87.5157 105.547 87.6719 105.754 87.6602C105.956 87.659 106.121 87.49 106.121 87.2848C106.121 87.2786 106.12 87.2721 106.12 87.2658Z" fill="white"/>
<path d="M106.995 93.3674C106.985 93.3667 106.976 93.3662 106.966 93.3662C106.759 93.3662 106.588 93.5404 106.588 93.7519C106.588 93.7586 106.588 93.7651 106.588 93.7718C106.59 93.9792 106.758 94.1486 106.962 94.1486C106.966 94.1486 106.971 94.1486 106.975 94.1484C107.184 94.152 107.358 93.9813 107.363 93.7692C107.368 93.557 107.203 93.3773 106.995 93.3674Z" fill="white"/>
<path d="M110.792 101.218C110.586 101.234 110.427 101.416 110.434 101.626C110.436 101.834 110.605 102.004 110.809 102.004C110.812 102.004 110.814 102.004 110.817 102.004C110.821 102.004 110.825 102.004 110.829 102.004C111.031 102.004 111.197 101.835 111.197 101.629C111.197 101.627 111.197 101.626 111.197 101.625C111.197 101.622 111.197 101.618 111.197 101.615C111.197 101.397 111.021 101.218 110.807 101.218C110.802 101.218 110.797 101.218 110.792 101.218Z" fill="white"/>
<path d="M107.722 95.4223C107.711 95.4214 107.7 95.4209 107.689 95.4209C107.493 95.4209 107.331 95.5815 107.325 95.7804C107.324 95.791 107.324 95.8013 107.324 95.8119C107.324 96.0257 107.497 96.2016 107.707 96.2016C107.917 96.2016 108.089 96.0257 108.089 95.8119C108.089 95.6038 107.926 95.4305 107.722 95.4223Z" fill="white"/>
<path d="M159.226 72.5437C159.432 72.5242 159.592 72.3476 159.594 72.1371C159.58 71.9259 159.403 71.7613 159.195 71.7649C159.191 71.7647 159.186 71.7646 159.182 71.7646C158.979 71.7646 158.812 71.9346 158.812 72.141C158.812 72.1422 158.812 72.1431 158.812 72.1443C158.812 72.1472 158.812 72.1503 158.812 72.1532C158.812 72.368 158.986 72.5449 159.197 72.5449C159.207 72.5449 159.216 72.5444 159.226 72.5437Z" fill="white"/>
<path d="M106.937 76.7534C106.945 76.7539 106.953 76.7542 106.961 76.7542C107.164 76.7542 107.332 76.5833 107.332 76.3754C107.332 76.3649 107.332 76.3541 107.331 76.3435C107.321 76.1335 107.145 75.9682 106.939 75.9758C106.734 75.9761 106.566 76.1474 106.566 76.3558C106.566 76.3584 106.566 76.3608 106.566 76.3634C106.564 76.5737 106.731 76.7491 106.937 76.7534Z" fill="white"/>
<path d="M109.616 99.3826C109.415 99.3826 109.25 99.5508 109.25 99.755C109.25 99.7606 109.25 99.7661 109.25 99.7716C109.251 99.9837 109.422 100.158 109.63 100.158C109.839 100.158 110.01 99.9833 110.01 99.7709C110.01 99.762 110.01 99.7529 110.009 99.7438C110.001 99.5426 109.836 99.3818 109.639 99.3818C109.631 99.3818 109.623 99.3821 109.616 99.3826Z" fill="white"/>
<path d="M124.387 111.757C124.385 111.757 124.383 111.757 124.381 111.757C124.172 111.757 124 111.932 124 112.145C124 112.156 124 112.167 124.001 112.179C124.01 112.378 124.174 112.537 124.369 112.537C124.379 112.537 124.389 112.537 124.398 112.536C124.605 112.529 124.769 112.352 124.765 112.142C124.761 111.932 124.593 111.761 124.387 111.757Z" fill="white"/>
<path d="M137.109 56.7805C137.314 56.762 137.471 56.5818 137.465 56.3725C137.455 56.163 137.282 55.9964 137.076 55.9991C137.075 55.9991 137.074 55.9991 137.073 55.9991C136.868 55.9991 136.699 56.1707 136.699 56.3795C136.699 56.3802 136.699 56.3809 136.699 56.3816C136.699 56.3838 136.699 56.3859 136.699 56.3878C136.699 56.6036 136.874 56.7812 137.085 56.7812C137.093 56.7812 137.101 56.781 137.109 56.7805Z" fill="white"/>
<path d="M137.182 113.234C136.975 113.226 136.799 113.39 136.786 113.6C136.785 113.609 136.785 113.617 136.785 113.625C136.785 113.84 136.958 114.017 137.17 114.017C137.38 114.017 137.554 113.84 137.554 113.625C137.554 113.415 137.388 113.24 137.182 113.234Z" fill="white"/>
</g>
<path d="M90.8265 161.175H94.3565V162.135H92.2865V166.015H90.8265V161.175ZM95.0518 164.635H96.6118V166.015H95.0518V164.635ZM102.985 166.115C102.692 166.115 102.428 166.101 102.195 166.075C101.968 166.048 101.718 165.998 101.445 165.925C101.138 165.845 100.885 165.741 100.685 165.615C100.485 165.481 100.318 165.298 100.185 165.065C100.045 164.831 99.975 164.555 99.975 164.235V161.385C99.975 160.078 100.978 159.425 102.985 159.425C103.498 159.425 104.185 159.498 105.045 159.645V160.815C104.272 160.628 103.592 160.535 103.005 160.535C102.758 160.535 102.565 160.541 102.425 160.555C102.292 160.568 102.152 160.601 102.005 160.655C101.692 160.761 101.535 160.998 101.535 161.365V164.125C101.535 164.711 102.072 165.005 103.145 165.005C103.605 165.005 104.252 164.908 105.085 164.715V165.895C104.372 166.041 103.672 166.115 102.985 166.115ZM107.392 166.115C106.939 166.115 106.599 166.075 106.372 165.995C106.152 165.908 105.995 165.758 105.902 165.545C105.815 165.325 105.772 164.998 105.772 164.565C105.772 164.178 105.819 163.875 105.912 163.655C106.012 163.435 106.169 163.278 106.382 163.185C106.602 163.085 106.902 163.035 107.282 163.035H108.922V162.705C108.922 162.498 108.892 162.345 108.832 162.245C108.779 162.145 108.675 162.075 108.522 162.035C108.375 161.995 108.152 161.975 107.852 161.975C107.439 161.975 106.872 162.015 106.152 162.095V161.175C106.679 161.108 107.295 161.075 108.002 161.075C108.622 161.075 109.099 161.121 109.432 161.215C109.772 161.308 110.015 161.468 110.162 161.695C110.309 161.921 110.382 162.251 110.382 162.685V166.015H108.952V165.575C108.839 165.768 108.685 165.905 108.492 165.985C108.299 166.071 107.932 166.115 107.392 166.115ZM107.962 165.205C108.255 165.205 108.465 165.195 108.592 165.175C108.685 165.161 108.749 165.141 108.782 165.115C108.822 165.088 108.855 165.045 108.882 164.985C108.909 164.938 108.922 164.868 108.922 164.775V163.835H107.922C107.695 163.835 107.535 163.851 107.442 163.885C107.349 163.911 107.285 163.971 107.252 164.065C107.219 164.151 107.202 164.308 107.202 164.535C107.202 164.755 107.219 164.908 107.252 164.995C107.285 165.081 107.349 165.138 107.442 165.165C107.542 165.191 107.715 165.205 107.962 165.205ZM111.666 161.175H113.126V163.035H114.956V161.175H116.416V166.015H114.956V163.995H113.126V166.015H111.666V161.175ZM117.692 161.175H119.152V163.135C119.258 163.135 119.345 163.121 119.412 163.095C119.478 163.061 119.545 163.005 119.612 162.925L121.012 161.175H122.532L120.592 163.415C120.865 163.541 121.132 163.791 121.392 164.165L122.682 166.015H121.002L119.932 164.435C119.812 164.261 119.698 164.151 119.592 164.105C119.485 164.058 119.338 164.035 119.152 164.035V166.015H117.692V161.175ZM124.487 162.135H122.887V161.175H127.547V162.135H125.947V166.015H124.487V162.135ZM128.145 162.595H131.225V163.715H128.145V162.595ZM132.322 159.525H138.042V166.015H136.482V160.625H133.882V166.015H132.322V159.525ZM141.811 166.115C140.098 166.115 139.241 165.591 139.241 164.545V162.805C139.241 162.198 139.435 161.758 139.821 161.485C140.215 161.211 140.818 161.075 141.631 161.075C142.398 161.075 142.958 161.208 143.311 161.475C143.671 161.735 143.851 162.178 143.851 162.805V163.985H140.711V164.425C140.711 164.705 140.811 164.905 141.011 165.025C141.211 165.145 141.571 165.205 142.091 165.205C142.571 165.205 143.111 165.135 143.711 164.995V165.925C143.118 166.051 142.485 166.115 141.811 166.115ZM142.461 163.155V162.455C142.461 162.295 142.395 162.175 142.261 162.095C142.135 162.015 141.918 161.975 141.611 161.975C141.258 161.975 141.021 162.015 140.901 162.095C140.775 162.181 140.711 162.301 140.711 162.455V163.155H142.461ZM146.127 162.135H144.527V161.175H149.187V162.135H147.587V166.015H146.127V162.135ZM152.456 166.115C150.742 166.115 149.886 165.591 149.886 164.545V162.805C149.886 162.198 150.079 161.758 150.466 161.485C150.859 161.211 151.462 161.075 152.276 161.075C153.042 161.075 153.602 161.208 153.956 161.475C154.316 161.735 154.496 162.178 154.496 162.805V163.985H151.356V164.425C151.356 164.705 151.456 164.905 151.656 165.025C151.856 165.145 152.216 165.205 152.736 165.205C153.216 165.205 153.756 165.135 154.356 164.995V165.925C153.762 166.051 153.129 166.115 152.456 166.115ZM153.106 163.155V162.455C153.106 162.295 153.039 162.175 152.906 162.095C152.779 162.015 152.562 161.975 152.256 161.975C151.902 161.975 151.666 162.015 151.546 162.095C151.419 162.181 151.356 162.301 151.356 162.455V163.155H153.106ZM155.612 161.175H156.992V161.655C157.078 161.441 157.248 161.291 157.502 161.205C157.755 161.118 158.132 161.075 158.632 161.075C159.052 161.075 159.388 161.108 159.642 161.175C159.902 161.241 160.098 161.348 160.232 161.495C160.358 161.641 160.445 161.805 160.492 161.985C160.538 162.158 160.562 162.398 160.562 162.705V164.295C160.562 164.775 160.492 165.145 160.352 165.405C160.212 165.665 159.995 165.848 159.702 165.955C159.415 166.061 159.022 166.115 158.522 166.115C158.042 166.115 157.695 166.075 157.482 165.995C157.268 165.915 157.132 165.758 157.072 165.525V168.095H155.612V161.175ZM158.072 165.205C158.358 165.205 158.575 165.185 158.722 165.145C158.868 165.105 158.968 165.035 159.022 164.935C159.075 164.835 159.102 164.685 159.102 164.485V162.695C159.102 162.475 159.078 162.318 159.032 162.225C158.985 162.125 158.892 162.058 158.752 162.025C158.612 161.991 158.382 161.975 158.062 161.975C157.788 161.975 157.578 161.998 157.432 162.045C157.292 162.091 157.195 162.165 157.142 162.265C157.095 162.365 157.072 162.508 157.072 162.695V164.485C157.072 164.685 157.095 164.835 157.142 164.935C157.195 165.035 157.292 165.105 157.432 165.145C157.572 165.185 157.785 165.205 158.072 165.205ZM164.075 166.115C163.502 166.115 163.045 166.075 162.705 165.995C162.372 165.915 162.109 165.735 161.915 165.455C161.729 165.168 161.635 164.738 161.635 164.165V162.135C161.635 161.541 161.729 161.055 161.915 160.675C162.109 160.295 162.365 159.998 162.685 159.785C163.012 159.571 163.415 159.395 163.895 159.255L164.395 159.125C164.669 159.058 164.969 158.981 165.295 158.895C165.622 158.801 165.902 158.708 166.135 158.615V159.855C165.755 160.041 165.109 160.235 164.195 160.435C163.802 160.521 163.489 160.625 163.255 160.745C163.029 160.858 162.859 161.015 162.745 161.215C162.632 161.415 162.575 161.678 162.575 162.005V162.545H162.585C162.679 162.151 162.872 161.865 163.165 161.685C163.459 161.505 163.919 161.415 164.545 161.415C165.092 161.415 165.505 161.488 165.785 161.635C166.072 161.781 166.265 162.001 166.365 162.295C166.465 162.588 166.515 162.991 166.515 163.505V164.165C166.515 164.638 166.449 165.015 166.315 165.295C166.182 165.568 165.939 165.775 165.585 165.915C165.232 166.048 164.729 166.115 164.075 166.115ZM164.095 165.205C164.389 165.205 164.602 165.178 164.735 165.125C164.869 165.071 164.955 164.991 164.995 164.885C165.035 164.778 165.055 164.618 165.055 164.405V163.165C165.055 162.918 165.035 162.741 164.995 162.635C164.955 162.521 164.872 162.441 164.745 162.395C164.619 162.348 164.412 162.325 164.125 162.325C163.825 162.325 163.602 162.355 163.455 162.415C163.315 162.468 163.219 162.558 163.165 162.685C163.119 162.805 163.095 162.981 163.095 163.215V164.405C163.095 164.611 163.119 164.771 163.165 164.885C163.219 164.991 163.315 165.071 163.455 165.125C163.602 165.178 163.815 165.205 164.095 165.205ZM169.023 165.975L167.093 161.175H168.683L169.773 164.595L170.763 161.175H172.273L169.623 168.095H168.143L169.023 165.975ZM172.994 161.175H174.374V161.655C174.461 161.441 174.631 161.291 174.884 161.205C175.138 161.118 175.514 161.075 176.014 161.075C176.434 161.075 176.771 161.108 177.024 161.175C177.284 161.241 177.481 161.348 177.614 161.495C177.741 161.641 177.828 161.805 177.874 161.985C177.921 162.158 177.944 162.398 177.944 162.705V164.295C177.944 164.775 177.874 165.145 177.734 165.405C177.594 165.665 177.378 165.848 177.084 165.955C176.798 166.061 176.404 166.115 175.904 166.115C175.424 166.115 175.078 166.075 174.864 165.995C174.651 165.915 174.514 165.758 174.454 165.525V168.095H172.994V161.175ZM175.454 165.205C175.741 165.205 175.958 165.185 176.104 165.145C176.251 165.105 176.351 165.035 176.404 164.935C176.458 164.835 176.484 164.685 176.484 164.485V162.695C176.484 162.475 176.461 162.318 176.414 162.225C176.368 162.125 176.274 162.058 176.134 162.025C175.994 161.991 175.764 161.975 175.444 161.975C175.171 161.975 174.961 161.998 174.814 162.045C174.674 162.091 174.578 162.165 174.524 162.265C174.478 162.365 174.454 162.508 174.454 162.695V164.485C174.454 164.685 174.478 164.835 174.524 164.935C174.578 165.035 174.674 165.105 174.814 165.145C174.954 165.185 175.168 165.205 175.454 165.205ZM179.088 161.175H182.618V162.135H180.548V166.015H179.088V161.175Z" fill="url(#paint1_linear_1_2027)"/>
<defs>
<filter id="filter0_dd_1_2027" x="65.0781" y="15.0146" width="137.658" height="140" filterUnits="userSpaceOnUse" color-interpolation-filters="sRGB">
<feFlood flood-opacity="0" result="BackgroundImageFix"/>
<feColorMatrix in="SourceAlpha" type="matrix" values="0 0 0 0 0 0 0 0 0 0 0 0 0 0 0 0 0 0 127 0" result="hardAlpha"/>
<feOffset/>
<feGaussianBlur stdDeviation="5"/>
<feComposite in2="hardAlpha" operator="out"/>
<feColorMatrix type="matrix" values="0 0 0 0 0.8423 0 0 0 0 0.585 0 0 0 0 1 0 0 0 0.5 0"/>
<feBlend mode="normal" in2="BackgroundImageFix" result="effect1_dropShadow_1_2027"/>
<feColorMatrix in="SourceAlpha" type="matrix" values="0 0 0 0 0 0 0 0 0 0 0 0 0 0 0 0 0 0 127 0" result="hardAlpha"/>
<feOffset/>
<feGaussianBlur stdDeviation="5"/>
<feComposite in2="hardAlpha" operator="out"/>
<feColorMatrix type="matrix" values="0 0 0 0 0.8423 0 0 0 0 0.585 0 0 0 0 1 0 0 0 1 0"/>
<feBlend mode="normal" in2="effect1_dropShadow_1_2027" result="effect2_dropShadow_1_2027"/>
<feBlend mode="normal" in="SourceGraphic" in2="effect2_dropShadow_1_2027" result="shape"/>
</filter>
<linearGradient id="paint0_linear_1_2027" x1="13" y1="185.015" x2="284.99" y2="30.0609" gradientUnits="userSpaceOnUse">
<stop stop-color="#1F0B32"/>
<stop offset="1" stop-color="#1D1B7A"/>
</linearGradient>
<linearGradient id="paint1_linear_1_2027" x1="36.2589" y1="125.67" x2="36.8374" y2="173.227" gradientUnits="userSpaceOnUse">
<stop stop-color="#B195FF"/>
<stop offset="1" stop-color="#D795FF"/>
</linearGradient>
</defs>
</svg>
