<?xml version="1.0" encoding="UTF-8"?>
<!DOCTYPE svg PUBLIC "-//W3C//DTD SVG 1.1//EN" "http://www.w3.org/Graphics/SVG/1.1/DTD/svg11.dtd">
<!-- Creator: CorelDRAW 2020 (64-Bit) -->
<svg xmlns="http://www.w3.org/2000/svg" xml:space="preserve" width="100%" height="100%" version="1.1" shape-rendering="geometricPrecision" text-rendering="geometricPrecision" image-rendering="optimizeQuality" fill-rule="evenodd" clip-rule="evenodd"
viewBox="0 0 809.99 809.99"
 xmlns:xlink="http://www.w3.org/1999/xlink"
 xmlns:xodm="http://www.corel.com/coreldraw/odm/2003">
 <g id="Слой_x0020_1">
  <metadata id="CorelCorpID_0Corel-Layer"/>
  <g id="_3009108376688">
   <path fill="black" d="M67.23 365.33c-1.07,-4.33 0.45,-10.55 1.34,-15.11l1.85 -10.99c1.89,-9.43 10.78,-46.03 14.81,-51.52 1,-5.19 8.5,-24.12 11.59,-26.65 0.37,-5 19.2,-38.2 22.23,-40.22 3.96,-12.33 39.37,-51.33 49.97,-61.37 2.88,-2.72 3.8,-3.51 6.94,-6.88l38.78 -30.48c4.54,-3.22 13.17,-9.06 18.43,-11.07 1.54,-2.1 9.59,-5.78 13.05,-7.65 2.93,-1.59 11.3,-6.5 14.55,-6.69l26.93 -11.56c2.95,-1.76 9.06,-3.89 12.33,-3.94 4.58,-4.13 16.36,-5.65 23.16,-7.37 8.52,-2.15 17.39,-4.11 26.41,-5.33 4.35,-0.64 9.9,-2.28 14.02,-1.29 0.87,-0.52 -0.02,-0.29 2.14,-0.91l21.5 -1.94c8.65,-0.38 17.31,-0.7 25.98,-0.39 8.49,0.31 42.51,1.33 47.28,5.13 8.3,-0.6 37.96,7.69 46.62,10.49 7.08,2.29 37.2,12.9 40.26,16 5.89,1.46 14.89,6.81 20.39,9.84 1.15,0.63 2.32,1.15 3.4,1.78l3.13 2.53c6.02,1.26 32.83,20.81 37.94,24.83 12.27,9.65 23.94,19.67 34.11,29.93 10.13,10.2 20.01,21.56 29.82,34.22 3.92,5.07 24.11,33.04 24.99,38.52 0.18,0.17 0.43,0.19 0.5,0.53 0.07,0.33 0.38,0.41 0.48,0.54 2.93,3.81 10.48,18.49 11.19,22.4 2,1.63 11.98,25.49 12.06,29.33 0.67,0.76 0.55,0.51 1.23,1.8 0.69,1.3 0.48,0.9 1.06,2.56 0.75,2.13 1.16,3.57 1.63,5.76 1.71,3.69 7.59,24.23 7.24,28.41 1.48,1.65 0.43,-0.62 1.51,2.91 0.46,1.5 0.68,3.51 0.97,5.11 7.76,33.72 9.19,87.5 2.4,122.3 -0.35,2.5 -0.73,4.81 -1.12,7.16 -0.22,1.33 -0.29,2.32 -0.65,3.63 -0.91,3.29 0.04,1.33 -1.36,3.07 0.61,6.86 -10.96,46.38 -14.33,51.28 -1.24,5.85 -4.39,12.04 -6.63,17.54l-2.98 5.28c-0.5,2.95 -4.9,11.49 -6.32,14.04 -2.09,3.75 -4.9,10.78 -7.57,12.75 -1.32,4.89 -9.18,16.22 -12.07,20.4 -2.26,3.27 -3.92,5.76 -6.36,9.22 -0.91,1.3 -2.09,3 -3.26,4.54l-4.51 4.58c-0.39,1.66 0.09,0.41 -0.94,2.12 -2.27,3.76 -10.68,11.67 -13.13,16.28 -3.15,-0.87 -13.44,-7.77 -16.86,-9.76 -42.02,-24.44 -126.79,-42.3 -136.66,-49.52l-2.28 -0.54c-1.1,7.56 -0.26,20.2 -0.31,28.34 -0.05,8.55 -1.24,17.4 -3.23,25.45 -1.89,7.67 -13.96,36.44 -17.65,39.46 -1.64,4.86 -8.22,15.27 -11.57,20.32 -0.61,0.92 -1.09,1.78 -2.04,3.13l-3.15 3.28c-0.69,3.96 -11.56,16.66 -13.97,19.46 -7.23,8.39 -25.27,28.3 -34.73,32.8 -8.47,4.04 -19.48,4.01 -27,-0.93 -7.42,-4.14 -14.91,-12.36 -20.4,-17.93 -3.46,-3.51 -6.22,-5.74 -9.23,-9.83 -2.39,-3.25 -7.26,-7.07 -8.42,-11.01 -0.64,-0.39 -0.49,-0.17 -1.34,-0.95 -6.5,-5.91 -31.87,-47.69 -32.21,-53.81 -0.91,-0.98 -0.09,0.17 -1.28,-1.66 -0.45,-0.7 -0.96,-1.65 -1.27,-2.28 -1.21,-2.5 -1.36,-3.2 -1.96,-5.71 -4.41,-5.56 -7.49,-21.69 -8.29,-30.62 -1.24,-13.89 0.78,-24.64 0.94,-37.44 -4.44,0.32 -37.51,13.58 -43.69,13.26l-6.49 2.57c-2.13,0.59 -4.44,1.34 -6.73,2 -21.26,6.13 -45.85,14 -65.78,23.29 -8.56,3.98 -16.55,8.73 -24.19,12.42 -1.99,1.52 -7.35,4.94 -9.46,5.75 -4.29,-3.81 -4.22,-4.24 -7.34,-8.14l-7.31 -8.26c-11.39,-13.91 -29.54,-41.47 -37.09,-58.08 -6.76,-14.88 -12.64,-28.56 -18.18,-45 -3.03,-9 -12.6,-42.68 -11.92,-52.09 -3.45,-4.39 -4.77,-37.73 -4.81,-45.55 -0.04,-8.37 -0.3,-16.76 0.22,-25.13 0.24,-3.81 0.48,-7.42 0.74,-11.21 0.56,-8.15 0.33,-7.59 1.61,-10.85 0.07,-0.19 0.2,-0.47 0.33,-0.69zm36.06 -206.27l-25.79 36.89c-3.31,6.55 -7.77,13 -11.51,19.74 -3.76,6.78 -7.06,13.66 -10.92,20.96 -1.48,3.7 -3.54,9.43 -6.57,11.94 -0.28,3.34 -7.36,18.24 -9.31,23.46 -2.98,7.97 -5.75,16.13 -8.19,24.61 -5.03,17.53 -8.93,35.41 -11.28,54.41 -3.56,28.83 -3.81,33.06 -3.81,62.13 0,74.28 31.24,163.29 75.32,222.47l14.82 18.96c8.76,9.14 19.21,22.04 28.85,29.97 5.55,4.56 4.44,4.72 10.47,9.45l10.57 9.32c33,26.15 45.99,34.23 85.02,54.36 17.48,9.02 37.66,15.95 57.78,21.77 70.4,20.37 139.72,18.67 209.94,0.05 10.9,-2.89 19.91,-5.98 30.29,-9.59l29.18 -11.24c1.17,-1.19 29.54,-15.34 30.9,-15.51l28.58 -18.69c3.37,-2.32 6.18,-5.2 9.93,-6.85l51.41 -46.91c2.94,-2.63 3.86,-4.69 6.94,-7.77 12.24,-12.22 38.46,-50.67 47.28,-66.09 54.8,-95.81 47.31,-166.7 50.86,-176.69l0 -32.81c-1.57,-3.78 -2.55,-27.37 -3.43,-33.97 -1.5,-11.2 -3.26,-21.88 -5.65,-32.42 -14.53,-64.1 -40.25,-114.54 -80.12,-163.99l-41.76 -42.99c-2.11,-1.72 -2.74,-2.89 -4.97,-4.57 -25.62,-19.33 -35.61,-29.63 -67.23,-46.16 -50.46,-26.39 -87.25,-37.63 -143.68,-44.34 -12.87,-1.53 -21,-3.16 -34.86,-3.16 -25.68,0 -45.27,0.85 -69.9,5.49 -68.7,12.93 -128.63,37.52 -182.37,80.81 -15.08,12.15 -26.52,22.67 -39.07,37.09l-9.03 9.97c-1.7,1.92 -6.95,9.04 -8.72,9.89z"/>
   <path fill="black" d="M378.62 265.12c4.07,1.74 7.48,3.98 11.85,6.4 3.35,1.86 8.18,3.55 10.29,6.26 3.2,0.25 12.6,4.68 16.3,6.11 5.27,2.06 10.5,3.62 16.09,5.3l10.8 2.78c16.03,4.71 35.44,6.4 52.84,8.42 4.65,0.54 13.39,-0.1 16.54,2.39 5.51,-0.87 15.02,0.85 20.87,1.67l-8.85 62.61c2.21,-3.16 5.34,-10.46 8.93,-15.43 4.05,-5.62 11.85,-8.94 16.27,-1.24 6.61,11.52 2.97,31.7 -2.95,42.01 -2.16,5.02 -6.39,10.82 -9.6,13.99 -9.24,9.12 -6.41,9.59 -10.14,12.53 -0.29,3.46 -12.03,24.05 -14.39,28.77 -8.89,17.76 -20.51,37.92 -32.65,52.14 -3.04,3.56 -17.69,16.06 -23.93,18.28 -2.62,1.79 -5.07,3.25 -8.97,4.21 -8.35,6.49 -35.17,8.86 -48.52,8.24 -15.8,-0.74 -33.11,-5.63 -45.64,-11.97 -12.39,-6.28 -23.79,-17 -31.1,-26.88 -2.99,-4.04 -20.26,-31.16 -20.78,-35.81 -2.54,-2.31 -11.63,-20.54 -12.58,-22.89 -4.56,-7.29 -7.26,-14.06 -11.95,-20.63 -4.57,-6.41 -9.87,-11.19 -14.08,-18.83 -4.02,-7.3 -6.77,-16.3 -6.97,-26.2 -0.12,-5.75 0.18,-10.06 2.9,-13.83 1.72,-2.38 5.15,-5.9 8.65,-7.07 8.42,3.28 12.98,11.3 16.61,19.98l1.04 -0.05c-2,-6.17 -5.98,-51.72 -6.8,-61.57 -1.1,-13.12 -1.76,-18.12 3.83,-28.37 7.31,-13.4 19.61,-28.39 33.12,-35.26 5.89,-3 17.52,-9.28 25.47,-5.97 3.95,1.65 13.83,11.38 18.86,15.75 7.63,6.62 13.76,9.83 17.44,12.8 1.3,1.05 0.86,0.37 1.21,1.35zm-17.18 -123.97l-9.65 2.74c-1.19,0.65 -23.76,8.43 -24.27,8.46 -1.64,1.89 -0.67,1.02 -3.21,2.34l-9.59 5.09c-3.93,2.27 -8.95,5.97 -13.13,7.68 -0.55,1.33 -2.34,2.11 -4.22,3.54l-27.17 27.8c-1.17,4.38 -4.31,8.11 -6.57,12.79 -1.44,2.98 -3.45,10.59 -5.78,12.58l-5.38 25.73c-5.21,37.23 3.2,63.79 2.6,86.18l-5.88 0.77c-2.41,2.38 -4.03,1.88 -7.84,5.76 -2.4,2.45 -3.5,4.41 -4.57,8.33 -2.09,7.62 -1.48,15.43 -0.98,23.33 1.37,17.47 9.46,30.96 17.93,41.78 6.22,7.94 7.04,7.52 12.16,18.13 12.08,25 27.88,53.07 46.93,72.5l14.15 14.82c3.2,1 9.37,6.67 13.03,9.06l11.34 6.93c0.99,0.65 1.1,0.74 1.66,1.28 3.3,0.7 9.59,3.92 13.37,5.27 4.17,1.48 10.32,2.72 13.98,4.19 3.3,0.42 8.87,0.66 10.93,2.12 24.31,-2.62 28.93,3.88 61.74,-9.89 13.37,-5.61 28.2,-17.45 39.03,-27.67l2.64 -2.12c1.57,-3.06 -0.07,-1.41 2.96,-3 0.76,-3.45 2.59,-3.6 5.09,-6.64l32.54 -48.64c0.91,-3.14 3,-7.7 5.46,-9.86 1.86,-13.74 21.79,-29.4 29.36,-49.89 3.92,-10.61 5.74,-21.67 4.35,-34.03 -1.6,-14.16 -4.35,-19.6 -17.86,-22.09 -1.17,-7.28 0.86,-30.31 1.32,-39.24 0.65,-12.67 0.78,-26.96 0.3,-39.82 -1.42,-37.21 -18,-54.73 -20.06,-61.22l-8.43 -9.4c-3.36,-3.78 -4.42,-4.91 -8.24,-8.23 -9.13,-7.95 -7.59,-6.93 -18.97,-14.72 -5.72,-3.91 -14.47,-8.57 -22.06,-11.74l-19.01 -6.94c-1.32,-0.37 -2.27,-0.54 -3.41,-0.98l-2.51 -1.32c-4.94,0.4 -32.99,-8.33 -71.63,-4.69 -6.17,0.58 -17.62,3.54 -22.44,2.93z"/>
   <path fill="black" d="M389.04 628.78c-0.76,3.25 -2.39,8.04 -4.76,10.17 -0.58,9.81 -20.04,39.2 -15.74,48.29 2.33,4.93 13.96,13.61 16.56,16.39 3.45,3.7 5.62,4.69 8.66,7.77 10.27,10.4 11.8,9.09 18.4,3.69 2.94,-2.41 3.26,-2.68 6.25,-5.85 4.62,-4.9 23.55,-19.62 24.13,-25.23 0.73,-7.09 -5.29,-12.13 -5.5,-18.42 -3.2,-2.38 -5.41,-10.28 -6.38,-14.35 -1.96,-2.66 -5.31,-12.09 -7.15,-16.34 -2.65,-6.13 -6.96,-12.66 -3.26,-16 1.55,-3.11 11.17,-11.56 14.32,-14.69 6.98,-6.94 11,-10.3 4.6,-17.02l-9.46 -9c-4.59,-0.46 -8.33,-3.31 -15.6,-3.21 -3.44,0.05 -5.5,0.86 -8.67,0.83 -9.78,-0.11 -21.81,-3.13 -33.35,10.04 -9.67,11.04 -0.41,14.62 10.78,26.5 1.46,1.56 13.21,8.05 6.18,16.42z"/>
  </g>
 </g>
</svg>
