<svg width="2378" height="2269" viewBox="0 0 2378 2269" fill="none" xmlns="http://www.w3.org/2000/svg">
<path d="M1533.35 1668.86C1866.11 1649.41 2040.26 1255.43 2085.73 1060.87C2246.44 427.291 1085.3 529.395 1041.87 1055.08C998.44 1580.76 238.052 750.978 225.317 1076.45C212.581 1401.91 640.492 1896.96 920.047 1990.26C1199.6 2083.57 1117.4 1693.16 1533.35 1668.86Z" stroke="url(#paint0_linear_1_1398)" stroke-opacity="0.5"/>
<path d="M1352.52 1077.11C1527.79 1066.74 1619.68 859.179 1643.72 756.697C1728.65 422.958 1117.05 477.209 1093.94 754.074C1070.83 1030.94 670.722 594.253 663.869 765.664C657.017 937.075 882.168 1197.61 1029.36 1246.63C1176.56 1295.66 1133.44 1090.09 1352.52 1077.11Z" stroke="url(#paint1_linear_1_1398)" stroke-opacity="0.5"/>
<path d="M1524.93 1640.39C1850.07 1621.57 2020 1236.68 2064.32 1046.58C2220.98 427.537 1086.44 526.67 1044.32 1040.34C1002.2 1554 258.692 742.73 246.443 1060.77C234.194 1378.8 652.62 1862.79 925.841 1954.13C1199.06 2045.46 1118.51 1663.91 1524.93 1640.39Z" stroke="url(#paint2_linear_1_1398)" stroke-opacity="0.5"/>
<path d="M1516.44 1612.1C1834.09 1593.56 2000.29 1217.48 2043.68 1031.76C2197.04 426.949 1088.63 524.321 1047.21 1026.14C1005.8 1527.95 279.861 735.775 267.733 1046.47C255.605 1357.16 664.133 1829.77 931.005 1918.86C1197.88 2007.95 1119.37 1635.26 1516.44 1612.1Z" stroke="url(#paint3_linear_1_1398)" stroke-opacity="0.5"/>
<path d="M1507.52 1584.08C1817.67 1566.06 1979.86 1198.88 2022.18 1017.54C2171.76 427.02 1089.51 521.826 1049.21 1011.81C1008.91 1501.79 299.872 728.099 288.113 1031.47C276.354 1334.84 675.375 1796.41 935.977 1883.47C1196.58 1970.53 1119.83 1606.6 1507.52 1584.08Z" stroke="url(#paint4_linear_1_1398)" stroke-opacity="0.5"/>
<path d="M1499.03 1555.79C1801.69 1538.05 1960.15 1179.69 2001.54 1002.72C2147.82 426.435 1091.69 519.48 1052.1 997.611C1012.51 1475.74 321.044 721.147 309.406 1017.17C297.769 1313.2 686.891 1763.39 941.144 1848.21C1195.4 1933.03 1120.7 1577.96 1499.03 1555.79Z" stroke="url(#paint5_linear_1_1398)" stroke-opacity="0.5"/>
<path d="M1490.11 1527.78C1785.28 1510.55 1939.72 1161.09 1980.04 988.511C2122.54 426.508 1092.58 516.987 1054.1 983.286C1015.62 1449.58 341.058 713.473 329.789 1002.18C318.52 1290.88 698.135 1730.04 946.119 1812.83C1194.1 1895.62 1121.16 1549.3 1490.11 1527.78Z" stroke="url(#paint6_linear_1_1398)" stroke-opacity="0.5"/>
<path d="M1481.61 1499.48C1769.29 1482.54 1920 1141.89 1959.4 973.688C2098.6 425.918 1094.76 514.636 1056.99 969.084C1019.22 1423.53 362.223 706.517 351.076 987.876C339.929 1269.23 709.646 1697.01 951.28 1777.56C1192.91 1858.11 1122.02 1520.65 1481.61 1499.48Z" stroke="url(#paint7_linear_1_1398)" stroke-opacity="0.5"/>
<path d="M1472.71 1471.47C1752.89 1455.05 1899.58 1123.3 1937.91 959.479C2073.33 425.996 1095.65 512.147 1058.99 954.762C1022.34 1397.38 382.244 698.847 371.465 972.883C360.686 1246.92 720.896 1663.66 956.261 1742.18C1191.63 1820.7 1122.48 1492 1472.71 1471.47Z" stroke="url(#paint8_linear_1_1398)" stroke-opacity="0.5"/>
<path d="M1465.41 1443.43C1738.21 1427.64 1880.79 1104.7 1917.98 945.201C2049.43 425.803 1097.51 508.987 1062.17 939.971C1026.82 1370.95 403.001 690.276 392.721 957.119C382.44 1223.96 733.51 1630.04 962.75 1706.67C1191.99 1783.3 1124.41 1463.17 1465.41 1443.43Z" stroke="url(#paint9_linear_1_1398)" stroke-opacity="0.5"/>
<path d="M1456.55 1415.47C1721.74 1400.07 1860.39 1086.13 1896.57 931.08C2024.44 426.17 1099.09 507.189 1064.65 926.139C1030.21 1345.09 423.933 683.528 413.892 942.919C403.851 1202.31 745.045 1596.99 967.872 1671.44C1190.7 1745.89 1125.06 1434.71 1456.55 1415.47Z" stroke="url(#paint10_linear_1_1398)" stroke-opacity="0.5"/>
<path d="M1448 1387.12C1705.81 1372.13 1840.65 1066.9 1875.84 916.164C2000.2 425.285 1100.58 504.143 1067.05 911.443C1033.52 1318.74 444.177 675.644 434.387 927.821C424.597 1180 756.26 1563.66 972.882 1636.02C1189.5 1708.37 1125.72 1405.86 1448 1387.12Z" stroke="url(#paint11_linear_1_1398)" stroke-opacity="0.5"/>
<path d="M1439.14 1359.16C1689.34 1344.57 1820.25 1048.34 1854.43 902.048C1975.22 425.658 1102.16 502.35 1069.54 897.616C1036.93 1292.88 465.118 668.902 455.567 913.626C446.016 1158.35 767.805 1530.61 978.013 1600.79C1188.22 1670.97 1126.38 1377.41 1439.14 1359.16Z" stroke="url(#paint12_linear_1_1398)" stroke-opacity="0.5"/>
<path d="M1430.58 1330.81C1673.42 1316.62 1800.5 1029.11 1833.69 887.13C1950.98 424.772 1103.64 499.302 1071.94 882.918C1040.24 1266.53 485.359 661.017 476.059 898.526C466.759 1136.04 779.017 1497.29 983.02 1565.37C1187.02 1633.45 1127.05 1348.56 1430.58 1330.81Z" stroke="url(#paint13_linear_1_1398)" stroke-opacity="0.5"/>
<path d="M1421.67 1302.8C1657 1289.12 1780.07 1010.51 1812.19 872.915C1925.7 424.843 1104.53 496.807 1073.93 868.591C1043.34 1240.37 505.37 653.342 496.439 883.529C487.508 1113.72 790.258 1463.93 987.992 1529.98C1185.73 1596.03 1127.5 1319.9 1421.67 1302.8Z" stroke="url(#paint14_linear_1_1398)" stroke-opacity="0.5"/>
<path d="M1413.18 1274.51C1641.02 1261.11 1760.36 991.317 1791.56 858.096C1901.77 424.257 1106.71 494.461 1076.83 854.392C1046.95 1214.32 526.542 646.389 517.732 869.231C508.922 1092.07 801.775 1430.91 993.159 1494.72C1184.54 1558.53 1128.37 1291.25 1413.18 1274.51Z" stroke="url(#paint15_linear_1_1398)" stroke-opacity="0.5"/>
<path d="M1404.26 1246.49C1624.61 1233.61 1739.94 972.719 1770.06 843.883C1876.49 424.331 1107.6 491.968 1078.83 840.067C1050.05 1188.17 546.555 638.716 538.114 854.236C529.673 1069.76 813.018 1397.56 998.133 1459.34C1183.25 1521.11 1128.83 1262.6 1404.26 1246.49Z" stroke="url(#paint16_linear_1_1398)" stroke-opacity="0.5"/>
<path d="M1396.25 1217.74C1608.99 1205.26 1720.39 953.363 1749.5 828.977C1852.36 423.913 1110.03 489.384 1082.16 825.449C1054.3 1161.51 568.343 631.182 560.141 839.249C551.939 1047.32 825.409 1363.72 1004.11 1423.32C1182.81 1482.92 1130.33 1233.35 1396.25 1217.74Z" stroke="url(#paint17_linear_1_1398)" stroke-opacity="0.5"/>
<path d="M1387.34 1189.73C1592.58 1177.76 1699.96 934.764 1728 814.765C1827.08 423.987 1110.91 486.892 1084.16 811.124C1057.41 1135.36 588.356 623.509 580.523 824.254C572.69 1025 836.652 1330.36 1009.08 1387.93C1181.52 1445.5 1130.79 1204.69 1387.34 1189.73Z" stroke="url(#paint18_linear_1_1398)" stroke-opacity="0.5"/>
<path d="M1378.84 1161.44C1576.59 1149.75 1680.25 915.573 1707.36 799.946C1803.14 423.401 1113.1 484.545 1087.06 796.926C1061.02 1109.31 609.528 616.557 601.816 809.957C594.105 1003.36 848.169 1297.34 1014.25 1352.67C1180.33 1408 1131.66 1176.05 1378.84 1161.44Z" stroke="url(#paint19_linear_1_1398)" stroke-opacity="0.5"/>
<path d="M1369.93 1133.42C1560.19 1122.25 1659.82 896.974 1685.86 785.733C1777.86 423.475 1113.98 482.053 1089.05 782.601C1064.12 1083.15 629.542 608.884 622.199 794.961C614.856 981.039 859.413 1263.99 1019.23 1317.28C1179.04 1370.58 1132.12 1147.39 1369.93 1133.42Z" stroke="url(#paint20_linear_1_1398)" stroke-opacity="0.5"/>
<path d="M1361.38 1105.07C1544.26 1094.3 1640.07 877.743 1665.12 770.812C1753.62 422.586 1115.47 479.002 1091.45 767.901C1067.43 1056.8 649.78 600.996 642.688 779.859C635.596 958.722 870.622 1230.66 1024.23 1281.86C1177.84 1333.06 1132.78 1118.54 1361.38 1105.07Z" stroke="url(#paint21_linear_1_1398)" stroke-opacity="0.5"/>
<defs>
<linearGradient id="paint0_linear_1_1398" x1="-454.182" y1="1441.79" x2="680.024" y2="2563.12" gradientUnits="userSpaceOnUse">
<stop stop-color="white"/>
<stop offset="0.523958" stop-color="#D795FF"/>
<stop offset="1" stop-color="#7BC2FE"/>
</linearGradient>
<linearGradient id="paint1_linear_1_1398" x1="305.828" y1="958.348" x2="902.639" y2="1548.47" gradientUnits="userSpaceOnUse">
<stop stop-color="white"/>
<stop offset="0.523958" stop-color="#D795FF"/>
<stop offset="1" stop-color="#7BC2FE"/>
</linearGradient>
<linearGradient id="paint2_linear_1_1398" x1="-417.304" y1="1417.4" x2="691.719" y2="2513.71" gradientUnits="userSpaceOnUse">
<stop stop-color="white"/>
<stop offset="0.523958" stop-color="#D795FF"/>
<stop offset="1" stop-color="#7BC2FE"/>
</linearGradient>
<linearGradient id="paint3_linear_1_1398" x1="-380.882" y1="1395.17" x2="701.942" y2="2465.68" gradientUnits="userSpaceOnUse">
<stop stop-color="white"/>
<stop offset="0.523958" stop-color="#D795FF"/>
<stop offset="1" stop-color="#7BC2FE"/>
</linearGradient>
<linearGradient id="paint4_linear_1_1398" x1="-345.114" y1="1371.8" x2="712.491" y2="2417.32" gradientUnits="userSpaceOnUse">
<stop stop-color="white"/>
<stop offset="0.523958" stop-color="#D795FF"/>
<stop offset="1" stop-color="#7BC2FE"/>
</linearGradient>
<linearGradient id="paint5_linear_1_1398" x1="-308.69" y1="1349.57" x2="722.717" y2="2369.3" gradientUnits="userSpaceOnUse">
<stop stop-color="white"/>
<stop offset="0.523958" stop-color="#D795FF"/>
<stop offset="1" stop-color="#7BC2FE"/>
</linearGradient>
<linearGradient id="paint6_linear_1_1398" x1="-272.919" y1="1326.2" x2="733.269" y2="2320.94" gradientUnits="userSpaceOnUse">
<stop stop-color="white"/>
<stop offset="0.523958" stop-color="#D795FF"/>
<stop offset="1" stop-color="#7BC2FE"/>
</linearGradient>
<linearGradient id="paint7_linear_1_1398" x1="-236.501" y1="1303.96" x2="743.49" y2="2272.91" gradientUnits="userSpaceOnUse">
<stop stop-color="white"/>
<stop offset="0.523958" stop-color="#D795FF"/>
<stop offset="1" stop-color="#7BC2FE"/>
</linearGradient>
<linearGradient id="paint8_linear_1_1398" x1="-200.724" y1="1280.6" x2="754.048" y2="2224.56" gradientUnits="userSpaceOnUse">
<stop stop-color="white"/>
<stop offset="0.523958" stop-color="#D795FF"/>
<stop offset="1" stop-color="#7BC2FE"/>
</linearGradient>
<linearGradient id="paint9_linear_1_1398" x1="-164.188" y1="1256.35" x2="766.308" y2="2176.18" gradientUnits="userSpaceOnUse">
<stop stop-color="white"/>
<stop offset="0.523958" stop-color="#D795FF"/>
<stop offset="1" stop-color="#7BC2FE"/>
</linearGradient>
<linearGradient id="paint10_linear_1_1398" x1="-127.521" y1="1233.88" x2="776.813" y2="2127.88" gradientUnits="userSpaceOnUse">
<stop stop-color="white"/>
<stop offset="0.523958" stop-color="#D795FF"/>
<stop offset="1" stop-color="#7BC2FE"/>
</linearGradient>
<linearGradient id="paint11_linear_1_1398" x1="-92.0025" y1="1210.75" x2="787.076" y2="2079.8" gradientUnits="userSpaceOnUse">
<stop stop-color="white"/>
<stop offset="0.523958" stop-color="#D795FF"/>
<stop offset="1" stop-color="#7BC2FE"/>
</linearGradient>
<linearGradient id="paint12_linear_1_1398" x1="-55.3265" y1="1188.28" x2="797.59" y2="2031.5" gradientUnits="userSpaceOnUse">
<stop stop-color="white"/>
<stop offset="0.523958" stop-color="#D795FF"/>
<stop offset="1" stop-color="#7BC2FE"/>
</linearGradient>
<linearGradient id="paint13_linear_1_1398" x1="-19.8112" y1="1165.15" x2="807.851" y2="1983.41" gradientUnits="userSpaceOnUse">
<stop stop-color="white"/>
<stop offset="0.523958" stop-color="#D795FF"/>
<stop offset="1" stop-color="#7BC2FE"/>
</linearGradient>
<linearGradient id="paint14_linear_1_1398" x1="15.9568" y1="1141.77" x2="818.4" y2="1935.06" gradientUnits="userSpaceOnUse">
<stop stop-color="white"/>
<stop offset="0.523958" stop-color="#D795FF"/>
<stop offset="1" stop-color="#7BC2FE"/>
</linearGradient>
<linearGradient id="paint15_linear_1_1398" x1="52.381" y1="1119.54" x2="828.626" y2="1887.03" gradientUnits="userSpaceOnUse">
<stop stop-color="white"/>
<stop offset="0.523958" stop-color="#D795FF"/>
<stop offset="1" stop-color="#7BC2FE"/>
</linearGradient>
<linearGradient id="paint16_linear_1_1398" x1="88.151" y1="1096.17" x2="839.177" y2="1838.68" gradientUnits="userSpaceOnUse">
<stop stop-color="white"/>
<stop offset="0.523958" stop-color="#D795FF"/>
<stop offset="1" stop-color="#7BC2FE"/>
</linearGradient>
<linearGradient id="paint17_linear_1_1398" x1="125.674" y1="1072.92" x2="850.537" y2="1789.59" gradientUnits="userSpaceOnUse">
<stop stop-color="white"/>
<stop offset="0.523958" stop-color="#D795FF"/>
<stop offset="1" stop-color="#7BC2FE"/>
</linearGradient>
<linearGradient id="paint18_linear_1_1398" x1="161.444" y1="1049.55" x2="861.088" y2="1741.24" gradientUnits="userSpaceOnUse">
<stop stop-color="white"/>
<stop offset="0.523958" stop-color="#D795FF"/>
<stop offset="1" stop-color="#7BC2FE"/>
</linearGradient>
<linearGradient id="paint19_linear_1_1398" x1="197.868" y1="1027.32" x2="871.315" y2="1693.21" gradientUnits="userSpaceOnUse">
<stop stop-color="white"/>
<stop offset="0.523958" stop-color="#D795FF"/>
<stop offset="1" stop-color="#7BC2FE"/>
</linearGradient>
<linearGradient id="paint20_linear_1_1398" x1="233.639" y1="1003.95" x2="881.866" y2="1644.86" gradientUnits="userSpaceOnUse">
<stop stop-color="white"/>
<stop offset="0.523958" stop-color="#D795FF"/>
<stop offset="1" stop-color="#7BC2FE"/>
</linearGradient>
<linearGradient id="paint21_linear_1_1398" x1="269.151" y1="980.81" x2="892.124" y2="1596.77" gradientUnits="userSpaceOnUse">
<stop stop-color="white"/>
<stop offset="0.523958" stop-color="#D795FF"/>
<stop offset="1" stop-color="#7BC2FE"/>
</linearGradient>
</defs>
</svg>
