<?xml version="1.0" encoding="iso-8859-1"?>
<!-- Uploaded to: SVG Repo, www.svgrepo.com, Generator: SVG Repo Mixer Tools -->
<svg height="800px" width="800px" version="1.1" id="Layer_1" xmlns="http://www.w3.org/2000/svg" xmlns:xlink="http://www.w3.org/1999/xlink" 
	 viewBox="0 0 392.663 392.663" xml:space="preserve">
<path style="fill:#FFC10D;" d="M60.832,204.541v66.133c0,6.788,5.495,12.283,12.283,12.283H84.88v-90.699H73.115
	C66.327,192.259,60.832,197.754,60.832,204.541z"/>
<path style="fill:#56ACE0;" d="M21.915,237.576c0,9.826,7.499,19.071,17.131,19.911V217.6
	C29.478,218.505,21.915,227.814,21.915,237.576z"/>
<path style="fill:#FFC10D;" d="M319.676,192.259h-11.766v90.634h11.766c6.788,0,12.283-5.495,12.283-12.283v-66.133
	C331.959,197.754,326.464,192.259,319.676,192.259z"/>
<path style="fill:#56ACE0;" d="M353.745,217.6v39.952c9.568-0.84,17.131-10.15,17.131-19.911
	C370.876,227.814,363.313,218.505,353.745,217.6z"/>
<path style="fill:#194F82;" d="M352.581,195.814c-2.521-9.568-9.115-17.519-17.842-21.786v-27.216
	C334.739,65.81,271.192,0,193.163,0S51.588,65.81,51.588,146.812v31.289c-5.495,4.461-9.503,10.667-11.378,17.713
	c-22.303,0.905-40.081,19.265-40.081,41.826c0,22.497,17.778,40.792,40.081,41.826c3.879,14.61,17.131,25.341,32.905,25.341h22.626
	c6.012,0,10.925-4.848,10.925-10.925V181.398c0-6.012-4.848-10.925-10.925-10.925H73.309v-23.661
	c0-68.913,53.721-125.026,119.79-125.026s119.79,56.113,119.79,125.026v23.661h-15.903c-6.012,0-10.925,4.848-10.925,10.925v112.485
	c0,6.012,4.848,10.925,10.925,10.925h12.671v4.59c0,33.939-26.376,61.414-58.634,61.414h-47.709v-1.681
	c0-6.012-4.848-10.925-10.925-10.925s-10.925,4.848-10.925,10.925v12.606c0,6.012,4.848,10.925,10.925,10.925h58.57
	c44.347,0,80.42-37.301,80.42-83.329v-6.723c10.279-3.879,18.23-12.541,21.075-23.208c22.303-0.905,40.081-19.265,40.081-41.826
	C392.662,215.014,374.884,196.719,352.581,195.814z M84.88,282.893H73.115c-6.788,0-12.283-5.495-12.283-12.283v-66.133
	c0-6.788,5.495-12.283,12.283-12.283H84.88V282.893z M39.046,257.552c-9.568-0.84-17.131-10.15-17.131-19.911
	c0-9.826,7.499-19.071,17.131-19.911V257.552z M353.745,257.552V217.6c9.568,0.84,17.131,10.15,17.131,19.911
	C370.876,247.402,363.313,256.711,353.745,257.552z M331.959,270.675c0,6.788-5.495,12.283-12.283,12.283h-11.766v-90.699h11.766
	c6.788,0,12.283,5.495,12.283,12.283V270.675z"/>
</svg>