<?xml version="1.0" encoding="UTF-8"?>
<!DOCTYPE svg PUBLIC "-//W3C//DTD SVG 1.1//EN" "http://www.w3.org/Graphics/SVG/1.1/DTD/svg11.dtd">
<!-- Creator: CorelDRAW 2020 (64-Bit) -->
<svg xmlns="http://www.w3.org/2000/svg" xml:space="preserve" width="128px" height="69px" version="1.1" shape-rendering="geometricPrecision" text-rendering="geometricPrecision" image-rendering="optimizeQuality" fill-rule="evenodd" clip-rule="evenodd"
viewBox="0 0 128 69.09"
 xmlns:xlink="http://www.w3.org/1999/xlink"
 xmlns:xodm="http://www.corel.com/coreldraw/odm/2003"
 data-name="Layer 1">
 <g id="Слой_x0020_1">
  <metadata id="CorelCorpID_0Corel-Layer"/>
  <path fill="black" d="M89.93 35.87l0.53 2.53 -1.77 7.19c0.11,1.86 -0.38,3.85 0.33,5.57 0.54,1.31 0.82,2.71 0.82,4.12 0,0.99 -0.13,1.98 -0.4,2.93 1.04,1.55 0.79,3.13 2.98,4.67 2.83,0.96 4.24,2.42 3.93,4.49 -2.17,0.95 -5.37,1.11 -9.38,0.63 -4.02,-0.48 -6.31,-2.17 -1.9,-5.4 -2.32,-0.43 -3.13,-2.68 -3.13,-5.98 -0.87,-0.48 -1.47,-1.35 -1.6,-2.34 -0.15,-3.6 -0.98,-5.63 -2.33,-6.35 0.59,5.8 -2.21,7.08 -1.77,10.98 0.12,1.02 0.47,1.99 1.04,2.85 4.82,1.14 2.58,4.4 -1.14,5.46 -2.49,0.71 -9.27,0.3 -6.44,-3.42 0.56,-0.75 0.56,-1.79 1.59,-2.51 -0.82,-0.87 -1.39,-1.96 -1.62,-3.13 -1.58,-5.9 1.99,-9.46 -1.18,-14.6 -7.3,2 -14.11,2.97 -20.12,2.47 -10.36,-0.88 -13.17,-4.45 -19.88,-11.09 -1.02,3.29 -2.81,6.3 -5.21,8.78 -1.49,0.87 -2.56,2.6 -3.13,5.32 -0.64,4.31 -0.75,8.35 0.47,11.67 2.59,-0.98 10.43,1.54 7.07,4.51 -0.33,0.29 -0.76,0.46 -1.2,0.46 -0.02,0 -0.05,0 -0.07,0 1.53,1.81 1,2.85 -0.42,3.41l-9.43 0c-0.06,-0.01 -0.11,-0.03 -0.15,-0.05 -1.8,-0.68 -2.53,-2.03 -1.96,-4.29 -3.13,-3.13 -4.84,-7.71 -5.89,-13.18 -3.13,-0.59 -2.27,-3.47 -1.38,-5.54 0.9,-2.06 1.94,-3.03 2.88,-5.01 -3.1,-4.86 -4.78,-10.5 -4.86,-16.27 -0.95,8.97 -3.4,13.74 -5.21,15.52 5.11,-16.15 2.4,-12.59 3.13,-18.87 -0.46,-3.5 1.43,-6.02 4.76,-7.95 4.85,-11.2 12.65,-10.22 22.51,-11.3 2.37,-0.3 4.75,-0.75 7.06,-1.32 1.21,-0.23 2.44,-0.36 3.67,-0.38 3.88,-0.07 5.22,0.84 8.82,1.74 3.63,0.89 7.37,1.34 11.1,1.34 0.37,0 0.75,-0.01 1.11,-0.02 17.36,-0.29 10.57,-6.63 32.2,-1.54 7.12,1.66 11.22,4.92 13.09,9.83 2.23,-2.15 8.25,-2.76 11.8,-1.55 -1.68,2.27 -5.85,5.82 -10.31,5.09 1.88,6.15 3.87,10.42 7.3,11.08 2.38,-1.02 4.33,-2.85 5.5,-5.16 -1.13,8.12 -3.46,7.55 -6.54,9.38 6.62,-0.39 10.4,-6.38 11.27,-11.86 4.45,11.65 -1.6,17.65 -8.1,19.14 -1.5,3.26 -4.28,5.77 -7.68,6.92 2.63,-5.67 -8.96,-2.18 -13.77,-5.81 -1.59,-1.29 -2.85,-2.94 -3.69,-4.8 -1.17,0.41 -2.28,0.97 -3.3,1.67l0 -0.03zm16.17 -11.59c0.26,-0.1 0.53,-0.16 0.81,-0.16 0.78,0 1.5,0.42 1.88,1.1 0.08,0.18 0.13,0.37 0.13,0.57 0,0.6 -0.41,1.11 -0.99,1.26 -1.04,0.12 -1.89,-1.74 -1.83,-2.77l0 0z"/>
 </g>
</svg>
