<svg width="175" height="130" viewBox="0 0 175 130" fill="none" xmlns="http://www.w3.org/2000/svg">
<path fill-rule="evenodd" clip-rule="evenodd" d="M152.441 118.158C152.88 118.217 153.318 118.276 153.756 118.338L155.959 118.647C165.551 119.993 174.132 112.682 174.132 103.165V95.902C174.132 89.0955 169.776 83.0238 163.25 80.7346C155.712 78.0901 147.93 76.3681 140.074 75.5685C148.271 81.4963 153.354 91.0934 153.354 101.564V110.581C153.354 113.201 153.037 115.738 152.441 118.158ZM119.208 65.905C122.476 67.2543 126.066 68 129.833 68C144.986 68 157.27 55.9339 157.27 41.0495C157.27 26.1652 144.986 14.099 129.833 14.099C129.384 14.099 128.938 14.1096 128.495 14.1305C131.25 19.9984 132.789 26.5502 132.789 33.4616C132.789 46.1604 127.592 57.6453 119.208 65.905Z" fill="#815C98"/>
<path fill-rule="evenodd" clip-rule="evenodd" d="M21.6915 118.158C21.2528 118.217 20.8142 118.276 20.3759 118.338L18.1729 118.647C8.58144 119.993 0.000106812 112.682 0.000106812 103.165V95.902C0.000106812 89.0955 4.35616 83.0238 10.8818 80.7346C18.42 78.0901 26.2021 76.3681 34.058 75.5685C25.8618 81.4963 20.7783 91.0934 20.7783 101.564V110.581C20.7783 113.201 21.0955 115.738 21.6915 118.158ZM54.9241 65.905C51.6564 67.2543 48.0667 68 44.2997 68C29.1467 68 16.8628 55.9339 16.8628 41.0495C16.8628 26.1652 29.1467 14.099 44.2997 14.099C44.7482 14.099 45.1942 14.1096 45.6374 14.1305C42.8825 19.9984 41.343 26.5502 41.343 33.4616C41.343 46.1604 46.5404 57.6453 54.9241 65.905Z" fill="#815C98"/>
<path fill-rule="evenodd" clip-rule="evenodd" d="M120.707 33.4603C120.707 14.9807 105.726 0 87.2463 0C68.7667 0 53.786 14.9807 53.786 33.4603C53.786 51.9399 68.7667 66.9206 87.2463 66.9206C105.726 66.9206 120.707 51.9399 120.707 33.4603Z" fill="#815C98"/>
<path fill-rule="evenodd" clip-rule="evenodd" d="M46.4921 82.7312C72.8464 73.3189 101.646 73.3189 128.001 82.7312C135.959 85.5734 141.271 93.1117 141.271 101.562V110.58C141.271 122.396 130.806 131.472 119.109 129.801L116.422 129.417C97.0699 126.653 77.4228 126.653 58.0704 129.417L55.3838 129.801C43.6867 131.472 33.2214 122.396 33.2214 110.58V101.562C33.2214 93.1117 38.5338 85.5734 46.4921 82.7312Z" fill="#815C98"/>
</svg>
