<svg width="150" height="149" viewBox="0 0 150 149" fill="none" xmlns="http://www.w3.org/2000/svg">
<path d="M37.5011 91.6309H31.7319C23.7776 91.6309 17.3088 98.0527 17.3088 105.949V134.587C17.3088 142.483 23.7776 148.905 31.7319 148.905H37.5011C42.2716 148.905 46.155 145.05 46.155 140.314V100.222C46.155 95.4861 42.2716 91.6309 37.5011 91.6309Z" fill="#815C98"/>
<path d="M10.9212 103.099H8.65385C3.8744 103.099 0 106.945 0 111.69V128.872C0 133.617 3.8744 137.464 8.65385 137.464H10.9305C11.3546 137.464 11.6921 137.102 11.6474 136.683C11.5742 135.999 11.5385 135.304 11.5385 134.6C11.5385 108.44 11.4761 105.41 11.6383 103.888C11.6834 103.466 11.3492 103.099 10.9212 103.099Z" fill="#815C98"/>
<path d="M74.9607 1.00076e-05C33.7305 0.0211299 0 34.1691 0 75.1005V77.3203C0 81.0524 2.41226 84.2358 5.76923 85.4185V96.8028C5.76923 97.2367 6.15613 97.5732 6.58883 97.5113C7.82128 97.3351 8.88462 97.3581 10.813 97.3649C11.2121 97.3663 11.5385 97.0452 11.5385 96.6489V85.9114H14.4231C19.2025 85.9114 23.0769 82.0651 23.0769 77.3203V74.9556C23.0769 46.4631 46.1506 22.9903 74.8511 22.9097C103.549 22.8295 126.923 45.9848 126.923 74.4566V77.3203C126.923 82.0651 130.798 85.9114 135.577 85.9114H138.462V96.6486C138.462 97.0448 138.789 97.3663 139.188 97.3645C141.027 97.3573 142.152 97.3344 143.413 97.5123C143.845 97.5732 144.23 97.2367 144.23 96.8036V85.4182C147.587 84.2354 150 81.0521 150 77.3199V74.4562C150 33.3888 116.333 -0.0211099 74.9607 1.00076e-05Z" fill="#815C98"/>
<path d="M112.5 148.905H118.269C126.223 148.905 132.692 142.483 132.692 134.587V105.949C132.692 98.0527 126.223 91.6309 118.269 91.6309H112.5C107.729 91.6309 103.846 95.4861 103.846 100.222V140.314C103.846 145.05 107.729 148.905 112.5 148.905Z" fill="#815C98"/>
<path d="M141.346 103.099H139.07C138.646 103.099 138.308 103.461 138.353 103.879C138.426 104.563 138.462 105.258 138.462 105.963C138.462 132.122 138.524 135.153 138.362 136.674C138.317 137.097 138.651 137.464 139.079 137.464H141.346C146.126 137.464 150 133.617 150 128.872V111.69C150 106.945 146.126 103.099 141.346 103.099Z" fill="#815C98"/>
</svg>
