<svg width="33" height="40" viewBox="0 0 33 40" fill="none" xmlns="http://www.w3.org/2000/svg">
<path d="M25.5376 7.54051C26.358 7.54051 27.1448 7.15752 27.7249 6.47577C28.305 5.79403 28.6309 4.86939 28.6309 3.90527C28.6309 2.94114 28.305 2.0165 27.7249 1.33476C27.1448 0.653018 26.358 0.27002 25.5376 0.27002C24.7172 0.27002 23.9305 0.653018 23.3503 1.33476C22.7702 2.0165 22.4443 2.94114 22.4443 3.90527C22.4443 4.86939 22.7702 5.79403 23.3503 6.47577C23.9305 7.15752 24.7172 7.54051 25.5376 7.54051ZM20.105 15.4547C20.1695 15.4245 20.2275 15.3942 20.2919 15.3639L19.2028 20.173C18.8419 21.771 19.1964 23.475 20.1501 24.6943L24.7063 30.5335L26.1241 37.2056C26.4012 38.5007 27.5225 39.2959 28.6245 38.9703C29.7265 38.6446 30.4031 37.3268 30.126 36.0318L28.6438 29.0566C28.5214 28.4659 28.27 27.9282 27.9221 27.4814L24.7321 23.3917L25.9759 18.4311L26.5945 20.173C26.8781 20.9758 27.4001 21.6347 28.0638 22.0285L29.7845 23.0358C30.8027 23.6341 32.04 23.1494 32.5491 21.9528C33.0582 20.7561 32.6458 19.3021 31.6276 18.7038L30.242 17.8934L29.256 15.1064C28.1476 11.9937 25.557 9.96401 22.6828 9.96401C21.2135 9.96401 19.7635 10.3275 18.4231 11.0243L17.9075 11.2894C15.7873 12.3951 14.1633 14.5005 13.4351 17.083L13.2676 17.6738C12.9067 18.9461 13.4931 20.3169 14.5693 20.741C15.6455 21.1651 16.8184 20.4759 17.1793 19.2112L17.3468 18.6204C17.7142 17.3254 18.5262 16.2803 19.583 15.7274L20.0986 15.4623L20.105 15.4547ZM18.1717 25.6865L16.5606 30.4123L12.7327 34.9109C11.9271 35.8576 11.9271 37.395 12.7327 38.3417C13.5382 39.2883 14.8464 39.2883 15.652 38.3417L19.6282 33.6689C19.9246 33.3205 20.1566 32.9039 20.3113 32.4495L21.2457 29.7079L18.6228 26.3453C18.4617 26.1409 18.3135 25.9212 18.1717 25.694V25.6865ZM14.1955 21.0288C13.6993 20.6956 13.0742 20.8925 12.7842 21.4756L10.722 25.6713L7.2163 23.2933C6.23031 22.6268 4.96721 23.0206 4.40011 24.1793L0.275714 32.5783C-0.291391 33.737 0.0437165 35.2214 1.0297 35.8879L4.59988 38.3114C5.58587 38.9778 6.84897 38.584 7.41607 37.4253L11.5405 29.0263C11.6371 28.8294 11.708 28.6325 11.7531 28.4205L14.5758 22.6874C14.8593 22.1042 14.6918 21.3696 14.1955 21.0288Z" fill="#17C3B2"/>
</svg>
