<svg width="5" height="10" viewBox="0 0 5 10" fill="none" xmlns="http://www.w3.org/2000/svg">
<path d="M0.990782 9.19356L4.87326 5.3226C4.91935 5.27652 4.95207 5.22659 4.97142 5.17283C4.99078 5.11907 5.0003 5.06146 4.99999 5.00002C4.99999 4.93858 4.99032 4.88097 4.97096 4.82721C4.95161 4.77345 4.91904 4.72352 4.87326 4.67744L0.990782 0.794957C0.883255 0.68743 0.748847 0.633667 0.587557 0.633667C0.426267 0.633667 0.288018 0.691271 0.172811 0.806478C0.0576038 0.921685 9.01284e-10 1.05609 1.22902e-09 1.2097C1.55676e-09 1.36331 0.0576038 1.49772 0.172811 1.61293L3.5599 5.00002L0.172811 8.38711C0.0652843 8.49464 0.0115204 8.6272 0.0115204 8.78481C0.0115204 8.94241 0.0691242 9.07866 0.184331 9.19356C0.299539 9.30877 0.433947 9.36637 0.587557 9.36637C0.741167 9.36637 0.875575 9.30877 0.990782 9.19356Z" fill="white"/>
</svg>
