<svg width="228" height="36" viewBox="0 0 228 36" fill="none" xmlns="http://www.w3.org/2000/svg">
<path d="M61.3702 15.5456H56.2382L55.2381 18.992H51.1724L56.4447 3.30371H61.3265L66.5997 18.992H62.3597L61.3702 15.5456ZM57.0105 12.6748H60.5873L58.848 6.63031H58.7605L57.0105 12.6748Z" fill="white"/>
<path d="M71.7963 2.51855H67.9478V18.9898H71.7963V2.51855Z" fill="white"/>
<path d="M81.3981 6.71777C82.9273 6.71777 84.116 7.26118 84.9642 8.348C85.8195 9.43572 86.2467 10.9614 86.2467 12.925C86.2467 14.8895 85.8231 16.4151 84.9749 17.5029C84.1339 18.5968 82.9559 19.1438 81.441 19.1438C79.6221 19.1438 78.3861 18.4011 77.7336 16.9156H77.6576V22.667H73.8091V6.88044H77.6362V9.00045H77.7122C78.0169 8.28276 78.4915 7.72505 79.1368 7.32643C79.7812 6.92066 80.5356 6.71777 81.3981 6.71777ZM79.9734 16.1113C80.6839 16.1113 81.2497 15.8244 81.6698 15.2523C82.0898 14.6723 82.2999 13.8965 82.2999 12.925C82.2999 11.9615 82.0898 11.1929 81.6698 10.6209C81.2417 10.0408 80.6768 9.75032 79.9734 9.75032C79.2709 9.75032 78.7051 10.0408 78.2779 10.6209C77.857 11.2 77.6469 11.9722 77.6469 12.9366C77.6469 13.9072 77.857 14.6794 78.2779 15.2523C78.698 15.8244 79.2637 16.1113 79.9734 16.1113Z" fill="white"/>
<path d="M87.8677 2.51855H91.6403V9.16103H91.7162C92.3687 7.50845 93.6691 6.68261 95.6193 6.68261C96.9671 6.68261 98.0253 7.08481 98.794 7.8892C99.5626 8.70074 99.946 9.82062 99.946 11.2489V18.9898H96.0868V12.0747C96.0868 11.3794 95.8982 10.8288 95.521 10.4221C95.1376 10.0235 94.6156 9.8242 93.956 9.8242C93.2964 9.8242 92.7602 10.0423 92.3463 10.4766C91.9263 10.9191 91.7162 11.4848 91.7162 12.173V18.9898H87.8677V2.51855Z" fill="white"/>
<path d="M106.797 16.4703C107.435 16.4703 107.971 16.2996 108.405 15.9591C108.862 15.6114 109.091 15.1654 109.091 14.622V13.7845L106.862 13.9374C105.731 14.0169 105.166 14.4441 105.166 15.2199C105.166 15.6043 105.315 15.909 105.612 16.1334C105.902 16.3577 106.297 16.4703 106.797 16.4703ZM105.438 19.1445C104.285 19.1445 103.322 18.8039 102.546 18.1229C101.749 17.4347 101.35 16.5534 101.35 15.4809C101.35 13.2125 102.984 11.9765 106.253 11.7736L109.091 11.5993V10.9039C109.091 10.4186 108.927 10.0415 108.601 9.77332C108.283 9.51234 107.848 9.38186 107.297 9.38186C106.782 9.38186 106.354 9.50519 106.014 9.75098C105.688 9.99051 105.495 10.3024 105.438 10.6868H101.969C102.02 9.4614 102.542 8.47915 103.535 7.74001C104.535 6.99371 105.851 6.62012 107.481 6.62012C109.091 6.62012 110.388 6.99371 111.374 7.74001C112.36 8.49345 112.853 9.47928 112.853 10.6975V18.9818H109.112V17.2425H109.036C108.717 17.8369 108.221 18.3043 107.547 18.6448C106.895 18.9782 106.192 19.1445 105.438 19.1445Z" fill="white"/>
<path d="M119.28 6.88908H123.02V9.21555H123.096C123.335 8.43976 123.766 7.82396 124.389 7.36724C125.013 6.91053 125.735 6.68262 126.553 6.68262C127.452 6.68262 128.195 6.90338 128.782 7.34579C129.37 7.79536 129.749 8.42904 129.924 9.24862H130C130.239 8.46568 130.696 7.84183 131.37 7.37797C132.051 6.9141 132.841 6.68262 133.74 6.68262C134.922 6.68262 135.878 7.05979 136.61 7.81323C137.342 8.57472 137.708 9.5677 137.708 10.7922V18.9898H133.859V11.7708C133.859 10.4659 133.28 9.81348 132.12 9.81348C131.576 9.81348 131.145 9.99491 130.826 10.3569C130.5 10.7198 130.337 11.2051 130.337 11.8137V18.9898H126.662V11.7163C126.662 11.1077 126.509 10.6366 126.206 10.3033C125.908 9.97704 125.481 9.81348 124.922 9.81348C124.386 9.81348 123.951 9.99849 123.618 10.3685C123.292 10.7376 123.128 11.2274 123.128 11.8361V18.9898H119.28V6.88908Z" fill="white"/>
<path d="M144.558 16.4703C145.197 16.4703 145.733 16.2996 146.168 15.9591C146.625 15.6114 146.853 15.1654 146.853 14.622V13.7845L144.624 13.9374C143.493 14.0169 142.928 14.4441 142.928 15.2199C142.928 15.6043 143.077 15.909 143.373 16.1334C143.664 16.3577 144.059 16.4703 144.558 16.4703ZM143.2 19.1445C142.047 19.1445 141.083 18.8039 140.308 18.1229C139.51 17.4347 139.112 16.5534 139.112 15.4809C139.112 13.2125 140.747 11.9765 144.015 11.7736L146.853 11.5993V10.9039C146.853 10.4186 146.69 10.0415 146.364 9.77332C146.045 9.51234 145.61 9.38186 145.059 9.38186C144.544 9.38186 144.117 9.50519 143.775 9.75098C143.45 9.99051 143.258 10.3024 143.2 10.6868H139.731C139.782 9.4614 140.304 8.47915 141.297 7.74001C142.297 6.99371 143.613 6.62012 145.244 6.62012C146.853 6.62012 148.15 6.99371 149.136 7.74001C150.121 8.49345 150.615 9.47928 150.615 10.6975V18.9818H146.874V17.2425H146.798C146.479 17.8369 145.983 18.3043 145.309 18.6448C144.657 18.9782 143.953 19.1445 143.2 19.1445Z" fill="white"/>
<path d="M152.54 6.88044H156.28V9.15239H156.356C156.797 7.52931 157.751 6.71777 159.215 6.71777C159.563 6.71777 159.889 6.76782 160.194 6.86971V10.1749C159.86 10.0301 159.447 9.95768 158.954 9.95768C158.128 9.95768 157.494 10.182 157.051 10.6316C156.61 11.0883 156.388 11.7407 156.388 12.588V18.9811H152.54V6.88044Z" fill="white"/>
<path d="M168.959 6.88907H173.265L168.916 12.0747L173.514 18.9898H169.079L166.068 14.3797L165.328 15.2386V18.9898H161.479V2.51855H165.328V11.5206H165.404L168.959 6.88907Z" fill="white"/>
<path d="M179.363 9.3604C178.747 9.3604 178.229 9.56686 177.808 9.97978C177.388 10.3927 177.152 10.9218 177.102 11.5671H181.603C181.566 10.9004 181.346 10.3641 180.94 9.95833C180.526 9.55971 180.001 9.3604 179.363 9.3604ZM185.169 15.1761C184.981 16.4158 184.372 17.4016 183.342 18.1336C182.306 18.8728 181.005 19.2428 179.439 19.2428C177.526 19.2428 176.025 18.6886 174.938 17.5795C173.851 16.4703 173.307 14.9411 173.307 12.9909C173.307 11.0416 173.847 9.49 174.928 8.33794C176.007 7.19302 177.468 6.62012 179.309 6.62012C181.113 6.62012 182.556 7.1671 183.636 8.26197C184.709 9.36398 185.245 10.8351 185.245 12.6763V13.7738H177.058V14.0134C177.058 14.7525 177.283 15.3504 177.732 15.8071C178.182 16.271 178.769 16.5034 179.494 16.5034C180.646 16.5034 181.378 16.061 181.69 15.1761H185.169Z" fill="white"/>
<path d="M191.606 4.22168V6.89583H193.791V9.74426H191.606V14.9084C191.606 15.7566 192.074 16.1803 193.008 16.1803C193.277 16.1803 193.538 16.1624 193.791 16.1266V18.866C193.349 18.9679 192.784 19.018 192.095 19.018C190.544 19.018 189.432 18.757 188.758 18.235C188.091 17.7211 187.758 16.8694 187.758 15.6807V9.74426H186.137V6.89583H187.758V4.22168H191.606Z" fill="white"/>
<path d="M195.479 6.89074H199.338V18.9914H195.479V6.89074ZM197.403 5.89062C196.852 5.89062 196.388 5.70918 196.012 5.34721C195.62 4.98434 195.424 4.5312 195.424 3.98779C195.424 3.45153 195.62 2.99839 196.012 2.62926C196.388 2.2664 196.852 2.08496 197.403 2.08496C197.954 2.08496 198.421 2.2664 198.805 2.62926C199.197 2.99839 199.393 3.45153 199.393 3.98779C199.393 4.5312 199.197 4.98434 198.805 5.34721C198.428 5.70918 197.961 5.89062 197.403 5.89062Z" fill="white"/>
<path d="M201.297 6.88908H205.037V9.16103H205.113C205.78 7.50846 207.067 6.68262 208.973 6.68262C210.321 6.68262 211.379 7.08481 212.148 7.8892C212.908 8.69359 213.289 9.80991 213.289 11.2381V18.9898H209.43V12.064C209.43 11.3615 209.248 10.8136 208.885 10.4221C208.516 10.0235 208.002 9.82421 207.342 9.82421C206.689 9.82421 206.16 10.0423 205.755 10.4767C205.349 10.9119 205.146 11.4732 205.146 12.1623V18.9898H201.297V6.88908Z" fill="white"/>
<path d="M221.052 16.0022C221.777 16.0022 222.345 15.7341 222.758 15.1978C223.179 14.6544 223.389 13.8965 223.389 12.925C223.389 11.9543 223.179 11.1821 222.758 10.6092C222.338 10.0372 221.769 9.75032 221.052 9.75032C220.334 9.75032 219.769 10.0336 219.356 10.5985C218.936 11.1714 218.725 11.9436 218.725 12.9143C218.725 13.8929 218.931 14.6544 219.345 15.1978C219.758 15.7341 220.327 16.0022 221.052 16.0022ZM220.987 23.4714C219.276 23.4714 217.888 23.138 216.823 22.4713C215.742 21.7974 215.177 20.8983 215.127 19.7748H218.866C218.946 20.1153 219.192 20.3906 219.606 20.6006C220.012 20.8044 220.494 20.9054 221.052 20.9054C221.755 20.9054 222.317 20.7392 222.737 20.4058C223.157 20.0644 223.368 19.6041 223.368 19.0249V16.7306H223.291C223.045 17.3759 222.592 17.8907 221.933 18.2742C221.266 18.6656 220.49 18.8614 219.606 18.8614C218.149 18.8614 216.986 18.3358 216.116 17.2848C215.232 16.2123 214.79 14.7483 214.79 12.8928C214.79 10.9721 215.224 9.46432 216.094 8.37035C216.964 7.26833 218.156 6.71777 219.671 6.71777C220.527 6.71777 221.284 6.92781 221.943 7.34788C222.581 7.7608 223.042 8.31225 223.324 9.00045H223.389V6.88044H227.227V18.7416C227.227 20.177 226.658 21.3219 225.52 22.1772C224.382 23.0397 222.871 23.4714 220.987 23.4714Z" fill="white"/>
<path d="M56.3457 29.0796H52.9404L52.0413 31.5634H51.2271L54.2605 23.4561H55.0247L58.0536 31.5634H57.2448L56.3457 29.0796ZM53.171 28.4174H56.1151L54.66 24.4052H54.626L53.171 28.4174Z" fill="white"/>
<path d="M63.6892 31.5694H62.7061L59.7397 28.6083H59.7057V31.5694H58.9692V25.5186H59.7057V28.2428H59.7397L62.6328 25.5186H63.5766L60.4922 28.3947L63.6892 31.5694Z" fill="white"/>
<path d="M68.8579 26.1415H66.7906V31.5694H66.055V26.1415H63.9868V25.5186H68.8579V26.1415Z" fill="white"/>
<path d="M70.2749 33.676C70.1471 33.676 70.0238 33.6617 69.904 33.6313V32.9967C70.0157 33.0226 70.1382 33.036 70.2687 33.036C70.5421 33.036 70.7656 32.9556 70.9372 32.7938C71.1061 32.6365 71.2581 32.3675 71.393 31.985L71.528 31.6087L69.2524 25.5186H70.0497L71.9043 30.8168H71.9212L73.7803 25.5186H74.5668L72.2072 31.8616C71.9454 32.5731 71.679 33.053 71.4091 33.2997C71.1437 33.5508 70.7656 33.676 70.2749 33.676Z" fill="white"/>
<path d="M77.2707 30.9903C77.8141 30.9903 78.2673 30.8276 78.631 30.5014C78.9975 30.1796 79.1816 29.7783 79.1816 29.2992V28.6307L77.411 28.7541C76.3734 28.822 75.855 29.2018 75.855 29.8945C75.855 30.2207 75.9864 30.4844 76.2483 30.6873C76.5101 30.8893 76.8515 30.9903 77.2707 30.9903ZM77.125 31.6418C76.5217 31.6418 76.0329 31.4809 75.6584 31.1592C75.2839 30.833 75.0962 30.4102 75.0962 29.8891C75.0962 28.8363 75.838 28.258 77.3217 28.1534L79.1816 28.0292V27.5126C79.1816 27.0702 79.0484 26.7279 78.7821 26.4848C78.5131 26.2408 78.1341 26.1192 77.647 26.1192C77.2242 26.1192 76.8739 26.2202 76.5968 26.4222C76.3198 26.6287 76.1473 26.9111 76.0793 27.2713H75.3661C75.3965 26.7386 75.6262 26.3042 76.057 25.9673C76.4842 25.6268 77.016 25.4561 77.6533 25.4561C78.3459 25.4561 78.8983 25.6357 79.3103 25.9959C79.7188 26.3552 79.9225 26.8405 79.9225 27.4509V31.5748H79.2147V30.4174H79.1977C79.0332 30.7847 78.7633 31.0805 78.3888 31.3049C78.0108 31.5301 77.5889 31.6418 77.125 31.6418Z" fill="white"/>
<path d="M82.6753 28.9676C82.6074 29.8372 82.4688 30.4736 82.2597 30.8785C82.0005 31.3727 81.6019 31.6203 81.0629 31.6203C80.9387 31.6203 80.8261 31.6015 80.7251 31.564V30.8838C80.8154 30.9142 80.9164 30.9285 81.029 30.9285C81.3248 30.9285 81.5492 30.7453 81.7029 30.378C81.8343 30.0634 81.9236 29.5843 81.9728 28.9399C82.0586 28.0408 82.1373 26.9003 82.2088 25.5186H86.0797V31.5694H85.3441V26.1415H82.8773C82.8174 27.2954 82.7504 28.2374 82.6753 28.9676Z" fill="white"/>
<path d="M88.2595 28.2034V30.9455H89.5689C90.0113 30.9455 90.3652 30.8204 90.6307 30.5692C90.8934 30.3217 91.0239 29.991 91.0239 29.5745C91.0239 29.1553 90.8916 28.8219 90.6253 28.5743C90.3634 28.3277 90.0113 28.2034 89.5689 28.2034H88.2595ZM87.5239 25.5186H88.2595V27.5742H89.5689C90.2356 27.5742 90.7674 27.7548 91.1642 28.1141C91.5655 28.4769 91.7657 28.964 91.7657 29.5745C91.7657 30.1813 91.5655 30.6666 91.1642 31.0304C90.7674 31.3897 90.2356 31.5694 89.5689 31.5694H87.5239V25.5186Z" fill="white"/>
<path d="M97.0134 28.7379H93.6198V31.5694H92.8833V25.5186H93.6198V28.1141H97.0134V25.5186H97.749V31.5694H97.0134V28.7379Z" fill="white"/>
<path d="M104.341 25.5186H105.077V31.5694H104.341V25.5186ZM99.9353 28.2034V30.9455H101.245C101.687 30.9455 102.041 30.8204 102.306 30.5692C102.569 30.3217 102.7 29.991 102.7 29.5745C102.7 29.1553 102.567 28.8219 102.301 28.5743C102.039 28.3277 101.687 28.2034 101.245 28.2034H99.9353ZM99.1997 25.5186H99.9353V27.5742H101.245C101.911 27.5742 102.443 27.7548 102.841 28.1141C103.241 28.4769 103.442 28.964 103.442 29.5745C103.442 30.1813 103.241 30.6666 102.841 31.0304C102.443 31.3897 101.911 31.5694 101.245 31.5694H99.1997V25.5186Z" fill="white"/>
<path d="M107.931 22.9951C107.931 23.3321 108.032 23.6056 108.235 23.8156C108.44 24.0283 108.714 24.1356 109.054 24.1356C109.396 24.1356 109.667 24.0283 109.869 23.8156C110.071 23.6056 110.172 23.3321 110.172 22.9951H110.74C110.74 23.4778 110.586 23.8656 110.28 24.1579C109.969 24.4537 109.56 24.6021 109.054 24.6021C108.545 24.6021 108.137 24.4537 107.83 24.1579C107.519 23.8656 107.363 23.4778 107.363 22.9951H107.931ZM106.526 31.5914V25.5406H107.262V30.4339H107.296L110.735 25.5406H111.47V31.5914H110.735V26.698H110.695L107.262 31.5914H106.526Z" fill="white"/>
<path d="M115.465 31.5694V25.5186H116.347L118.741 30.5862H118.774L121.162 25.5186H122.017V31.5694H121.275V26.8664H121.241L119.027 31.4514H118.449L116.235 26.8664H116.201V31.5694H115.465Z" fill="white"/>
<path d="M125.394 30.9903C125.936 30.9903 126.39 30.8276 126.753 30.5014C127.121 30.1796 127.304 29.7783 127.304 29.2992V28.6307L125.534 28.7541C124.496 28.822 123.978 29.2018 123.978 29.8945C123.978 30.2207 124.109 30.4844 124.371 30.6873C124.633 30.8893 124.974 30.9903 125.394 30.9903ZM125.247 31.6418C124.645 31.6418 124.156 31.4809 123.781 31.1592C123.406 30.833 123.219 30.4102 123.219 29.8891C123.219 28.8363 123.961 28.258 125.444 28.1534L127.304 28.0292V27.5126C127.304 27.0702 127.171 26.7279 126.905 26.4848C126.635 26.2408 126.257 26.1192 125.77 26.1192C125.346 26.1192 124.997 26.2202 124.719 26.4222C124.442 26.6287 124.269 26.9111 124.202 27.2713H123.489C123.519 26.7386 123.749 26.3042 124.18 25.9673C124.607 25.6268 125.139 25.4561 125.775 25.4561C126.469 25.4561 127.021 25.6357 127.433 25.9959C127.842 26.3552 128.046 26.8405 128.046 27.4509V31.5748H127.338V30.4174H127.321C127.156 30.7847 126.886 31.0805 126.512 31.3049C126.133 31.5301 125.712 31.6418 125.247 31.6418Z" fill="white"/>
<path d="M132.238 25.4561C133.002 25.4561 133.623 25.7412 134.103 26.3105C134.579 26.8798 134.816 27.6252 134.816 28.5467C134.816 29.4682 134.579 30.2154 134.103 30.7883C133.631 31.3576 133.013 31.6418 132.248 31.6418C131.773 31.6418 131.349 31.5203 130.978 31.2772C130.619 31.0448 130.354 30.7284 130.181 30.3271H130.164V33.558H129.422V25.524H130.125V26.7761H130.142C130.303 26.3874 130.573 26.0701 130.951 25.827C131.337 25.5794 131.766 25.4561 132.238 25.4561ZM132.108 30.9733C132.693 30.9733 133.165 30.7525 133.524 30.311C133.88 29.865 134.057 29.2787 134.057 28.5521C134.057 27.8254 133.88 27.2373 133.524 26.7878C133.165 26.3418 132.693 26.1192 132.108 26.1192C131.532 26.1192 131.063 26.3436 130.703 26.7931C130.34 27.2463 130.159 27.8308 130.159 28.5467C130.159 29.2653 130.34 29.8498 130.703 30.2994C131.063 30.7489 131.532 30.9733 132.108 30.9733Z" fill="white"/>
<path d="M140.681 31.5694H139.698L136.732 28.6083H136.698V31.5694H135.961V25.5186H136.698V28.2428H136.732L139.625 25.5186H140.569L137.484 28.3947L140.681 31.5694Z" fill="white"/>
<path d="M143.784 26.1139C143.241 26.1139 142.795 26.2989 142.447 26.6698C142.095 27.0371 141.902 27.5215 141.868 28.1248H145.632C145.625 27.5215 145.453 27.0371 145.116 26.6698C144.775 26.2989 144.331 26.1139 143.784 26.1139ZM146.329 29.8614C146.239 30.3816 145.966 30.807 145.509 31.1368C145.049 31.4738 144.492 31.6418 143.84 31.6418C143.001 31.6418 142.334 31.3665 141.84 30.816C141.346 30.2618 141.098 29.5111 141.098 28.5628C141.098 27.6234 141.344 26.87 141.835 26.3042C142.329 25.7394 142.982 25.4561 143.796 25.4561C144.589 25.4561 145.225 25.7224 145.7 26.2542C146.172 26.7896 146.408 27.5072 146.408 28.4055V28.7317H141.868V28.771C141.868 29.453 142.05 29.9919 142.413 30.3896C142.773 30.7865 143.254 30.9849 143.857 30.9849C144.303 30.9849 144.683 30.8803 144.998 30.6703C145.305 30.4683 145.504 30.1984 145.593 29.8614H146.329Z" fill="white"/>
<path d="M151.811 26.1415H149.744V31.5694H149.007V26.1415H146.94V25.5186H151.811V26.1415Z" fill="white"/>
<path d="M152.762 31.5694V25.5186H153.498V30.4119H153.532L156.97 25.5186H157.707V31.5694H156.97V26.676H156.931L153.498 31.5694H152.762Z" fill="white"/>
<path d="M163.281 28.7379H159.887V31.5694H159.151V25.5186H159.887V28.1141H163.281V25.5186H164.017V31.5694H163.281V28.7379Z" fill="white"/>
<path d="M166.202 26.1415V31.5694H165.465V25.5186H169.303V26.1415H166.202Z" fill="white"/>
<path d="M172.94 31.5694V25.5186H173.676V30.4119H173.709L177.148 25.5186H177.884V31.5694H177.148V26.676H177.108L173.676 31.5694H172.94Z" fill="white"/>
<path d="M185.951 26.1415H182.614V31.5694H181.877V25.5186H186.687V31.5694H185.951V26.1415Z" fill="white"/>
<path d="M190.953 25.4561C191.717 25.4561 192.338 25.7412 192.818 26.3105C193.293 26.8798 193.531 27.6252 193.531 28.5467C193.531 29.4682 193.293 30.2154 192.818 30.7883C192.346 31.3576 191.727 31.6418 190.963 31.6418C190.488 31.6418 190.064 31.5203 189.693 31.2772C189.334 31.0448 189.069 30.7284 188.896 30.3271H188.879V33.558H188.137V25.524H188.84V26.7761H188.857C189.018 26.3874 189.287 26.0701 189.666 25.827C190.052 25.5794 190.48 25.4561 190.953 25.4561ZM190.823 30.9733C191.407 30.9733 191.879 30.7525 192.239 30.311C192.594 29.865 192.772 29.2787 192.772 28.5521C192.772 27.8254 192.594 27.2373 192.239 26.7878C191.879 26.3418 191.407 26.1192 190.823 26.1192C190.246 26.1192 189.778 26.3436 189.418 26.7931C189.055 27.2463 188.874 27.8308 188.874 28.5467C188.874 29.2653 189.055 29.8498 189.418 30.2994C189.778 30.7489 190.246 30.9733 190.823 30.9733Z" fill="white"/>
<path d="M197.121 31.6418C196.29 31.6418 195.625 31.3612 195.126 30.799C194.625 30.2413 194.374 29.4905 194.374 28.5467C194.374 27.6065 194.625 26.8548 195.126 26.2935C195.625 25.7349 196.29 25.4561 197.121 25.4561C197.957 25.4561 198.623 25.7349 199.121 26.2935C199.624 26.8548 199.874 27.6065 199.874 28.5467C199.874 29.4869 199.624 30.2377 199.121 30.799C198.623 31.3612 197.957 31.6418 197.121 31.6418ZM197.121 30.9733C197.739 30.9733 198.226 30.7579 198.581 30.3271C198.938 29.8927 199.116 29.2992 199.116 28.5467C199.116 27.7933 198.938 27.1998 198.581 26.7654C198.226 26.3346 197.739 26.1192 197.121 26.1192C196.507 26.1192 196.022 26.3346 195.666 26.7654C195.31 27.1998 195.132 27.7933 195.132 28.5467C195.132 29.2992 195.31 29.8927 195.666 30.3271C196.022 30.7579 196.507 30.9733 197.121 30.9733Z" fill="white"/>
<path d="M205.157 26.1415H202.527C202.471 27.2131 202.401 28.1552 202.319 28.9676C202.24 29.9159 202.059 30.5639 201.774 30.9115V30.9455H205.157V26.1415ZM200.403 33.171V30.9455H200.892C201.297 30.6836 201.541 30.0151 201.628 28.9399C201.74 27.5537 201.819 26.4132 201.864 25.5186H205.898V30.9455H206.876V33.171H206.179V31.5694H201.1V33.171H200.403Z" fill="white"/>
<path d="M209.718 30.9903C210.261 30.9903 210.715 30.8276 211.077 30.5014C211.445 30.1796 211.628 29.7783 211.628 29.2992V28.6307L209.858 28.7541C208.821 28.822 208.302 29.2018 208.302 29.8945C208.302 30.2207 208.434 30.4844 208.696 30.6873C208.957 30.8893 209.299 30.9903 209.718 30.9903ZM209.572 31.6418C208.969 31.6418 208.48 31.4809 208.106 31.1592C207.731 30.833 207.543 30.4102 207.543 29.8891C207.543 28.8363 208.285 28.258 209.769 28.1534L211.628 28.0292V27.5126C211.628 27.0702 211.496 26.7279 211.229 26.4848C210.959 26.2408 210.581 26.1192 210.094 26.1192C209.672 26.1192 209.321 26.2202 209.044 26.4222C208.767 26.6287 208.595 26.9111 208.527 27.2713H207.813C207.844 26.7386 208.073 26.3042 208.504 25.9673C208.931 25.6268 209.463 25.4561 210.101 25.4561C210.793 25.4561 211.346 25.6357 211.758 25.9959C212.166 26.3552 212.37 26.8405 212.37 27.4509V31.5748H211.662V30.4174H211.645C211.481 30.7847 211.211 31.0805 210.836 31.3049C210.458 31.5301 210.036 31.6418 209.572 31.6418Z" fill="white"/>
<path d="M221.332 31.5694H220.354L217.641 28.6083H217.607V31.5694H216.871V28.6083H216.837L214.124 31.5694H213.168L216.096 28.4117L213.259 25.5186H214.196L216.837 28.2428H216.871V25.5186H217.607V28.2428H217.641L220.282 25.5186H221.214L218.388 28.3947L221.332 31.5694Z" fill="white"/>
<path d="M222.204 31.5694V25.5186H222.94V30.4119H222.974L226.412 25.5186H227.149V31.5694H226.412V26.676H226.373L222.94 31.5694H222.204Z" fill="white"/>
<path fill-rule="evenodd" clip-rule="evenodd" d="M29.6769 21.3092L29.7646 20.9588L32.3053 28.7562L31.9987 29.1943V29.1505L31.911 29.3257C24.5954 39.0507 9.08811 37.167 3.34952 27.2668C-2.73951 16.7534 3.43714 2.86689 15.3524 0.369942C16.5789 0.150913 17.8493 0.0194931 19.1197 0.0194931C24.7707 0.0194931 30.7283 2.47263 33.7509 7.42271L36.1164 0.983227H43.4758L37.9125 16.4467L41.5046 26.4345C41.8988 27.4421 42.994 28.0115 44.0015 27.7487L44.3082 27.6611L46.2794 34.2758L43.9139 34.8891C40.5408 35.7214 37.0802 34.013 35.8098 30.7713C35.5031 30.2018 35.1965 29.5886 34.9775 28.9315L33.6633 25.4708L33.5757 25.3394V25.2956L30.6407 16.4029C29.0199 11.4967 25.9972 9.13114 23.5879 8.16741C22.2737 7.55413 20.7843 7.24749 19.2073 7.24749C13.1183 7.24749 8.21199 12.11 8.21199 18.0676C8.21199 24.0252 13.1183 28.8877 19.2073 28.8877C24.1136 28.8877 28.2752 25.6898 29.6769 21.3092Z" fill="url(#paint0_linear_1_2536)"/>
<defs>
<linearGradient id="paint0_linear_1_2536" x1="1.0278" y1="0.518884" x2="44.8338" y2="0.518884" gradientUnits="userSpaceOnUse">
<stop stop-color="#7A5FFF"/>
<stop offset="1" stop-color="#00E824"/>
</linearGradient>
</defs>
</svg>
